<?xml version="1.0" standalone="no"?>
<!DOCTYPE svg PUBLIC "-//W3C//DTD SVG 1.1//EN" "http://www.w3.org/Graphics/SVG/1.1/DTD/svg11.dtd" >
<svg xmlns="http://www.w3.org/2000/svg" xmlns:xlink="http://www.w3.org/1999/xlink" version="1.1">
<metadata>
Created by FontForge 20170731 at Thu Sep  6 21:49:06 2007
 By Aleksey,,,
Copyright (c) 2007 Parachute?, www.parachute.gr.  All rights reserved.
</metadata>
<defs>
<font id="PFScandalPro-Black" horiz-adv-x="650" >
  <font-face 
    font-family="PF Scandal Pro Black"
    font-weight="900"
    font-stretch="normal"
    units-per-em="1000"
    panose-1="2 0 5 4 0 0 0 2 0 4"
    ascent="755"
    descent="-245"
    x-height="310"
    cap-height="762.5"
    bbox="-237 -470.562 1295 971.333"
    underline-thickness="80"
    underline-position="-280"
    unicode-range="U+0020-2122"
  />
<missing-glyph horiz-adv-x="837" 
d="M607 -7q-29 -9 -72.5 -14t-98 -8t-119 -3.5t-133.5 -0.5q-60 0 -99.5 2.5t-44.5 2.5q-38 34 -38 60q0 22 23 48q2 0 6 -0.5t9 -1.5q0 17 1 31t3 22q20 131 66.5 257.5t106.5 244.5l-22 -4q-26 7 -41 23.5t-15 36.5q0 23 21 46q7 3 33.5 8t67 10.5t91 9t104.5 3.5
q75 0 149.5 -10t133.5 -36q2 -2 10 -6t17.5 -11.5t17.5 -20t11 -31.5q0 -5 -3 -34.5t-10 -75.5t-19.5 -104.5t-31.5 -121.5t-46 -126.5t-62 -119.5q22 -3 35 -10t13 -20q0 -10 -14.5 -22t-49.5 -24zM364 651q6 -33 14.5 -68.5t18 -71.5t19.5 -70t19 -64q31 36 58.5 66.5
t53.5 60.5t52 62t55 72q-18 3 -44 6.5t-55.5 6.5t-60 4.5t-58.5 1.5q-22 0 -40.5 -1.5t-31.5 -4.5zM309 555q-21 -46 -45 -104t-48 -118.5t-46 -118t-39 -102.5q69 48 128 99.5t121 114.5q-22 56 -40 115t-31 114zM494 72q-15 28 -26 48.5t-20.5 39t-19 37.5t-21.5 45
q-27 -31 -51 -54.5t-48.5 -43.5t-52.5 -39.5t-64 -42.5q74 8 150 6.5t153 3.5zM549 109q24 54 42 102t32 96.5t24.5 102t19.5 119.5q-31 -41 -54.5 -70.5t-45 -54.5t-45.5 -49t-57 -54q12 -35 22 -62.5t19.5 -50.5t20 -42t22.5 -37z" />
    <glyph glyph-name=".notdef" horiz-adv-x="837" 
d="M607 -7q-29 -9 -72.5 -14t-98 -8t-119 -3.5t-133.5 -0.5q-60 0 -99.5 2.5t-44.5 2.5q-38 34 -38 60q0 22 23 48q2 0 6 -0.5t9 -1.5q0 17 1 31t3 22q20 131 66.5 257.5t106.5 244.5l-22 -4q-26 7 -41 23.5t-15 36.5q0 23 21 46q7 3 33.5 8t67 10.5t91 9t104.5 3.5
q75 0 149.5 -10t133.5 -36q2 -2 10 -6t17.5 -11.5t17.5 -20t11 -31.5q0 -5 -3 -34.5t-10 -75.5t-19.5 -104.5t-31.5 -121.5t-46 -126.5t-62 -119.5q22 -3 35 -10t13 -20q0 -10 -14.5 -22t-49.5 -24zM364 651q6 -33 14.5 -68.5t18 -71.5t19.5 -70t19 -64q31 36 58.5 66.5
t53.5 60.5t52 62t55 72q-18 3 -44 6.5t-55.5 6.5t-60 4.5t-58.5 1.5q-22 0 -40.5 -1.5t-31.5 -4.5zM309 555q-21 -46 -45 -104t-48 -118.5t-46 -118t-39 -102.5q69 48 128 99.5t121 114.5q-22 56 -40 115t-31 114zM494 72q-15 28 -26 48.5t-20.5 39t-19 37.5t-21.5 45
q-27 -31 -51 -54.5t-48.5 -43.5t-52.5 -39.5t-64 -42.5q74 8 150 6.5t153 3.5zM549 109q24 54 42 102t32 96.5t24.5 102t19.5 119.5q-31 -41 -54.5 -70.5t-45 -54.5t-45.5 -49t-57 -54q12 -35 22 -62.5t19.5 -50.5t20 -42t22.5 -37z" />
    <glyph glyph-name=".null" horiz-adv-x="0" 
 />
    <glyph glyph-name="nonmarkingreturn" horiz-adv-x="333" 
 />
    <glyph glyph-name="space" unicode=" " horiz-adv-x="470" 
 />
    <glyph glyph-name="exclam" unicode="!" horiz-adv-x="462" 
d="M337 859q16 5 29.5 0.5t24 -14.5t17.5 -24.5t9 -29.5q-21 -23 -51 -68.5t-61 -103t-58.5 -120.5t-44.5 -121q-4 -15 -10 -39t-13.5 -51.5t-15.5 -55.5t-16.5 -50.5t-17.5 -36.5t-18 -14t-15.5 20t-9 55t0.5 82t13 102q6 33 20 77.5t33 92.5t42.5 96t47.5 88.5t48.5 71
t45.5 43.5zM120 96q4 0 10.5 -0.5t13 -4t12 -11t7.5 -21.5q0 -21 -7.5 -35t-18 -21.5t-22 -10.5t-20.5 -3q-19 0 -29 5.5t-14.5 13t-5.5 15t-1 11.5q3 12 10.5 23t18 19.5t22.5 14t24 5.5z" />
    <glyph glyph-name="quotedbl" unicode="&#x22;" horiz-adv-x="384" 
d="M299 671q15 0 27 -10t12 -27q0 -11 -7 -22t-13 -22q-39 -57 -75 -87.5t-56 -30.5q-2 0 -7 1t-5 12q0 7 14.5 35t35.5 83v6q0 25 20.5 43.5t53.5 18.5zM168 671q15 0 27 -10t12 -27q0 -11 -7 -22t-13 -22q-39 -57 -75 -87.5t-56 -30.5q-2 0 -7 1t-5 12q0 7 14.5 35
t35.5 83v6q0 25 20.5 43.5t53.5 18.5z" />
    <glyph glyph-name="numbersign" unicode="#" 
d="M603 387q-16 0 -35.5 1t-39.5 2.5t-39.5 2.5t-34.5 1q-7 -17 -12 -30.5t-9.5 -26t-8.5 -26t-9 -29.5q23 -3 58.5 -10.5t69.5 -16.5t58.5 -17t26.5 -12q28 -15 28 -27q0 -8 -21 -15t-56 -7q-20 0 -44 -0.5t-49.5 -0.5h-51.5t-48 2q-5 -16 -12 -39t-15.5 -47.5t-17.5 -49.5
t-17 -45q-19 -45 -29.5 -64.5t-15.5 -19.5q-10 0 -13.5 21.5t-3.5 62.5v27t1.5 46t4 54.5t7.5 52.5q-5 0 -19.5 -1t-32 -3t-34.5 -4.5t-26 -4.5q-5 -20 -14 -49t-19.5 -56t-20.5 -46.5t-16 -19.5q-4 0 -9 6t-9.5 23t-7.5 47.5t-3 79.5l-38 -8q-7 3 -16 13.5t-15 25t-7 31.5
t8 34q7 3 17 6t20.5 5t20 4t16.5 3q5 23 10.5 58t14.5 73l-113 -29q-8 3 -17.5 10.5t-15.5 20.5t-8 30.5t5 41.5q2 0 16.5 4t38 10t54 12t65.5 11q12 42 26 80.5t26 68t20 48t8 20.5q29 9 58.5 -3.5t41.5 -45.5q-9 -20 -19 -46q-9 -22 -20 -51.5t-23 -64.5q38 0 74 1.5
t68 -3.5q21 51 45 96t45 79t35 55t16 26q6 0 18.5 -1.5t26 -7t26 -17t19.5 -32.5q0 -3 -10.5 -20t-27 -44.5t-36.5 -64.5t-39 -79l15.5 -4.5t39 -12t51 -17t51 -20t39.5 -21t16 -19.5q0 -10 -12.5 -13.5t-30 -4.5t-35.5 0t-29 0zM301 282q8 33 15.5 59t21.5 59
q-11 2 -31.5 2.5t-41.5 0t-38 -1.5t-20 -1q-10 -33 -15 -64.5t-10 -59.5q20 2 48.5 3t70.5 3z" />
    <glyph glyph-name="dollar" unicode="$" 
d="M602 603q7 -15 10.5 -29.5t-1 -27t-17 -22t-36.5 -14.5l-93 31q-11 -35 -23 -78.5t-20 -82.5q22 -22 44.5 -46.5t40.5 -53t29 -61t11 -69.5q0 -38 -24.5 -68.5t-58 -52t-68 -32t-55.5 -7.5q-7 -45 -16 -79t-17.5 -57.5t-15 -35.5t-7.5 -12q-8 0 -10 33t-2 82q0 14 2 33
t4 42q-21 0 -53.5 11t-65.5 32t-61.5 51t-42.5 67q-8 22 -13 45t-6.5 42t0.5 31t7 12q6 0 10.5 -7t10 -18t12 -25.5t16.5 -29.5q14 -21 35 -40.5t46.5 -35t53.5 -25t57 -11.5q0 2 3.5 21.5t9.5 51t14 72t17 84.5q-12 12 -33 31t-41.5 44.5t-35 57.5t-14.5 70q0 37 18.5 63
t45 41.5t55.5 22t51 6.5q10 0 21.5 -0.5t19.5 -0.5l39 111q20 20 44 16.5t36 -35.5l-39 -104q46 -15 76 -29q17 -8 30 -15zM310 523q1 -11 13 -31.5t31 -43.5q9 29 15 56t16 50q-38 0 -56.5 -11.5t-18.5 -19.5zM440 157q0 19 -12 42t-31 51q-9 -47 -17.5 -86.5t-13.5 -62.5
q9 3 21.5 8.5t24 13.5t20 16.5t8.5 17.5z" />
    <glyph glyph-name="percent" unicode="%" horiz-adv-x="763" 
d="M650 769q26 -2 40 -12.5t20.5 -23t7 -26t-1.5 -21.5q-43 -35 -87 -75q-38 -35 -82 -80.5t-83 -96.5q-30 -37 -56.5 -75.5t-48.5 -73.5t-38 -64t-25 -48q-10 -12 -25 -36t-32 -53.5t-35 -60.5t-34.5 -56.5t-29.5 -42t-21 -16.5q-5 0 -7.5 8t-2.5 22q0 10 8.5 47.5t22 83.5
t30 90.5t33.5 69.5l30 52.5t41 68t51 76t58 76.5q42 56 88 103.5t85 83t65 56.5t29 24zM637 93q-9 -9 -23.5 -21.5t-35 -24t-46 -19.5t-55.5 -8q-12 0 -35 2.5t-46.5 12t-40.5 28t-17 50.5q0 22 11 43t27.5 38.5t36.5 32t37.5 25t30 16t14.5 5.5q11 -1 21 -12.5t10 -31.5
q8 5 22.5 13.5t43.5 8.5q24 0 41.5 -17t25 -41.5t3 -52t-24.5 -47.5zM342 494q-9 -9 -23.5 -21.5t-35 -24t-46 -19.5t-55.5 -8q-12 0 -35 2.5t-46.5 12t-40.5 28t-17 50.5q0 22 11 43t27.5 38.5t36.5 32t37.5 25t30 16t14.5 5.5q11 -1 21 -12.5t10 -31.5q8 5 22.5 13.5
t43.5 8.5q24 0 41.5 -17t25 -41.5t3 -52t-24.5 -47.5zM439 118q10 -5 27 -5q18 0 39 5.5t39.5 14.5t30.5 20t12 22q0 9 -9.5 14.5t-20.5 9t-21 4.5l-10 1q0 -7 -3.5 -11t-3.5 -13q-3 -1 -16.5 -4.5t-29.5 -15.5q-9 -7 -18 -17.5t-16 -24.5zM144 519q10 -5 27 -5q18 0 39 5.5
t39.5 14.5t30.5 20t12 22q0 9 -9.5 14.5t-20.5 9t-21 4.5l-10 1q0 -7 -3.5 -11t-3.5 -13q-3 -1 -15.5 -4.5t-28.5 -14.5q-10 -7 -19 -17.5t-17 -25.5z" />
    <glyph glyph-name="ampersand" unicode="&#x26;" horiz-adv-x="980" 
d="M693 223q45 7 80 10t62 3q52 0 75.5 -6.5t23.5 -10.5q0 -3 -23 -7.5t-59 -12t-81 -18t-90 -26.5q25 -25 39 -44.5t21 -36t8.5 -30t1.5 -25.5q0 -19 -6.5 -38.5t-20.5 -19.5q-13 0 -28 12.5t-40 32.5q-5 8 -22 36t-58 69q-42 -17 -86.5 -39.5t-90.5 -43t-92 -34.5t-91 -14
q-34 0 -64.5 7t-54 22.5t-37.5 39.5t-14 57q0 38 19.5 71.5t48.5 64.5t63.5 60t63.5 57q-21 32 -39.5 71t-18.5 84q0 65 30 116t78.5 86.5t108.5 54t120 18.5q28 0 51 -9.5t39.5 -26t26 -38.5t9.5 -47q0 -33 -16 -64t-38 -58.5t-46 -50t-39 -37.5q-28 -28 -52.5 -52
t-52.5 -47q30 -18 61 -37t60.5 -38.5t55.5 -38t46 -35.5q19 5 34.5 6.5t33.5 6.5zM328 434q28 28 64.5 61t69 66t54.5 64t22 57q-45 0 -89.5 -12t-80.5 -33.5t-58.5 -51t-22.5 -64.5q0 -25 11.5 -46t29.5 -41zM238 85q33 -1 66 7t66.5 20.5t67.5 27t69 27.5
q-42 23 -84.5 51.5t-101.5 66.5q-17 -12 -46 -36.5t-57 -51t-48 -50.5t-18 -35t20 -18.5t66 -8.5z" />
    <glyph glyph-name="quotesingle" unicode="'" horiz-adv-x="253" 
d="M168 671q15 0 27 -10t12 -27q0 -11 -7 -22t-13 -22q-39 -57 -75 -87.5t-56 -30.5q-2 0 -7 1t-5 12q0 7 14.5 35t35.5 83v6q0 25 20.5 43.5t53.5 18.5z" />
    <glyph glyph-name="parenleft" unicode="(" horiz-adv-x="560" 
d="M512 898q18 6 34.5 -0.5t26.5 -20t11.5 -31.5t-10.5 -35q1 0 -14.5 -11t-41.5 -31.5t-60.5 -49.5t-71.5 -65.5t-73.5 -79.5t-67.5 -91q-42 -66 -68.5 -131.5t-26.5 -116.5q0 -55 23.5 -109.5t59.5 -95.5q31 -36 73 -55t80 -30t64.5 -18t26.5 -18q0 -6 -16 -10t-39 -5.5
t-48 -0.5t-42 3q-52 6 -92.5 24.5t-70 41t-49.5 46.5t-30 41l-7 12.5t-15.5 37t-15.5 60.5t-7 83q0 63 20 124.5t53 119t75 110.5t86 99t86 83.5t74.5 64t52.5 41z" />
    <glyph glyph-name="parenright" unicode=")" horiz-adv-x="571" 
d="M250 818q-2 9 -3.5 22t3 26.5t18.5 24.5t44 14q40 -33 82.5 -83.5t75 -112.5t48.5 -132.5t4 -143.5q-24 -151 -100 -258t-191 -176q-16 -9 -40.5 -21t-53.5 -24t-61 -23t-62 -18q-60 -17 -86 -19t-26.5 5.5t19.5 22.5t50 34q22 15 48.5 30.5t53.5 32t53 33.5t49 34
q38 33 76.5 64.5t70.5 72t56 95.5t33 134q7 61 -5.5 116.5t-36.5 103t-56 85t-63 61.5z" />
    <glyph glyph-name="asterisk" unicode="*" horiz-adv-x="471" 
d="M421 532q0 -9 -26 -24t-91 -38q23 -32 30 -54t7 -45q0 -12 -4 -20t-10 -13t-12.5 -7.5t-10.5 -2.5q-8 0 -19.5 4.5t-24.5 14.5t-26 27t-23 41q-12 -19 -30.5 -35t-37 -28t-34 -18.5t-22.5 -6.5q-23 0 -31 26q0 18 11.5 45t50.5 66q-12 4 -25 10t-23.5 14.5t-17.5 20
t-7 25.5q0 23 21.5 34t56.5 6q18 -2 29.5 -3t20.5 -1q5 14 9 27.5t10 34.5q3 10 11.5 20t18.5 18t20.5 13t16.5 5q13 0 21 -10t11.5 -23.5t4.5 -27t1 -20.5q0 -5 -3 -12.5t-3 -12.5q14 3 32 5t36 2q36 0 51 -11t15 -26q0 -11 -4 -20z" />
    <glyph glyph-name="plus" unicode="+" 
d="M614 285q-23 0 -56.5 -1.5t-69.5 -2t-71 0t-63 3.5q-5 -21 -12.5 -48.5t-16.5 -54.5t-19.5 -51t-19.5 -38q-12 -19 -21 -27t-16 -8t-12 6.5t-7 15.5q0 10 -3 22t-3 22q0 12 1 30.5t3.5 41t5.5 47.5t8 48q-35 2 -68.5 1.5t-59.5 -2.5q-31 -2 -58 -5q-10 4 -17.5 15.5
t-10.5 26.5t-1 31.5t11 31.5q35 5 73 8q32 2 73 2.5t83 -4.5l44 186q9 4 21.5 6t27 -0.5t29 -11t27.5 -25.5l-37 -161q23 -2 53.5 -7.5t61.5 -12.5t58 -14.5t44 -14.5q25 -12 36.5 -21t12 -16t-8 -12t-22.5 -7z" />
    <glyph glyph-name="comma" unicode="," horiz-adv-x="280" 
d="M198 60q13 -5 25 -16t12 -39q0 -21 -15 -45t-38.5 -45t-53 -35t-57.5 -14q-10 0 -17.5 3.5t-7.5 8.5q0 9 16 21q32 22 54 48.5t22 42.5q-4 3 -8 7q-7 9 -7 22q0 11 5.5 19.5t14 14t18 8t18.5 2.5q11 0 19 -3z" />
    <glyph glyph-name="hyphen" unicode="-" 
d="M568 204q27 -11 49 -23.5t22 -23.5q0 -10 -15.5 -16.5t-41.5 -6.5q-29 1 -78.5 3.5t-105.5 5t-112 4.5t-98 2q-29 0 -54.5 -1.5t-45 -3t-31.5 -2.5t-14 -1q-7 4 -13.5 17.5t-9.5 29.5t-1.5 32t11.5 26q20 2 43 5q20 2 46 4t56 2q66 0 118 -2t97.5 -7.5t88 -16t89.5 -27.5
z" />
    <glyph glyph-name="period" unicode="." horiz-adv-x="207" 
d="M116 101q5 0 12.5 -1t15 -5.5t13 -14.5t5.5 -28q0 -14 -8.5 -25t-20 -18.5t-24 -11t-20.5 -3.5q-15 0 -23.5 5.5t-12.5 13t-4.5 15t-0.5 11.5q0 12 6.5 23t16 19.5t21.5 14t24 5.5z" />
    <glyph glyph-name="slash" unicode="/" horiz-adv-x="616" 
d="M571 749q-60 -86 -106.5 -164t-97.5 -159q-26 -42 -47.5 -85t-39.5 -82.5t-32 -73t-24 -56.5q-5 -12 -17.5 -38.5t-28.5 -59.5t-34.5 -68t-35.5 -63.5t-31 -47t-21 -18.5q-10 0 -10 25q0 54 15.5 113.5t38.5 137.5q6 18 19 53t34.5 84t51.5 109.5t69 131.5
q35 63 71.5 120.5t67.5 101.5t52 71.5t26 29.5q11 7 24 7t24.5 -7.5t20.5 -23t11 -38.5z" />
    <glyph glyph-name="zero" unicode="0" 
d="M544 680q10 -27 14.5 -70t4.5 -91q0 -42 -8 -97.5t-24.5 -115t-41.5 -117t-59 -103t-77.5 -73.5t-96.5 -28q-54 0 -87 23.5t-50.5 57t-23.5 69t-6 59.5q0 83 17.5 156.5t44.5 135t59 110.5t61 84t51 54.5t28 22.5q19 9 35 12q7 7 19 12t30 5q40 0 68 -29.5t42 -76.5z
M434 724q-2 0 -3 1q2 -15 -3.5 -28.5t-18.5 -21.5q-9 -6 -28.5 -24.5t-43.5 -48.5t-49.5 -71t-47 -90.5t-35 -107.5t-13.5 -122q0 -61 14 -94.5t53 -33.5q25 0 47.5 14t42 37t35 52.5t28 59.5t21.5 58.5t14 50.5q4 16 9 42t9 57.5t6.5 67t2.5 69.5q0 47 -6 83t-34 50z" />
    <glyph glyph-name="one" unicode="1" horiz-adv-x="601" 
d="M444 821q21 0 42 -11.5t21 -39.5q0 -27 -17 -57t-43 -71q-27 -44 -62 -102.5t-64 -142.5q-32 -95 -62.5 -177t-45.5 -150q-5 -21 -9 -40t-9.5 -33.5t-12.5 -22.5t-16 -8q-19 0 -22 10.5t-3 36.5t5 72t14.5 101t24 114t34.5 111q17 46 46 110t65 127q-18 -15 -35.5 -32.5
t-29.5 -37.5q-17 -11 -33.5 -11.5t-29.5 8t-18.5 24.5t0.5 37q13 20 34.5 41.5t46 42t51 39t51 32.5t44.5 22t33 8z" />
    <glyph glyph-name="two" unicode="2" 
d="M541 82q40 -14 65 -32t38.5 -36t18.5 -33t5 -22q0 -6 -6.5 -7.5t-8.5 -1.5t-10.5 5.5t-23.5 14t-36.5 18.5t-48.5 19q-68 17 -106 17q-44 0 -80.5 -3t-68 -8t-59 -11.5t-53.5 -13.5l-42 -10l-42 -10q-16 -2 -30.5 -4t-30.5 -2q-23 0 -40 14.5t-17 39.5q0 19 11.5 36
t31.5 34t47 36.5t59 43.5q35 27 74.5 57.5t77.5 61t71 59.5t56 53q18 20 36 40.5t32 41.5t22.5 42.5t8.5 42.5q0 42 -20.5 69.5t-49.5 27.5q-22 0 -45 -11t-43 -27.5t-36 -35t-23 -34.5q-16 -21 -32.5 -30t-30 -5t-21.5 20.5t-7 48.5q6 25 28 55t55 56.5t72.5 44.5t80.5 18
q45 0 77.5 -17.5t53.5 -45t31.5 -62t10.5 -68.5q0 -69 -37.5 -128.5t-98.5 -120.5q-57 -56 -122.5 -109t-125.5 -99l-25 -20q33 8 75.5 13t103.5 5q45 0 90 -6t88 -21z" />
    <glyph glyph-name="three" unicode="3" 
d="M418 766q10 0 36.5 -4.5t54 -16t48.5 -30.5t21 -49t-15 -48.5t-27 -31.5q-30 -28 -67.5 -52.5t-63.5 -50.5q18 -20 40 -48t41 -61t31.5 -68.5t12.5 -71.5q0 -50 -17 -89.5t-40 -68t-46 -45.5t-35 -23q-20 -9 -37 -16t-36 -11.5t-40.5 -6.5t-50.5 -2q-34 0 -82 9.5
t-91 36.5q-22 14 -36.5 33t-23.5 37.5t-13 35t-4 24.5q0 7 2 7q7 0 15.5 -5t20.5 -14t28.5 -22t41.5 -29q14 -9 43.5 -17.5t65.5 -8.5q56 0 88 11t55 22q12 5 28 15t30.5 27.5t24.5 42.5t10 60q0 30 -9 55t-23 46.5t-31 40t-33 34.5q-18 18 -29 35t-11 43q0 17 10.5 33.5
t25.5 30t30 24t24 16.5q29 18 51 36.5t33 32.5q-7 2 -21 2h-25q-51 0 -86.5 -10.5t-49.5 -24.5q-23 -9 -41 -6t-27 14.5t-8.5 29.5t14.5 38q10 7 29 17.5t44 19.5t55.5 15.5t64.5 6.5z" />
    <glyph glyph-name="four" unicode="4" 
d="M542 387q24 -6 49.5 -23t44 -35t26 -31.5t-4.5 -13.5q-15 4 -36.5 9.5t-44 10.5t-44 8t-36.5 3q-14 0 -39.5 -1t-44.5 -3q-10 -35 -19.5 -76t-19 -81.5t-19 -78.5t-18.5 -66.5t-18.5 -46t-18.5 -17.5q-17 0 -23.5 21.5t-6.5 51.5q0 33 2 59t6 55t11 66t18 92
q-23 -6 -47 -13.5t-48.5 -15t-49.5 -12.5t-50 -5q-30 0 -49.5 7t-31 18.5t-16.5 25t-5 26.5q0 26 28 64t72 81.5t98 88t105.5 84t95 69t67.5 43.5q20 31 51 31q23 0 36 -16t13 -45q-15 -26 -33.5 -63.5t-38 -81t-38 -89.5t-31.5 -88q26 0 52.5 -2t55.5 -10zM228 369
q23 7 47.5 13.5t54.5 11.5q14 46 30.5 92t35.5 95q-37 -27 -78.5 -59.5t-79 -64.5t-68 -61.5t-46.5 -51.5q29 3 54 10t50 15z" />
    <glyph glyph-name="five" unicode="5" 
d="M206 690q21 8 40.5 15t41 12t46 8t54.5 3q85 0 142 -12.5t88 -31.5q23 -14 31.5 -30t3 -29.5t-25 -21.5t-51.5 -6q-13 6 -34 11.5t-47 9.5t-55.5 6.5t-59.5 2.5q-25 0 -46.5 -0.5t-40 -5.5t-34 -16.5t-29.5 -34.5h32q45 0 91.5 -9t87.5 -41q44 -32 63 -77.5t19 -87.5
q0 -60 -26.5 -120t-70 -112t-100 -93.5t-115.5 -64.5q-52 -21 -95.5 -25.5t-69.5 -4.5q-15 0 -32 7q-9 3 -17 7q-18 12 -2 24t51 20q18 4 45.5 10.5t62.5 20.5q52 21 101.5 61.5t87 87.5t60.5 94.5t23 81.5q0 54 -39.5 87.5t-111.5 33.5q-12 -1 -28 -1q-14 -1 -32.5 -1
h-42.5q-38 0 -53.5 12t-15.5 39q0 21 11 48t26.5 52.5t33.5 45.5t32 25z" />
    <glyph glyph-name="six" unicode="6" 
d="M398 461q49 0 90 -12t70 -34.5t45 -54t16 -70.5q0 -46 -29.5 -98t-79 -96t-113.5 -73t-132 -29q-39 0 -75 9.5t-63.5 32t-44 59t-16.5 89.5q0 25 5 55.5t13 56.5q-11 -5 -22 -14t-19 -17q-23 -23 -33.5 -39t-18.5 -16q-4 0 -5.5 8t1.5 21t11 30t22 36q16 22 40 43.5
t59 39.5q30 60 70 112.5t84 98.5t89 85t85 73q36 18 57 18.5t29 -11t4.5 -32.5t-15.5 -46q-14 -10 -43 -33t-65 -55.5t-74.5 -72.5t-72.5 -84q68 20 131 20zM517 287q0 38 -38 60.5t-98 22.5q-35 0 -83 -9.5t-93 -24.5q-17 -38 -28 -78t-11 -78q0 -45 28 -64t71 -19
q47 0 92.5 19.5t81 48t57 62t21.5 60.5z" />
    <glyph glyph-name="seven" unicode="7" 
d="M475 791q25 0 51 -2t48 -10t36 -24t14 -45q0 -13 -5 -23.5t-12 -19t-15 -15t-14 -10.5q-60 -45 -108 -99.5t-81 -105.5q59 -9 96.5 -24t59.5 -30.5t30 -29t8 -20.5q-6 -11 -13 -13t-18 -2q-38 0 -91.5 8.5t-124.5 16.5q-10 -20 -25 -56.5t-30.5 -77.5t-29 -80t-19.5 -63
q-16 -62 -29 -89t-24 -27q-10 0 -17.5 10t-7.5 29q0 11 1 27t2.5 34.5t4.5 38.5t6 39q13 74 30.5 126.5t34.5 97.5q-24 1 -48.5 1.5t-45 1t-35.5 0.5h-20q-12 10 -21 23t-10 26.5t8.5 27t34.5 23.5q24 0 74 -0.5t110 -3.5q31 52 80.5 117t121.5 125h-26q-51 0 -97 -6.5
t-82.5 -14.5t-62 -16.5t-36.5 -12.5q-23 -2 -39 4.5t-23.5 18.5t-5 28t17.5 33q9 4 41 14.5t78.5 21.5t105.5 19.5t122 8.5z" />
    <glyph glyph-name="eight" unicode="8" 
d="M213 549q4 -17 10.5 -31.5t15.5 -28.5t22 -30t31 -36q68 53 106.5 86t57.5 51q4 4 17 17.5t26.5 31.5t24.5 37t11 34q0 9 -9 15.5t-23.5 10.5t-33 5.5t-37.5 1.5q-32 0 -57.5 -6t-45 -15t-33.5 -18.5t-22 -15.5q-19 -17 -32.5 -21t-18 3t2 23t27.5 40q13 15 33 31
t46.5 28.5t59.5 20.5t73 8q21 0 49.5 -3t54 -14t43 -33t17.5 -59q0 -29 -9 -55.5t-23.5 -50.5t-32.5 -44.5t-37 -37.5q-22 -21 -40.5 -37t-37.5 -31.5t-40.5 -33.5t-49.5 -42q20 -20 40.5 -43.5t37.5 -49t28 -54t11 -59.5q0 -41 -19 -69t-48.5 -46.5t-65 -28.5t-69 -14.5
t-60.5 -5.5t-38 -1q-17 0 -43.5 4t-51.5 17t-43 36.5t-18 61.5q0 36 21 74t51.5 73t64 65t58.5 50q-51 60 -71.5 101t-22.5 57q0 36 10 56.5t30 20.5q23 0 52 -46zM376 140q0 15 -8 34t-21 39t-29.5 40t-33.5 37q-26 -23 -55 -49.5t-53 -52.5t-40 -49t-16 -37q0 -25 62 -25
q28 0 62 3t63 10.5t49 19.5t20 30z" />
    <glyph glyph-name="nine" unicode="9" 
d="M508 762q28 0 49.5 -10.5t36.5 -28t22.5 -40t7.5 -46.5q0 -25 -8.5 -59t-21.5 -71.5t-29 -75.5t-30 -69q-12 -26 -34 -64t-49.5 -80t-57.5 -83.5t-57 -75.5q-15 -18 -36.5 -39t-43 -38t-39.5 -28.5t-25 -11.5q-11 0 2 32t44 74q22 30 44.5 61t46 69t49.5 87.5t57 117.5
q-29 -15 -61 -28.5t-65 -24t-65 -17t-62 -6.5q-32 0 -60 5.5t-49 19t-33.5 36.5t-12.5 58q0 32 26 69.5t68.5 75t95 72t106 61t102 42.5t82.5 16zM124 425q0 -10 12 -16t28 -6q63 0 151.5 32t182.5 101q6 14 10.5 29t7.5 28.5t4.5 24.5t1.5 17q0 10 -5.5 17.5t-18.5 7.5
q-24 0 -61.5 -12.5t-79 -33t-83 -46.5t-75 -52t-54.5 -50t-21 -41z" />
    <glyph glyph-name="colon" unicode=":" horiz-adv-x="283" 
d="M120 107q9 0 23.5 -7.5t19.5 -35.5q0 -25 -8.5 -38.5t-20.5 -20t-24.5 -8t-21.5 -1.5q-16 0 -25 7t-13 15t-4.5 14.5l-0.5 6.5q3 12 10.5 23t18 20.5t22.5 16t24 8.5zM194 368q5 0 11.5 -1.5t13 -6.5t11.5 -13.5t8 -22.5q0 -25 -10 -38.5t-23.5 -20t-27 -8t-20.5 -1.5
q-14 4 -21.5 10.5t-11 13t-4 12t-0.5 7.5q2 12 9.5 24t18 22t22.5 16.5t24 6.5z" />
    <glyph glyph-name="semicolon" unicode=";" horiz-adv-x="309" 
d="M225 321q6 0 13 -1.5t12.5 -6.5t9.5 -16t4 -29q0 -20 -9 -31.5t-22 -17.5t-26 -7.5t-20 -1.5q-11 0 -18.5 4.5t-11.5 11t-5.5 14t-1.5 13.5q0 12 7.5 24t18.5 22t24 16t25 6zM198 72q13 -5 25 -16t12 -39q0 -21 -15 -45t-38.5 -45t-53 -35t-57.5 -14q-10 0 -17.5 3.5
t-7.5 8.5q0 9 16 21q31 22 53.5 48t22.5 43q-4 3 -8 7q-7 9 -7 22q0 11 5.5 19.5t14 14t18 8t18.5 2.5q11 0 19 -3z" />
    <glyph glyph-name="less" unicode="&#x3c;" horiz-adv-x="580" 
d="M492 449q19 -5 30 -16.5t14 -26.5t-0.5 -31t-12.5 -31q-4 -1 -28 -9.5t-59.5 -23.5t-77 -34.5t-81 -41t-71.5 -45t-48 -45.5q21 -9 54.5 -22t72.5 -27t80 -27t78 -23q40 -11 57.5 -20t18.5 -16.5t-11.5 -12.5t-33.5 -7h-68q-47 3 -96 6t-96 13.5t-89 33.5t-73 65
q-9 19 -6 43t12 38q15 30 52.5 61t85.5 60t100 54.5t95.5 44.5t71.5 29.5t29 10.5z" />
    <glyph glyph-name="equal" unicode="=" 
d="M632 422q27 -11 39 -21t12 -18q0 -10 -16 -16.5t-42 -6.5q-21 2 -51.5 3.5t-67 3t-76 3t-76 2.5t-69 1.5t-54.5 0.5q-29 0 -55.5 -1t-46.5 -3q-24 -2 -43 -4q-9 6 -17 27t-8 43q0 17 6 29q-1 4 15 8q14 3 45 6t94 3q65 0 115.5 -1.5t97 -7.5t93.5 -18t105 -33zM539 217
q27 -12 39 -22.5t12 -18.5q0 -10 -16 -15.5t-42 -5.5q-30 0 -81 2.5t-107.5 5t-110 5t-88.5 2.5q-30 0 -51.5 -1t-38.5 -3t-31.5 -4.5t-30.5 -6.5q-14 17 -20.5 34.5t-6.5 34.5q0 10 2 19.5t5 18.5q0 1 5.5 3.5t23.5 4.5t51.5 3.5t89.5 1.5q126 0 221 -12t175 -46z" />
    <glyph glyph-name="greater" unicode="&#x3e;" horiz-adv-x="663" 
d="M583 365q12 -12 23.5 -29.5t11.5 -41.5q0 -30 -20.5 -53t-49.5 -40t-62 -30t-58 -23q-23 -7 -61 -15.5t-80.5 -16t-84 -12.5t-71.5 -5q-47 0 -66.5 4.5t-19.5 12.5q0 7 30 22t76 32.5t101 37.5t104 37.5t86 31t48 20.5q-21 31 -63.5 59t-86.5 49.5t-78 34.5t-38 13v-1
q-5 8 -8 19t-3 23q0 14 7.5 29t27.5 28q22 -2 60.5 -14t84 -35t95.5 -57.5t95 -79.5z" />
    <glyph glyph-name="question" unicode="?" horiz-adv-x="616" 
d="M116 27q4 3 10 3q10 0 20 -9t14 -31q0 -25 -9.5 -39t-22.5 -20.5t-26.5 -7.5t-20.5 -1q-9 0 -16 4.5t-11 10.5t-6 11.5t-2 7.5q0 12 5.5 25t15.5 23t22.5 16.5t26.5 6.5zM570 591q0 -60 -21.5 -100t-56 -67t-78 -44.5t-88 -33t-85.5 -32.5t-70 -42q-18 -16 -33.5 -46.5
t-27.5 -80.5q-12 -51 -16.5 -72.5t-11.5 -21.5q-3 0 -8.5 8t-11.5 23t-10.5 36t-4.5 48q0 21 5.5 49t20.5 67q20 53 57 85t80.5 52t89 33t82 29t60 39.5t23.5 64.5q0 27 -12.5 46t-31 31t-41 17.5t-41.5 5.5q-21 0 -37 -4.5t-26.5 -10.5t-16 -11t-6.5 -5l-26 4t-24 9
t-18 22.5t-7 44.5q2 0 13 9t30 19.5t47 19.5t64 9t77.5 -13.5t77 -39t59.5 -62.5t24 -85z" />
    <glyph glyph-name="at" unicode="@" horiz-adv-x="1009" 
d="M651 585q43 0 97.5 -12.5t102.5 -42.5t80.5 -79.5t32.5 -122.5q0 -61 -23.5 -124t-65 -114.5t-98.5 -84t-123 -32.5q-26 0 -54.5 8.5t-53.5 25t-43 42t-23 59.5q-18 -18 -40.5 -36.5t-47 -34.5t-50 -26t-49.5 -10q-29 0 -48.5 10t-32 26t-18 34.5t-5.5 35.5q0 33 17.5 65
t45.5 60t63 51.5t69 40.5t64.5 26.5t50.5 9.5q52 0 75 -17t31 -40q4 -11 5 -21.5t1 -20.5q0 -29 -6.5 -47t-20.5 -18q-8 0 -16 13t-19 27q-9 11 -20 20.5t-28 9.5q-24 0 -55.5 -14.5t-61.5 -35.5t-55 -45t-37 -43q-5 -8 -9 -17.5t4 -14.5t27 5t43 27.5t50 39t48 40.5
q5 4 16 14.5t36 10.5q24 0 34.5 -16t16.5 -39q5 -18 9.5 -38t13 -36.5t24 -27.5t41.5 -11q39 0 79 22t72.5 58t53.5 82t21 94q0 49 -21.5 81.5t-55 52t-73.5 28t-76 8.5q-56 0 -116.5 -16.5t-119 -46t-111 -71.5t-92 -94t-63 -112t-23.5 -125q0 -60 19 -103t49 -72.5t68 -47
t76 -27t71.5 -12.5t56.5 -3q48 0 48 -5q0 -4 -28 -14t-93 -10q-30 0 -67 5.5t-75 18.5t-74 35.5t-64.5 56.5t-45.5 81t-17 109q0 75 24 144.5t66 130.5t99 111t124.5 86t142 55.5t150.5 19.5z" />
    <glyph glyph-name="A" unicode="A" horiz-adv-x="817" 
d="M547 206h-74t-90.5 -2t-90.5 -6t-74 -11q-5 -8 -15.5 -26t-24 -40t-28.5 -45.5t-28.5 -42.5t-25.5 -31.5t-18 -12.5q-8 0 -9 20t3 47.5t11.5 57t16.5 48.5l-31 -6q-22 14 -32 38.5t7 66.5q13 4 30 8q14 4 33.5 8t42.5 9q18 46 51 100.5t74 109t87.5 105t92 89.5t87 62.5
t73.5 23.5q9 0 15 -5t10 -11q4 -7 6 -15q3 -5 6.5 -34t7.5 -71.5t7 -93t4 -99t-0.5 -90t-6.5 -64.5q16 -3 32 -9t29 -13t21 -14.5t8 -12.5q0 -8 -10 -14t-24.5 -10.5t-31.5 -7t-31 -3.5q-1 -11 -6 -32t-12.5 -45.5t-17 -50t-20 -46.5t-22 -34t-21.5 -13q-9 0 -13 13t-5 33
t0.5 45t3 49t3 45t0.5 33zM559 306q4 33 5.5 75t0.5 85.5t-4 85.5t-8 75q-35 -24 -74 -63t-76 -84t-69.5 -91t-53.5 -84q92 7 159.5 5t119.5 -4z" />
    <glyph glyph-name="B" unicode="B" horiz-adv-x="891" 
d="M633 420q31 -14 67.5 -31.5t67.5 -43t52 -60t21 -82.5q0 -50 -24 -86t-63 -60.5t-88.5 -38.5t-100 -22t-97.5 -10.5t-82 -2.5q-63 -1 -85.5 4.5t-17.5 13.5t32.5 18.5t64.5 19.5q24 6 59.5 14.5t74.5 19.5t78.5 24.5t70.5 29.5t50.5 35.5t19.5 42.5q0 21 -17.5 44
t-56.5 44t-82 37.5t-85 28.5t-80.5 20t-68.5 13q-15 -26 -36 -64t-44 -81t-46.5 -87.5t-44.5 -84t-38 -70.5t-27 -47q-20 -32 -30.5 -45.5t-17.5 -11.5q-6 1 -8.5 9t-3 20t1 25.5t3.5 27.5q30 93 61.5 180t73 169.5t95.5 162t129 157.5q-23 5 -44 7t-38 4q-19 2 -36 2
q-6 6 -11.5 18.5t-7 27.5t4 30.5t21.5 28.5q25 1 55 -1q26 -2 59.5 -7.5t71.5 -16.5q7 8 10.5 11.5l5.5 5.5l3.5 3.5l4.5 4.5q9 0 20.5 -3t22.5 -10.5t21 -20.5t17 -34q21 -11 43 -25t40 -33t29.5 -42t11.5 -52q0 -23 -7 -44t-19 -38t-26.5 -29.5t-29.5 -18.5zM523 615
q-23 -23 -53.5 -57.5t-58.5 -72.5q18 0 51 0.5t66 5t57 14.5t24 30q0 23 -20.5 45t-65.5 35z" />
    <glyph glyph-name="C" unicode="C" horiz-adv-x="743" 
d="M518 13q-5 -2 -33.5 -7t-76.5 -6q-59 0 -117 18.5t-104.5 54t-75.5 88t-29 121.5q0 83 38 152.5t96.5 125.5t129.5 98.5t137.5 71t120 43t76.5 15.5q19 -4 32 -14.5t17.5 -24.5t-1 -30.5t-24.5 -31.5q-12 -5 -55.5 -17.5t-100.5 -35t-120.5 -54.5t-116.5 -75t-87.5 -97.5
t-34.5 -121.5q0 -59 31 -100.5t78.5 -68t104.5 -37t109 -5.5q69 6 95 2.5t21 -13t-36 -23t-74 -28.5z" />
    <glyph glyph-name="D" unicode="D" horiz-adv-x="883" 
d="M833 325q0 -59 -24.5 -106.5t-66 -84.5t-96 -63.5t-113.5 -44t-118.5 -25t-111.5 -6.5q-64 2 -91 7.5t-27 12.5q0 10 33 20.5t79 21.5q37 8 83 20.5t93.5 29.5t92.5 38.5t80 48.5t56.5 58.5t21.5 69.5q0 33 -17.5 65.5t-45.5 63t-63 58t-71 50.5t-68.5 40t-55.5 28
q-45 -53 -79.5 -111t-63.5 -121t-54.5 -130t-52.5 -138q-38 -93 -59 -137t-32 -44q-7 0 -9.5 18.5t-1.5 45.5t4 56t6 50q10 64 31 133.5t51 141t68.5 143t85.5 137.5l-25 12q-9 14 -12.5 30.5t1 31t17.5 25t38 12.5q6 -2 13 -5l15 -5t21 -8l7 12q26 6 51 -6t37 -47l-2 -3
q29 -15 68 -37t80.5 -49.5t82.5 -61t73 -72t51.5 -82.5t19.5 -93z" />
    <glyph glyph-name="E" unicode="E" horiz-adv-x="787" 
d="M391 103q27 0 64 -5t76.5 -13.5t78.5 -20t69.5 -24t49.5 -26t19 -25.5q0 -4 -6 -4q-5 0 -41.5 6.5t-93.5 11.5q-51 5 -103 6.5t-108 -2t-117 -12.5t-131 -25q-28 -1 -45 14t-26 38.5t-12 51.5t-3 53q0 72 19 154t53 162t82 151t105 122l12 19q17 17 58 24t97 7
q44 0 80.5 -4.5t63 -10t42.5 -10.5t19 -6q16 -11 23.5 -26.5t4.5 -30t-17.5 -26.5t-41.5 -16q-9 4 -41.5 10.5t-72 11t-78.5 4.5t-63 -8q-63 -55 -110 -129t-76 -150q32 3 72 5t88 2q42 0 80 -8t67.5 -20t47 -26t17.5 -26q0 -11 -17.5 -16.5t-45 -7t-61 -1t-65.5 0.5
q-76 0 -131 -6t-89 -14q-7 -38 -10.5 -70.5t-3.5 -61.5q0 -11 0.5 -21t1.5 -21q28 7 53 10.5t51 5.5t54 2.5t61 0.5z" />
    <glyph glyph-name="F" unicode="F" horiz-adv-x="715" 
d="M761 721q6 -14 7 -29t-3.5 -28.5t-16 -24.5t-31.5 -17q-3 0 -15 4.5t-34 10t-54.5 10t-76.5 4.5q-19 0 -42.5 -1t-43.5 -3q-38 -24 -66.5 -58.5t-50 -72t-37 -74.5t-26.5 -68q54 0 100.5 -7.5t80.5 -19.5t53.5 -26t19.5 -26q0 -8 -17.5 -12.5t-45 -8t-61.5 -5t-65.5 -3
t-58 -2.5t-39.5 -2q-2 -7 -8.5 -27.5t-14.5 -48.5t-18 -60t-19 -62q-8 -29 -13 -46.5t-9 -28t-7.5 -14t-7.5 -3.5q-10 0 -14.5 27.5t-4.5 64.5q0 46 2.5 93.5t10.5 92.5q-9 -2 -16.5 -2.5t-13.5 -1.5q-7 -1 -12 -2q-9 4 -17.5 14.5t-13.5 24t-6 29t5 30.5q18 8 44.5 14.5
t53.5 11.5q7 25 19 61t31.5 77.5t46.5 85.5t65 86q27 30 51.5 47t45.5 24.5t37.5 9t27.5 1.5q30 0 70 -3t80 -8t74.5 -12t53.5 -16z" />
    <glyph glyph-name="G" unicode="G" horiz-adv-x="805" 
d="M509 21q-37 -20 -66 -23.5t-57 -3.5q-59 0 -117 19t-104 56t-75 90.5t-29 121.5q0 64 25 122.5t68.5 110.5t102.5 96t125.5 78t138.5 58.5t142 36.5q21 -4 31 -16.5t11 -28t-6.5 -32t-22.5 -28.5q-11 -2 -53 -14.5t-98.5 -34.5t-119 -55t-115 -77t-87 -98.5t-34.5 -120.5
q0 -41 25.5 -80.5t66 -71t90 -50.5t97.5 -19q11 0 26 2t29 4q16 3 31 7q20 32 41.5 74.5t39.5 84.5t29.5 79t11.5 58q0 7 -2 11.5t-10 4.5q-12 0 -43 -8.5t-65 -20.5t-63.5 -23.5t-38.5 -17.5q-5 3 -14.5 10t-18 18t-13 26.5t0.5 35.5q12 12 45 27t72 28.5t76.5 22.5t58.5 9
q25 0 47.5 -9.5t39.5 -26t27 -38.5t10 -46q0 -46 -15 -92t-35 -86t-40.5 -70t-31.5 -43q-17 -20 -36 -38.5t-38 -33t-35 -23.5t-25 -9q-13 0 -13 10q0 6 13 37z" />
    <glyph glyph-name="H" unicode="H" horiz-adv-x="775" 
d="M204 263q-5 -14 -13.5 -39t-20 -54t-24 -59.5t-24 -55.5t-21.5 -40.5t-16 -15.5t-9.5 8.5t-5 21.5t-1.5 28.5v29.5q0 28 2 53.5t6.5 52t11.5 56.5t16 68q9 37 25.5 82t36.5 93t41 93.5t39.5 83.5t31.5 63t18 32q27 6 54 -4t41 -49q-16 -34 -39.5 -78t-46.5 -89.5
t-42 -88.5t-27 -76h53.5t63 -0.5t65 -2t60.5 -3.5q8 39 20 88t28 101t34.5 104t39.5 98q28 8 55.5 0t46.5 -40q-11 -31 -28 -77t-34 -97t-31 -101t-20 -88q1 0 13 -3t29.5 -9t38 -13.5t37.5 -16t28.5 -17t11.5 -16.5q0 -3 -2.5 -7t-13 -7.5t-31 -5.5t-57.5 -2h-45
q-11 0 -23 1q-3 -16 -9 -43.5t-14 -59t-17.5 -63.5t-19 -58t-18.5 -42.5t-17 -16.5q-11 0 -17.5 20t-8.5 54q0 47 1 88q1 35 3 70.5t5 53.5q-27 1 -63 1.5t-73 0t-70.5 -2t-53.5 -4.5z" />
    <glyph glyph-name="I" unicode="I" horiz-adv-x="358" 
d="M331 721q-29 -49 -50 -106.5t-37.5 -118t-29 -121.5t-23.5 -116q-10 -50 -18 -92.5t-19 -81.5q-8 -27 -15.5 -51t-14.5 -42t-13.5 -28t-13.5 -10q-9 0 -18.5 24.5t-9.5 78.5q2 42 6.5 94.5t9.5 106.5q5 57 19 128.5t34 143t45 136t52 107.5q13 3 27.5 2t27.5 -7t24 -17.5
t17 -29.5z" />
    <glyph glyph-name="J" unicode="J" horiz-adv-x="659" 
d="M494 638q-34 -11 -69.5 -15t-61.5 -4q-68 0 -104 5.5t-44 7.5q-13 11 -21 23t-8 26t9.5 28.5t32.5 27.5q7 0 18.5 -2t28.5 -4.5t41 -4t57 -1.5q36 0 76.5 9.5t88.5 27.5q14 2 27 -4t22.5 -15t15.5 -20t6 -20q0 -67 -13.5 -146.5t-42 -159t-72 -154t-104.5 -131.5
t-139 -91.5t-175 -34.5q-44 0 -75 4.5t-50.5 10t-28 10.5t-8.5 6q0 4 10 8t26.5 8t38.5 8t47 8q46 7 80.5 18t58 22t38 20.5t22.5 13.5q58 33 105.5 92t82.5 129.5t56.5 147.5t27.5 146z" />
    <glyph glyph-name="K" unicode="K" horiz-adv-x="717" 
d="M630 702q19 -4 30 -15.5t15 -26.5t0.5 -31.5t-14.5 -31.5q1 2 -17.5 -4.5t-50.5 -19.5t-74 -31.5t-86 -40.5t-88 -46.5t-80 -49.5q38 -22 82.5 -53t89 -67t86 -74t73.5 -74.5t51 -69t19 -57.5q0 -16 -8 -16q-6 0 -21.5 12.5t-54.5 45.5q-10 9 -37.5 29t-64 46t-77.5 55
t-80 55.5t-71 48t-49 32.5q-12 -45 -28 -101t-32 -106t-31.5 -84t-26.5 -34q-14 0 -19.5 31.5t-5.5 82.5q0 42 9 99.5t25 121.5t37 129.5t45 124t50 104.5t51 72q12 2 26 -0.5t26.5 -11t20.5 -22.5t8 -34q-13 -19 -27 -42q-12 -20 -26 -47.5t-28 -59.5q65 39 127.5 69
t112 50.5t80.5 31t33 10.5z" />
    <glyph glyph-name="L" unicode="L" horiz-adv-x="638" 
d="M489 78q67 -6 91 -14t17 -16.5t-37.5 -16.5t-70.5 -15q-31 -5 -83 -12.5t-108 -14.5t-108.5 -12t-85.5 -5q-9 0 -20 5.5t-20 14.5t-15.5 20t-6.5 22q0 46 6.5 88.5t18.5 83.5t28 81t34 82q37 81 81.5 152t83.5 124t66 85t30 36q15 4 31.5 2t29.5 -11t20 -24t3 -37
q-45 -53 -90 -115q-38 -53 -82 -120.5t-80 -141.5q-30 -61 -47 -116.5t-21 -118.5q70 4 152 3.5t183 -9.5z" />
    <glyph glyph-name="M" unicode="M" horiz-adv-x="929" 
d="M889 504q0 -41 -12 -95t-30 -110.5t-39.5 -110t-40.5 -91.5q-26 -52 -44.5 -84t-26.5 -32q-4 0 -3.5 13t3.5 30.5t7 35.5t7 29q15 47 29.5 98.5t25.5 102t18 98.5t7 87q0 33 -3.5 54t-8.5 34t-11.5 19.5t-12.5 9.5q-16 -5 -41.5 -26.5t-53.5 -49.5t-54 -57t-42 -49
q-10 -12 -21.5 -28.5t-26 -31.5t-30.5 -25.5t-35 -10.5q-27 0 -36.5 15t-9.5 38t5.5 56t12.5 69.5t13.5 72t8.5 64.5q-44 -33 -83 -85t-73 -111t-60.5 -119.5t-44.5 -112.5q-19 -53 -31 -98t-19 -77.5t-9.5 -51.5t-2.5 -21q-9 -20 -24.5 -35t-31.5 -17.5t-29.5 11
t-19.5 49.5q0 41 17 110.5t49 163.5q21 61 49.5 124t61.5 122t70 111t74 90.5t73.5 61t69.5 22.5q28 0 43 -14.5t22 -34t8.5 -39.5t1.5 -30q0 -12 -3.5 -38.5t-8.5 -55.5q21 22 45 47.5t51 47t57.5 35.5t64.5 14q41 0 65.5 -19.5t38 -48.5t18 -63t6.5 -63z" />
    <glyph glyph-name="N" unicode="N" horiz-adv-x="968" 
d="M153 38q-39 -48 -65.5 -40.5t-37.5 65.5q1 16 12 64t36.5 117.5t68 155t107.5 177.5q21 29 49.5 63.5t61.5 64.5t69.5 50t72.5 20q34 0 56 -12t35.5 -33t20 -50t9.5 -63q1 -8 2 -37t2.5 -69t3 -87t2.5 -92t1 -84t-1 -62q10 18 25.5 50.5t34 73t39 86.5t40 92.5t37.5 90.5
t32 80q20 55 30 78.5t17 23.5q4 0 5.5 -10t1 -25.5t-2.5 -33.5t-5 -34q-6 -33 -16.5 -79t-24.5 -99.5t-31.5 -111.5t-37 -113t-40.5 -104.5t-42.5 -86.5t-42.5 -59t-41 -22q-30 0 -46 18t-23 45.5t-9 61.5t-5 66q-2 28 -4.5 75.5t-4 102.5t-3.5 110.5t-4.5 100.5t-5 73.5
t-6.5 28.5q-14 0 -34.5 -13.5t-43.5 -35t-46 -48t-41 -53.5q-55 -92 -90.5 -167t-58 -134.5t-35.5 -103.5t-23 -72z" />
    <glyph glyph-name="O" unicode="O" horiz-adv-x="733" 
d="M470 762q13 3 29 3q58 0 96 -26.5t59.5 -65t30 -82t8.5 -77.5q0 -53 -16.5 -123.5t-63.5 -142.5q-29 -44 -72 -91t-96 -85.5t-113 -63.5t-122 -25q-36 0 -63.5 14t-46.5 37t-28.5 51.5t-9.5 58.5q0 51 13 104.5t30 98.5q47 123 92 202t83 128t67.5 72.5t46.5 35.5
q10 3 23 3.5t25 -2.5t20 -9t8 -15zM202 90q43 0 88.5 18t88.5 48.5t81 71.5t67 88q30 48 47 98.5t17 99.5q0 14 -1.5 42t-11 56.5t-31.5 50t-63 21.5q-28 0 -57 -8q-16 -16 -44 -50t-60 -82.5t-64 -109.5t-55 -130q-13 -39 -23 -76.5t-10 -78.5q0 -32 6 -45.5t25 -13.5z" />
    <glyph glyph-name="P" unicode="P" horiz-adv-x="929" 
d="M494 744q29 0 70.5 -4.5t86 -15t88.5 -27t79.5 -41.5t57 -59t21.5 -78q0 -57 -36.5 -99.5t-95.5 -72.5t-133 -50t-148.5 -31t-142 -15.5t-114.5 -4.5q-13 -35 -31 -82t-36.5 -90.5t-35 -73.5t-27.5 -30q-7 0 -11 15.5t-4 41.5t4 57t9.5 61.5t11 59t9.5 48.5
q-35 4 -50 8.5t-15 9.5q0 8 23.5 16.5t59.5 17.5q7 26 23.5 62.5t38 79t46.5 86t49.5 83t46.5 71t38 49.5q6 0 7.5 1.5t10.5 3t31 2.5t69 1zM263 324q27 2 76.5 9t107.5 18t118.5 27t109.5 37t80.5 47t31.5 57q0 28 -36.5 50.5t-90 37.5t-114 22.5t-108.5 7.5
q-17 -21 -42 -59t-50.5 -82t-48 -89.5t-34.5 -82.5z" />
    <glyph glyph-name="Q" unicode="Q" horiz-adv-x="796" 
d="M599 774q72 0 110 -43.5t38 -122.5q0 -46 -10.5 -100t-36.5 -113t-71 -121t-114 -124q22 -21 54 -39.5t62 -35.5t51.5 -32.5t21.5 -32.5q0 -11 -14.5 -16.5t-36.5 -5.5q-8 0 -26 3t-42 10q-35 11 -77.5 30t-79.5 51q-23 -16 -50 -31.5t-57 -28t-64 -20t-71 -7.5
q-35 0 -60.5 13.5t-42.5 35t-25 48.5t-8 53q0 48 12.5 100.5t33.5 106.5t47.5 106t54 97t53.5 81.5t47 59.5q11 7 24.5 11.5t27 3.5t24.5 -10t17 -30q18 19 40.5 37.5t48.5 33t56 23.5t63 9zM579 695q-35 0 -70.5 -12t-65.5 -27.5t-52 -30.5t-31 -22q-32 -40 -67 -96
t-64.5 -118t-49 -125.5t-19.5 -117.5q0 -23 7 -33t17 -10q16 0 39 4.5t47.5 13t48 19.5t41.5 23q-12 23 -18 46t-9 42q-4 22 -4 42q22 13 54 12q25 -2 53 -14q1 -16 2 -27.5t9 -26.5q56 53 95 110t63 108t34.5 92.5t10.5 63.5q0 50 -17.5 67t-53.5 17z" />
    <glyph glyph-name="R" unicode="R" horiz-adv-x="827" 
d="M743 35q24 -13 34.5 -22.5t10.5 -15.5q0 -11 -19 -14.5t-45 -3.5q-38 0 -85 9.5t-97 26t-101 39t-97 49t-84 55t-63 57.5q-8 -14 -17.5 -33t-20 -41t-21 -45.5t-20.5 -45.5q-14 -31 -23 -43.5t-17 -12.5q-6 0 -10.5 13t-4.5 29q0 75 22 157t56.5 162.5t75.5 154.5t80 132
l-61 13q-12 13 -17 28t-2.5 29.5t13 27t29.5 20.5q9 -1 19 -2.5t22.5 -3.5t29.5 -5t41 -7q17 13 36.5 8t31.5 -27q57 -14 116.5 -34.5t125.5 -58.5q16 -8 33.5 -22.5t31.5 -33.5t23.5 -41t9.5 -46q0 -45 -23 -78t-61.5 -56.5t-88.5 -38.5t-105 -23t-111 -11t-106 -3
q23 -26 59 -50.5t78.5 -47t88 -43.5t89 -39.5t81 -34t63.5 -27.5zM247 326q18 4 57 13t86 21.5t97.5 27t91.5 30.5t67.5 33t26.5 33q0 14 -13.5 28t-35.5 27.5t-50 26t-57 22.5t-56 18t-47 12q-19 -28 -43 -64t-47.5 -74.5t-44 -78t-32.5 -75.5z" />
    <glyph glyph-name="S" unicode="S" horiz-adv-x="736" 
d="M671 747q12 -14 17.5 -29t2 -28.5t-17.5 -24.5t-40 -17q-2 0 -12.5 4t-27.5 8.5t-40 8.5t-51 4q-42 0 -64.5 -15.5t-22.5 -31.5q0 -18 14.5 -44t36.5 -58q16 -25 34.5 -51t34 -55.5t25.5 -64t10 -75.5q0 -62 -23.5 -115t-64.5 -91t-96 -59.5t-118 -21.5q-59 0 -99 13.5
t-65.5 31t-36.5 34.5t-11 25q0 7 10 4t29 -10t46 -14t62 -7q51 0 98 17.5t83 46t57 64t21 72.5q0 34 -11.5 65t-28.5 60t-37.5 57.5t-37.5 56.5t-28.5 56.5t-11.5 59.5q0 48 23.5 78.5t55.5 48t66.5 23.5t56.5 6q35 0 65 -5t52 -11q26 -7 45 -16z" />
    <glyph glyph-name="T" unicode="T" horiz-adv-x="728" 
d="M107 630q-9 4 -16.5 17t-11.5 29t-2.5 32t12.5 27q26 6 64 11.5t85 10t101 7.5t111 3q69 0 130.5 -9.5t107.5 -24t73 -30.5t27 -29q0 -10 -18 -14.5t-47 -6.5t-64.5 -1.5t-70.5 1.5t-66 2t-49 0q-19 -28 -47 -83.5t-52 -121.5q-29 -80 -43.5 -162t-23.5 -148.5
t-17 -108.5t-23 -42q-11 0 -19.5 22.5t-14.5 54t-9 65.5t-3 57q0 58 10.5 123.5t28.5 129t41 119.5t48 94q-47 0 -89.5 -4t-75.5 -8.5t-53.5 -8t-23.5 -3.5z" />
    <glyph glyph-name="U" unicode="U" horiz-adv-x="822" 
d="M138 532q11 13 27 17.5t32 1t28 -16.5t14 -36q-3 -11 -14.5 -44t-24 -76.5t-22.5 -92t-10 -88.5q0 -43 14.5 -71t52.5 -28q48 0 99.5 27t102 72t99.5 103t92.5 120t79.5 123.5t62 112.5l43.5 87t20.5 27q5 0 6 -11t-0.5 -26t-4 -30t-3.5 -23q-9 -48 -35 -117t-66 -145.5
t-92.5 -152.5t-115.5 -136.5t-135 -98t-151 -37.5q-52 0 -86 18.5t-53.5 48t-27.5 66t-8 72.5q0 40 8 89t19.5 95.5t24.5 86.5t24 63z" />
    <glyph glyph-name="V" unicode="V" horiz-adv-x="703" 
d="M199 356q0 -27 1 -60t4 -66t8.5 -62.5t14.5 -48.5q27 21 72.5 72.5t102.5 124t122 163.5t131 192q38 58 58 83.5t28 25.5q5 0 4.5 -9.5t-3.5 -23t-7 -27.5t-7 -23q-8 -28 -29 -72.5t-50 -99t-65 -114.5t-75 -119t-79.5 -112t-78 -93.5t-71 -64.5t-58.5 -24
q-31 0 -53 21.5t-36.5 55.5t-23 76t-13 83t-5.5 76.5t-1 56.5q0 75 6.5 141t14.5 116t15 81.5t8 38.5q6 15 22 24t33 9t32 -11.5t19 -38.5q0 -8 -6.5 -41t-14 -83t-14 -114t-6.5 -133z" />
    <glyph glyph-name="W" unicode="W" horiz-adv-x="1089" 
d="M1050 694q0 -57 -28 -164t-100 -260q-37 -78 -71.5 -129.5t-65 -82t-58 -43t-49.5 -12.5q-33 0 -55 17t-35.5 40.5t-19.5 48.5t-6 42q0 27 4.5 53.5t8.5 52.5q-22 -21 -50.5 -53t-62.5 -67t-71.5 -70t-76.5 -62.5t-78.5 -45t-77.5 -17.5q-35 0 -54 18.5t-29 44.5t-12 55
t-2 49q0 82 20.5 167.5t51 164t65.5 144t65 107.5q21 19 41.5 26.5t34 1.5t18 -26.5t-6.5 -56.5q-28 -48 -60 -109.5t-59.5 -130t-46 -140t-18.5 -139.5q0 -8 1.5 -29.5t5.5 -37.5q37 19 84 56.5t95.5 83.5t95 94.5t84.5 89.5q13 14 28 30.5t32 30.5t35 23.5t37 9.5
q23 0 33.5 -16t10.5 -37q0 -18 -6 -49t-13 -66t-13 -68.5t-6 -57.5q0 -11 1 -23t2.5 -21.5t3.5 -15.5t4 -6q15 0 50.5 38.5t79.5 101.5q42 61 83 136.5t71 147.5q22 51 35 89t21 62.5t12 37t8 12.5q9 0 9 -40z" />
    <glyph glyph-name="X" unicode="X" horiz-adv-x="919" 
d="M740 189q58 -76 90.5 -130t37.5 -77q0 -9 -9 -9q-14 0 -66 34.5t-136 117.5q-2 2 -15 16t-32.5 36.5t-43.5 51.5t-48 60t-47 62.5t-39 59.5q-51 -43 -97 -92t-85 -98t-72 -94t-58 -80t-42 -55.5t-25 -20.5q-2 0 -3 5.5t-1 7.5q0 6 4.5 30.5t17.5 63.5t35 89t58 106
t86.5 115t119.5 116q-14 21 -24.5 38.5t-19.5 34.5t-17 34.5t-17 37.5q8 34 28 48.5t64 10.5l73 -136q59 40 107.5 68.5t90.5 50.5t79.5 39t75.5 34q17 -1 29 -10.5t18 -24t4.5 -31t-10.5 -31.5q-7 -4 -41.5 -20t-83.5 -40.5t-105.5 -57.5t-107.5 -70q16 -27 38.5 -58.5
t47.5 -63.5t50 -62t45 -53t32.5 -37.5t13.5 -15.5z" />
    <glyph glyph-name="Y" unicode="Y" horiz-adv-x="658" 
d="M569 763q32 -2 50 -23t21 -57q-15 -14 -38.5 -37.5t-50.5 -53.5t-54.5 -64.5t-51.5 -68.5q-60 -93 -94 -166t-52 -130t-25.5 -99.5t-14.5 -75.5q-9 -37 -16 -54t-13 -20t-11 4.5t-9 19.5q-2 7 -4.5 33.5t-2 65.5t4.5 87.5t14 98.5q-7 46 -16 89q-8 37 -18.5 76t-21.5 65
q-23 55 -48 84t-38 40q1 12 6.5 25t15 24.5t22.5 19.5t30 11q14 -9 36.5 -38.5t45 -67t39.5 -77.5t20 -70q15 38 49 90t74 104t81 96.5t70 68.5z" />
    <glyph glyph-name="Z" unicode="Z" horiz-adv-x="784" 
d="M592 48q77 -21 109.5 -39.5t32.5 -25.5q0 -2 -4.5 -4.5t-13.5 -0.5q-18 2 -44.5 4.5t-64.5 5t-89 4t-118 1.5q-39 0 -70.5 -2t-63.5 -5.5t-68 -8t-83 -9.5q-25 -2 -44.5 13.5t-19.5 47.5q0 31 20 77.5t55.5 102t84.5 115t106 117t120.5 108.5t128.5 88q-42 6 -91 9t-86 3
q-22 0 -40 -1t-31 -2q-15 -1 -27 -2q-6 2 -15 6.5t-17 11t-14 15.5t-6 20t10 27t31 30q7 2 18 3t23.5 1.5t24.5 0.5h21h40.5t64 -3t74 -9.5t70.5 -19t52.5 -32t20.5 -48.5q0 -25 -29 -55.5t-75 -68t-102.5 -82.5t-113 -99t-106 -117.5t-80.5 -138.5q24 0 31.5 0.5t11 1
t9.5 1t28 0.5q27 0 66.5 -2t84 -7t91 -13t87.5 -19z" />
    <glyph glyph-name="bracketleft" unicode="[" horiz-adv-x="545" 
d="M572 857q13 -8 19 -22t4 -29.5t-13.5 -30t-33.5 -23.5q-8 2 -28.5 4t-54.5 2q-28 0 -57.5 -2.5t-52.5 -9.5q-13 -47 -32.5 -117t-42 -149t-45.5 -159t-41.5 -147t-30.5 -114t-13 -58q-2 -19 1 -32t18 -24q12 -9 32.5 -16t44 -11.5t47.5 -7t44 -2.5q11 0 32.5 0.5t42.5 0
t37 -2.5t16 -7q0 -3 -18 -12t-48 -19.5t-69.5 -18.5t-83.5 -8q-32 0 -67.5 6.5t-65.5 23.5t-49.5 47.5t-19.5 77.5q0 16 10.5 64t28 116t40 149.5t47 165t48.5 162.5t44 141q6 20 14.5 30.5t17.5 16t19 7.5l20 4q35 8 69 11t63 3q37 0 65 -3t42 -7z" />
    <glyph glyph-name="backslash" unicode="\" horiz-adv-x="617" 
d="M485 -63q-33 46 -58 84.5t-46 74t-40 70.5t-40 75.5t-45 88.5t-56 109q-31 63 -58.5 124.5t-49.5 111.5q-26 58 -47 111q0 11 7 24t20 21t31.5 9t40.5 -11q0 -2 13 -33t34.5 -80t49.5 -110t58 -124q21 -42 42.5 -83t41.5 -78t36.5 -69t28.5 -55q34 -56 56 -120t49 -128
q14 -43 17 -64.5t-1 -27t-13.5 1t-21.5 19.5t-25 29.5t-24 29.5z" />
    <glyph glyph-name="bracketright" unicode="]" horiz-adv-x="508" 
d="M225 860q38 0 86 -4.5t96 -21.5q13 -5 23.5 -15t18 -22t11 -23.5t3.5 -19.5q0 -69 -10 -129.5t-21 -131.5q-13 -67 -29 -133t-31.5 -126t-30.5 -111t-27 -88q-11 -38 -21 -64t-22.5 -45.5t-28.5 -33t-40 -25.5q-49 -26 -102.5 -24t-111.5 15q-65 14 -93.5 26.5
t-28.5 19.5q0 6 16 8.5t40.5 3.5t53.5 0.5t54 -0.5q14 0 34 2.5t40 7t36.5 11.5t24.5 17q2 0 11.5 23t23.5 63t31.5 94.5t35 118t33 132.5t26.5 139q6 27 11.5 55t10 56t7 53.5t2.5 46.5q-14 5 -31 9t-31 4q-35 2 -65 3t-53 2q-26 1 -49 1q-26 12 -34 27t-5 30t13 27.5
t20 20.5q18 0 40 0.5t63 0.5z" />
    <glyph glyph-name="asciicircum" unicode="^" horiz-adv-x="529" 
d="M294 655q42 0 77 -24.5t60 -58t38.5 -69t13.5 -56.5q0 -11 -6.5 -13.5t-17 1.5t-25 13t-29.5 20q-17 12 -33.5 25.5t-31 25t-26 18.5t-16.5 7q-11 0 -23.5 -6.5t-24.5 -14.5q-23 -16 -48 -34.5t-47 -34t-37 -26t-17 -10.5q-8 0 -17.5 6.5t-17.5 18.5t-14 28.5t-7 36.5
q5 4 20.5 16t37.5 28.5t48.5 34.5t52.5 33t49.5 25t40.5 10z" />
    <glyph glyph-name="underscore" unicode="_" horiz-adv-x="714" 
d="M596 -142q27 -11 49 -23.5t22 -23.5q0 -10 -15.5 -16.5t-41.5 -6.5q-29 1 -78.5 3.5t-105.5 5t-112 4.5t-98 2q-29 0 -54.5 -1.5t-45 -3t-31.5 -2.5t-14 -1q-7 4 -13.5 17.5t-9.5 29.5t-1.5 32t11.5 26q20 2 43 5q20 2 46 4t56 2q66 0 118 -2t97.5 -7.5t88 -16
t89.5 -27.5z" />
    <glyph glyph-name="grave" unicode="`" horiz-adv-x="640" 
d="M363 526q4 -9 11 -25.5t14 -36t12.5 -37.5t5.5 -30q0 -11 -6.5 -18.5t-14.5 -7.5q-7 0 -16.5 9t-21 23t-24 30t-24.5 31q-14 19 -22.5 31.5t-8.5 23.5q0 12 6.5 19.5t15.5 12.5t18.5 7t15.5 2q10 0 20.5 -8.5t18.5 -25.5z" />
    <glyph glyph-name="a" unicode="a" horiz-adv-x="769" 
d="M684 78q15 -19 27.5 -30t21.5 -17t14.5 -9.5t5.5 -7.5q0 -5 -6 -8.5t-15 -3.5q-11 0 -31.5 5t-45 19t-49.5 40t-46 68q-27 -22 -74 -47t-100.5 -46t-106.5 -35t-91 -14q-21 0 -42.5 4t-39.5 14.5t-29.5 29.5t-11.5 49q0 35 34 75.5t86 75t113 57t115 22.5q17 0 30.5 -0.5
t24.5 -4.5q19 -12 24 -27.5t1 -31t-15.5 -29t-26.5 -21.5h-12q-5 0 -12.5 0.5t-16.5 0.5q-31 0 -64 -10t-63 -25.5t-55 -33.5t-40 -34q41 0 80.5 10t76.5 25t70.5 33t62 33t52 25t39.5 10q25 0 38.5 -15t23.5 -38.5t21 -52t32 -55.5z" />
    <glyph glyph-name="b" unicode="b" horiz-adv-x="713" 
d="M443 311q24 0 63 -6.5t76 -21.5t64 -38.5t27 -57.5q0 -52 -31 -88.5t-78.5 -59.5t-103 -33.5t-104.5 -10.5q-54 0 -86 3.5t-48.5 8t-21 9.5t-4.5 8q0 7 22.5 14.5t53.5 15t63.5 14.5t51.5 13q17 5 46.5 17t58 25.5t49 26t20.5 18.5q0 9 -17 16t-39.5 11.5t-45 7
t-33.5 2.5q-56 0 -100.5 -9t-86.5 -28q1 0 -5 -17t-16 -42t-22 -54t-23 -54t-20 -41.5t-12 -16.5q-8 0 -12 12t-6 33t-2 49.5v62.5l-8 -6q-35 -1 -53.5 18t-19.5 62q15 16 33 30q15 12 34 24.5t39 20.5q14 55 38.5 123.5t55 139t67 137.5t74.5 121q12 3 27 0.5t28.5 -10.5
t22.5 -22.5t9 -36.5q-56 -83 -109 -184t-83 -225q37 10 81 14.5t86 4.5z" />
    <glyph glyph-name="c" unicode="c" horiz-adv-x="738" 
d="M658 99l-22 -11t-46.5 -20.5t-65 -24.5t-78 -24t-85.5 -18t-87 -7q-38 0 -80.5 2t-78 13t-58.5 35t-23 68q0 38 25 71t64.5 60t87.5 47.5t93 34.5t82 21.5t55 7.5q14 -2 23.5 -16t12 -31t-2 -34.5t-18.5 -27.5q-71 -8 -128.5 -25.5t-97.5 -37.5t-61.5 -38t-21.5 -26
q0 -3 3.5 -6.5t15.5 -6.5t35.5 -4.5t63.5 -1.5q16 0 48 3.5t71.5 8t82 10.5t81 10.5t68.5 8t43 3.5q33 0 33 -11q0 -6 -6 -13.5t-28 -19.5z" />
    <glyph glyph-name="d" unicode="d" horiz-adv-x="694" 
d="M815 711q-15 -17 -43.5 -61.5t-61 -104.5t-64.5 -128.5t-54 -133.5l26 -12q8 -13 6.5 -27.5t-9.5 -27.5t-20.5 -22.5t-26.5 -12.5l-10 3q-3 -7 -10.5 -27.5t-18.5 -46.5t-23 -54.5t-23 -52t-20.5 -39t-14.5 -15.5q-7 0 -11 15.5t-6 39.5q0 24 1.5 54t4.5 59t7 53t9 38
q-8 1 -14.5 1.5t-15.5 0.5q-24 0 -54.5 -5t-62.5 -12.5t-62 -18t-53.5 -21.5t-38 -22.5t-14.5 -20.5q0 -8 19 -13t48.5 -8t65 -4t67.5 -1q36 0 60 -4t24 -13q0 -8 -13.5 -16.5t-35 -16.5t-49 -15t-55.5 -12.5t-54 -8.5t-45 -3q-29 0 -54.5 7.5t-45.5 22t-31.5 35t-11.5 47.5
q0 39 22.5 70t58 54.5t80 40t89 27t84.5 15.5t67 5q16 0 30.5 -1.5t28.5 -3.5q16 49 38.5 100.5t47.5 100.5t51 94t48 80.5t39 59t24 30.5q29 2 53.5 -14t26.5 -54z" />
    <glyph glyph-name="e" unicode="e" horiz-adv-x="606" 
d="M277 -7q-21 0 -48 3.5t-54 13t-50 28t-36 48.5h-13q-12 7 -19.5 18.5t-8.5 25t5 26.5t23 23h13q18 47 56 82.5t86 58.5t103 34.5t108 10.5q16 0 38.5 -3t42.5 -11t34 -23.5t14 -41.5q0 -30 -21 -55t-54 -46t-75 -38t-83.5 -28.5t-79 -18.5t-62.5 -8q12 -12 37.5 -19.5
t55.5 -11t62 -5t58 -2.5t42.5 -2.5t16.5 -5.5q0 -5 -14 -14t-39 -17.5t-60 -15t-78 -6.5zM206 185q67 10 127.5 30.5t108.5 50.5q-40 0 -78.5 -7t-71 -18t-55 -26t-31.5 -30z" />
    <glyph glyph-name="f" unicode="f" horiz-adv-x="578" 
d="M81 171q-20 27 -23 52.5t5 51.5q26 6 48 9.5t45 5.5q9 21 24 51.5t34.5 66.5t43.5 76.5t52 82.5q18 27 44 60t57 62t65 48.5t67 19.5q26 0 46 -7t34 -17t24 -21.5t17 -20.5q0 -16 -7 -29.5t-19 -22.5t-28.5 -12.5t-35.5 0.5q-4 6 -8 11q-4 4 -9.5 7.5t-10.5 3.5
q-15 0 -37 -18t-47.5 -48t-52.5 -67.5t-52 -77t-45.5 -77t-32.5 -66.5q23 0 48 -3.5t47 -8t39 -9t25 -7.5q32 -13 53.5 -31t21.5 -26q0 -11 -18 -18.5t-38 -8.5q-47 1 -90 3q-37 1 -76.5 2t-64.5 1q-14 -21 -34.5 -57t-41.5 -71t-38.5 -61t-24.5 -26q-8 0 -10 12.5t-0.5 32
t6 43.5t10 46.5t10.5 41t9 27.5z" />
    <glyph glyph-name="g" unicode="g" horiz-adv-x="673" 
d="M611 18q-15 -83 -55 -155t-97 -130.5t-126 -102.5t-143 -71q-47 -17 -77 -23t-48 -6.5t-25 3t-7 6.5q0 2 7 6t18.5 9.5t26 12.5t29.5 15q68 36 133 87t117.5 111.5t88.5 127.5t47 135q-68 -14 -137 -30.5t-142 -16.5q-36 0 -72 6t-65 20.5t-47 37.5t-18 57q0 41 26.5 78
t69 65t95.5 44.5t107 16.5q55 0 98 -10.5t73.5 -24t48 -26.5t22.5 -17q7 -19 7 -35.5t-9 -28.5t-28 -17.5t-49 -0.5q-36 30 -74 39.5t-86 9.5q-35 0 -68.5 -10t-59.5 -23t-42 -27t-16 -21q0 -6 7.5 -10t18.5 -7t22.5 -5t19.5 -3q56 -5 106.5 6.5t110.5 25.5q19 5 35 8.5
t27 3.5q39 0 66 -10.5t43 -28t21 -41t0 -50.5z" />
    <glyph glyph-name="h" unicode="h" horiz-adv-x="609" 
d="M436 204q-25 0 -52 -18t-55 -45t-57 -58t-57 -58t-55 -45t-52 -18q-28 0 -47.5 26t-19.5 65q0 65 15.5 136.5t40 142.5t55.5 138t62 123t59 97t48 61q15 4 30.5 5.5t28 -5t20.5 -23t8 -46.5q-8 -7 -28 -37t-47 -75t-56.5 -101t-55 -115.5t-44 -119t-23.5 -110.5
q64 62 108 96.5t74.5 51t51 20t38.5 3.5q38 0 65 -17t44.5 -43.5t25.5 -59t8 -63.5q-8 -71 -21.5 -98t-19.5 -27q-10 0 -11.5 33.5t-9.5 90.5l-4 14.5t-12.5 32t-22 32t-32.5 14.5z" />
    <glyph glyph-name="i" unicode="i" horiz-adv-x="269" 
d="M156 67q-20 -26 -36.5 -47t-30.5 -21q-10 0 -17.5 9.5t-12 23t-7 29.5t-2.5 30q3 17 12 47.5t21 63.5t25 62.5t24 44.5q26 -3 49.5 -18.5t37.5 -37.5q-21 -47 -36 -89.5t-27 -96.5zM244 475q6 0 15 -1t17.5 -6t14.5 -17t6 -33q0 -17 -10 -29.5t-23.5 -20.5t-28 -12.5
t-23.5 -4.5q-18 0 -27.5 6.5t-14 15t-5 17t-0.5 13.5q0 13 7.5 26t18.5 23.5t25 16.5t28 6z" />
    <glyph glyph-name="j" unicode="j" horiz-adv-x="477" 
d="M-177 -424q133 57 222.5 134.5t143.5 160t76.5 161t22.5 135.5q0 10 -1.5 23t-4.5 18q-17 -7 -32.5 -16.5t-27.5 -17.5q-14 -11 -27 -21q-12 0 -25 2t-24 9.5t-18 22.5t-7 42q7 13 29.5 29t49.5 30t53.5 23.5t41.5 9.5q36 0 56 -16.5t29.5 -40.5t11.5 -49.5t2 -43.5
q0 -111 -38.5 -214t-106 -186.5t-158 -141t-193.5 -78.5q-27 -5 -46.5 -7.5t-31.5 -2.5q-25 0 -25 9q0 5 7 12.5t21 13.5z" />
    <glyph glyph-name="k" unicode="k" horiz-adv-x="694" 
d="M586 -6q-5 2 -24.5 8.5t-62 13.5t-111 12.5t-170.5 5.5q-20 0 -36 -3q-6 -15 -14.5 -50.5t-18.5 -80t-20 -93t-19 -90.5q-11 -45 -19.5 -75t-16.5 -30q-12 0 -17.5 37.5t-5.5 94.5q0 37 2 78.5t6 84.5t10 84t13 77q10 47 27.5 106.5t50.5 140t85 186t130 243.5
q8 4 16.5 5.5t16.5 1.5q22 0 38 -14t23 -46q-51 -93 -96 -180q-19 -37 -38.5 -76.5t-37 -77.5t-31 -72t-21.5 -61q23 11 50 21t53.5 18.5t49 15t35.5 9.5q17 -8 26.5 -25.5t9.5 -38.5q0 -20 -10 -39q-15 -4 -33.5 -9.5t-38 -11.5t-37.5 -13t-31 -14q13 0 29 -1t36 -3
q35 -5 75.5 -13.5t78.5 -22.5q29 -11 52.5 -25t39.5 -32q24 -27 24 -60q0 -18 -10 -18q-3 0 -9.5 3.5t-14.5 8.5t-16.5 10.5t-17.5 9.5z" />
    <glyph glyph-name="l" unicode="l" horiz-adv-x="512" 
d="M523 752q39 0 60 -24t21 -59q0 -38 -21 -88t-55.5 -104.5t-78 -110t-88 -104t-86 -87.5t-72.5 -60q-1 -4 -1.5 -8t-0.5 -10q0 -28 9 -45t20.5 -27.5t20.5 -17.5t9 -16q0 -6 -5 -10.5t-14 -4.5q-4 0 -16.5 1t-28 9.5t-32.5 27.5t-31 55q-17 -11 -35 -21t-37 -18
q-51 0 -62.5 26t16.5 64q17 9 36 21q17 11 39.5 25t48.5 33q11 62 35 127.5t55.5 127t68.5 116t76 95t77 64t72 23.5zM492 633q-46 -42 -84 -89t-69 -93t-54.5 -89.5t-40.5 -77.5q36 33 73.5 73t71.5 85t61 93.5t42 97.5z" />
    <glyph glyph-name="m" unicode="m" horiz-adv-x="865" 
d="M330 307q48 0 71.5 -35.5t19.5 -87.5q24 27 50.5 53.5t56 47.5t62.5 34t70 13q49 0 81 -20t50.5 -48.5t26 -60t7.5 -54.5q0 -60 -17 -120t-40 -105q-33 -67 -55 -91t-29 -24q-6 0 -5.5 10t3.5 23.5t7.5 28t7.5 24.5q11 35 23.5 88.5t12.5 131.5q0 53 -22.5 81t-47.5 28
q-29 0 -56 -17t-53.5 -42t-51.5 -55t-50 -55t-49.5 -42t-48.5 -17q-31 0 -42.5 22t-13 52t3 60.5t7.5 47.5q-22 -14 -46 -38.5t-49.5 -48t-52.5 -41t-55 -17.5q-13 0 -25 7t-21 18t-14.5 24.5t-5.5 27.5q0 42 5.5 71t12 47t12.5 26l6 8q15 12 30.5 18.5t28.5 3t22.5 -18.5
t13.5 -45l-10 -30q17 14 38 34t43.5 38.5t45 31.5t42.5 13z" />
    <glyph glyph-name="n" unicode="n" horiz-adv-x="648" 
d="M93 305q15 7 31 8t30 -5.5t24.5 -19.5t13.5 -32q-8 -12 -15 -27q-7 -13 -14 -31.5t-14 -41.5q20 18 52.5 46.5t71 55t79.5 46t78 19.5t67.5 -10.5t52.5 -33t34 -58t12 -86.5q0 -45 -8 -77t-17.5 -52.5t-18 -30.5l-8.5 -10q-7 0 -15 31.5t-8 85.5q0 31 -9.5 56t-23.5 42.5
t-29 27t-26 9.5q-20 0 -47.5 -16t-58.5 -40.5t-63.5 -52.5t-63 -52.5t-56.5 -40.5t-43 -16t-30 8t-23 20t-15 27t-5 29q0 31 10.5 72.5t23.5 76.5t22.5 57t8.5 16z" />
    <glyph glyph-name="o" unicode="o" horiz-adv-x="640" 
d="M40 126q0 23 10.5 33t24.5 11q1 25 32 52.5t79 50t105.5 36.5t111.5 13q26 0 60 -7t64 -22.5t51 -42.5t21 -67q0 -48 -29 -83.5t-74.5 -58.5t-101.5 -34t-110 -11q-39 0 -82 6.5t-79 22t-59.5 40.5t-23.5 61zM179 195l-15 -6t-22 -9l-24 -10t-21 -8q5 -2 10 -5.5t10 -7.5
q10 -19 50.5 -32.5t101.5 -13.5q32 0 71 7t73 17.5t57 24t23 25.5t-12 19.5t-30.5 12t-41 6t-43.5 1.5q-45 0 -93.5 -4.5t-93.5 -16.5z" />
    <glyph glyph-name="p" unicode="p" horiz-adv-x="713" 
d="M367 321q14 0 40.5 -2.5t58 -9.5t64 -19t59.5 -30.5t44 -45t17 -62.5q0 -33 -18.5 -57.5t-48 -41t-66.5 -27t-73 -16.5t-67.5 -8t-50.5 -2q-32 0 -62 1t-52 6q-26 -58 -46 -120.5t-35.5 -114t-28 -85t-23.5 -33.5t-17 17.5t-8 46.5t0.5 67.5t9.5 81t17.5 86t25.5 82.5
q-49 22 -69 34.5t-20 20.5q0 5 11 7.5t28 2.5q10 0 32 -1t48 -2q18 43 40.5 81t45.5 66q-6 16 -3.5 33t12.5 34q6 1 15 3t24.5 3.5t38.5 2.5t57 1zM252 99q18 0 47 1.5t61 4.5t64.5 7t58 10t42 13.5t16.5 17.5q0 12 -22 22.5t-54.5 17.5t-69 10.5t-65.5 1.5
q-20 -24 -40 -47.5t-38 -58.5z" />
    <glyph glyph-name="q" unicode="q" horiz-adv-x="703" 
d="M578 323q8 1 21.5 -1.5t27 -11t24.5 -22.5t14 -36l-35 -49q-15 -22 -33 -47.5t-34 -50.5q14 1 22.5 0.5t15.5 -0.5q17 0 17 -7q0 -5 -11.5 -15t-28.5 -21.5t-36 -22.5t-34 -17q-33 -60 -61 -124t-52 -117t-43.5 -87.5t-33.5 -34.5q-8 0 -11 13.5t-3.5 31.5t1 36.5
t3.5 29.5q11 62 28.5 120.5t40.5 110.5q-39 -5 -66.5 -6.5t-47.5 -1.5q-32 0 -71 4.5t-72.5 18.5t-56.5 40.5t-23 70.5q0 46 35.5 83t88 62.5t114 39.5t112.5 14q54 0 101.5 -6.5t71.5 -14.5zM495 212q-13 2 -40 4.5t-51 2.5q-44 0 -89.5 -10t-82.5 -24t-60.5 -29.5
t-23.5 -27.5t35.5 -21.5t98.5 -9.5q31 0 72 0.5t73 2.5z" />
    <glyph glyph-name="r" unicode="r" horiz-adv-x="546" 
d="M195 -11q-23 0 -39.5 12.5t-26.5 33.5t-14.5 48t-3.5 57q2 53 14 99.5t40 76.5q35 5 57.5 -13.5t26.5 -52.5q-7 -13 -15 -29.5t-9 -42.5q31 51 70 90.5t80.5 66t84 40t81.5 13.5q20 0 27.5 -4.5t7.5 -9.5q0 -6 -15.5 -18t-41.5 -31.5t-60 -47.5t-70 -65t-72.5 -84
t-67.5 -105q-17 -34 -54 -34z" />
    <glyph glyph-name="s" unicode="s" horiz-adv-x="487" 
d="M104 267q0 37 24 59.5t57.5 33.5t68.5 14.5t57 3.5q45 0 77 -7.5t49 -11.5q7 -13 10 -27t0 -28t-12.5 -27t-28.5 -23q-21 7 -49.5 11t-54.5 4q-30 0 -51.5 -3t-21.5 -11q0 -7 22 -20t49 -32t49 -44.5t22 -57.5q0 -48 -40.5 -77.5t-105.5 -29.5q-26 0 -58 4t-60 12.5
t-47 20t-19 26.5q0 7 15.5 10.5t38.5 5.5t49.5 3t49.5 4t38.5 9t15.5 17q0 9 -22.5 21.5t-49.5 31t-49.5 45t-22.5 63.5z" />
    <glyph glyph-name="t" unicode="t" horiz-adv-x="573" 
d="M67 165q-9 4 -16 15.5t-10.5 26t-3 30.5t6.5 31q22 6 48 11q22 5 50.5 9t60.5 6q20 57 52 124t66.5 130.5t67.5 118t56 87.5q13 1 26.5 -1t25.5 -9t21.5 -19.5t13.5 -32.5q-10 -14 -27 -40.5t-37.5 -61.5t-43.5 -75t-43.5 -79.5t-38 -76t-26.5 -64.5q50 0 90 -9t68 -22
t43 -26t15 -20q0 -11 -28.5 -18t-68.5 -10.5t-84 -4.5t-74 0q-9 -24 -15 -47q-6 -20 -10.5 -42t-4.5 -39q0 -18 3.5 -29.5t7 -19t7 -11t3.5 -6.5q0 -8 -10 -8q-6 0 -20 4t-27.5 17t-24 38t-10.5 67q0 18 0.5 35.5t2.5 38.5q-47 -5 -79 -11q-18 -4 -33 -7z" />
    <glyph glyph-name="u" unicode="u" horiz-adv-x="727" 
d="M261 105q49 0 96 19.5t91 48.5t83.5 62.5t71.5 62.5t56.5 48.5t39.5 19.5q5 0 8 -2t1 -7q-19 -67 -66 -132t-108.5 -116.5t-131 -83t-132.5 -31.5q-53 0 -92 21t-65.5 57t-39 84.5t-12.5 104.5q24 24 54.5 21.5t57.5 -21.5q0 -16 1.5 -42t10 -51.5t26 -44t50.5 -18.5z
" />
    <glyph glyph-name="v" unicode="v" horiz-adv-x="512" 
d="M143 -6q-37 0 -55 28t-24.5 71.5t-4.5 97.5t7 107q26 16 59 13t53 -25q-12 -49 -12 -96t5 -78q20 15 47 36t57 43.5t60.5 44.5t58 39.5t50 28t36.5 10.5q11 0 11 -10q0 -11 -17.5 -38.5t-46.5 -62t-65.5 -71.5t-75.5 -67.5t-76 -50.5t-67 -20z" />
    <glyph glyph-name="w" unicode="w" horiz-adv-x="874" 
d="M153 -4q-16 0 -31.5 11t-28 29t-20 42t-7.5 51q0 58 13 103t30 70q33 20 57.5 4.5t32.5 -57.5q-14 -30 -21 -58.5t-4 -61.5q26 26 50.5 60t50 64.5t54.5 51.5t64 21q28 0 46 -11t28.5 -26.5t14.5 -31.5t4 -25q0 -15 -6 -36.5t-10.5 -41.5t-5 -34t10.5 -14q24 0 60.5 19.5
t84.5 48.5q16 10 35 23.5t39 28.5t39 31.5t36 32.5q42 40 59.5 59t23.5 19t6 -16q0 -17 -13.5 -51.5t-44.5 -72.5q-39 -48 -84.5 -90.5t-91.5 -74.5t-88 -51t-73 -19q-33 0 -56.5 20.5t-35.5 51.5t-12 68t13 70q-21 -21 -39 -45t-37 -49.5t-39.5 -49.5t-45.5 -45
q-15 -12 -27 -15t-31 -3z" />
    <glyph glyph-name="x" unicode="x" horiz-adv-x="778" 
d="M555 -12q-15 0 -40.5 15t-53.5 35t-55 40.5t-46 32.5q-47 -20 -99 -40t-97 -37t-78 -27.5t-42 -10.5q-13 0 -13 9q0 13 21 36t53.5 48.5t70.5 50t72 40.5q-20 9 -37 14.5t-37 9.5q-8 31 -2.5 58.5t27.5 47.5q2 0 19.5 -5t43 -14.5t55.5 -23.5t58 -33q36 16 82 28.5
t92 21.5t88 14.5t70 5.5q21 -25 21 -49.5t-15 -56.5q-53 -2 -116 -13t-113 -30q21 -20 40 -49t30 -55t12.5 -44.5t-11.5 -18.5z" />
    <glyph glyph-name="y" unicode="y" horiz-adv-x="691" 
d="M516 326q33 0 52 -16t28.5 -39t12 -47.5t2.5 -41.5q0 -102 -34.5 -204.5t-100.5 -189.5t-162 -150.5t-219 -86.5q-11 -2 -27 -4.5t-31 -4t-25.5 -1t-10.5 4.5q0 7 13.5 16t35.5 20.5t50 25t57 30.5q72 41 135.5 102.5t110.5 134.5t74 154t27 161q-28 -31 -65 -66
t-78 -64.5t-84.5 -49t-84.5 -19.5q-15 0 -35 5t-38.5 19t-31.5 39.5t-13 66.5q0 14 3 35.5t7.5 44.5t10.5 45t13 37q15 15 32 21t31.5 1.5t24.5 -19t11 -40.5q-25 -63 -25 -131q0 -14 9 -14q33 0 64.5 16.5t60.5 41.5t56.5 54.5t52.5 54.5t47.5 41.5t43.5 16.5z" />
    <glyph glyph-name="z" unicode="z" horiz-adv-x="677" 
d="M536 67q57 -16 78.5 -33.5t21.5 -25.5q0 -10 -12 -5q-26 11 -68 14t-91.5 2t-103.5 -5.5t-104 -9t-92 -8.5t-69 -4q-23 0 -39.5 17.5t-16.5 43.5q0 48 80 90.5t242 76.5q-6 2 -24 3.5t-40.5 2t-46 -0.5t-38.5 -3q-16 7 -25 18.5t-10 24.5t6.5 26t23.5 23q37 6 86 6
q47 0 96 -8t88.5 -22.5t65 -35t25.5 -46.5q0 -12 -15.5 -23t-40.5 -20.5t-57.5 -18t-66.5 -17t-67 -16t-59 -15.5q30 0 64.5 -1.5t70 -5t71 -9.5t67.5 -15z" />
    <glyph glyph-name="braceleft" unicode="{" horiz-adv-x="515" 
d="M534 927q22 -15 28 -29t1 -27t-18.5 -25t-31.5 -23q-14 0 -44.5 -3.5t-61.5 -12.5t-54.5 -24t-23.5 -38q0 -11 8 -25t18 -32t18 -39.5t8 -47.5q0 -31 -15 -56.5t-36.5 -45t-45 -32t-41.5 -17.5q-2 0 -4 -1q-5 -2 -2 -5q20 -31 29.5 -52t9.5 -50q0 -14 -5 -28.5
t-11.5 -27.5t-13 -23.5t-9.5 -17.5q-22 -45 -39.5 -85t-17.5 -78q0 -29 13 -56t50 -47q52 -28 77 -41t25 -18q0 -9 -16.5 -11t-38 0.5t-43.5 8t-34 10.5q-3 1 -23 10t-43.5 30t-42.5 56.5t-19 90.5q0 43 12.5 81.5t27 69t27 51.5t12.5 30q0 12 -11.5 23.5t-25.5 23.5
t-25.5 25.5t-11.5 30.5q0 26 13.5 43.5t33.5 29t43.5 20t43.5 16.5t33.5 18.5t13.5 26.5q0 10 -8 23.5t-17.5 31t-17.5 38.5t-8 46q0 46 19.5 78t49.5 53.5t67 34t72 17.5t63.5 4.5t42.5 -3.5z" />
    <glyph glyph-name="bar" unicode="|" horiz-adv-x="385" 
d="M180 921q30 20 56 17t49 -25q0 -2 -3 -40.5t-7 -99.5t-10 -137t-11 -152.5t-10 -146t-8 -117.5q-6 -33 -13 -73t-15 -80t-16.5 -77.5t-17.5 -66t-17 -46t-15 -17.5q-10 0 -15.5 24.5t-8 62.5t-2 82.5t2 85.5t3 71.5t2.5 39.5q3 44 8.5 111.5t12 143.5t12.5 153t11.5 140
t8.5 103.5t3 43.5z" />
    <glyph glyph-name="braceright" unicode="}" horiz-adv-x="472" 
d="M328 579q2 -16 18 -29t34 -25t32.5 -23t14.5 -22q0 -20 -19.5 -37t-43.5 -32t-43.5 -28.5t-19.5 -26.5q0 -18 6.5 -34t14 -35.5t14 -44.5t6.5 -60q0 -62 -26.5 -108t-62.5 -84q-24 -26 -54 -43.5t-61.5 -29t-63.5 -16.5t-62 -5q-32 0 -44.5 6t-12.5 11t6.5 9t16.5 7.5
t22.5 6t23.5 4.5q38 12 76 37t68 58t49 71.5t19 77.5q0 21 -7 42.5t-15.5 43t-15.5 42.5t-7 41q0 48 24 78t51 42q-24 30 -36 63t-12 60q0 29 9.5 52t21 41t21 31.5t9.5 24.5q0 19 -11.5 33.5t-27.5 25t-33.5 16t-29.5 5.5q-21 11 -33 24t-13 27t10 28t38 26
q33 0 69.5 -12.5t67.5 -36t51 -57.5t20 -78q0 -28 -10.5 -50t-22 -41t-20.5 -37.5t-6 -38.5z" />
    <glyph glyph-name="asciitilde" unicode="~" horiz-adv-x="739" 
d="M682 358q-6 -15 -18 -34.5t-36.5 -37.5t-65 -32.5t-103.5 -19.5q-38 0 -78 12.5t-75.5 28t-63.5 28t-42 12.5q-17 0 -29 -5t-20 -12.5t-13 -15t-7 -11.5q-40 -8 -64 9.5t-21 62.5q14 21 37 39q20 15 49.5 27.5t72.5 12.5q35 0 67.5 -12t63.5 -27t61 -27t60 -12q39 0 68 3
t49.5 8.5t34.5 12.5t24 15q19 15 30.5 22.5t19.5 7.5q10 0 10 -13q0 -17 -11 -42z" />
    <glyph glyph-name="exclamdown" unicode="&#xa1;" horiz-adv-x="390" 
d="M306 322q2 0 8.5 -2t13 -8.5t12 -17.5t5.5 -29q0 -17 -8.5 -27.5t-21.5 -16.5t-27 -8.5t-26 -2.5q-23 9 -27 21.5t-4 21.5q0 12 7.5 24t18.5 22t24 16.5t25 6.5zM271 183q9 0 18.5 -18t9.5 -60q0 -53 -17.5 -117.5t-43 -126t-54.5 -114.5t-52 -83q-11 -1 -23 1t-24 8.5
t-22.5 18t-17.5 28.5q19 26 41 72.5t44 100t43.5 107.5t39.5 96q14 33 28.5 56.5t29.5 30.5z" />
    <glyph glyph-name="cent" unicode="&#xa2;" horiz-adv-x="613" 
d="M570 493q-3 -16 -6.5 -28.5t-11 -21.5t-21 -15t-35.5 -9l-4 3t-12.5 6t-22.5 4.5t-35 -1.5q-19 -57 -38.5 -118t-36.5 -113q-19 -61 -38 -119q9 0 24.5 0.5t26.5 2.5q23 4 36.5 8t21 6.5t11 2.5t5.5 -5t-1.5 -14t-11.5 -19.5t-21 -20.5t-29 -16q-17 -6 -30 -11t-24.5 -8
t-23 -5.5t-26.5 -4.5q-21 -43 -38.5 -69t-28 -29t-12 20t9.5 78q-30 4 -50.5 13t-23.5 11l-11 9t-23.5 26t-23 43t-10.5 59q0 64 26 122t68 106t95 85t108 59q7 19 13 33.5t10 25.5q4 12 8 22q6 4 16 6.5t22 2t24.5 -7t24.5 -20.5l-12 -49q12 3 29.5 -2t34.5 -14t30 -18.5
t17 -15.5zM310 388q-27 -20 -53 -46t-46.5 -55.5t-33.5 -60t-13 -59.5q0 -28 13.5 -42.5t40.5 -28.5z" />
    <glyph glyph-name="sterling" unicode="&#xa3;" 
d="M636 722q9 -7 14 -19t5 -21q0 -18 -17 -31t-56 -15q-10 6 -22 11q-11 4 -26 7.5t-33 3.5q-84 0 -130 -71.5t-63 -219.5l-3.5 -24.5t-3.5 -22.5q29 -2 56 -3.5t48 -3.5q24 -2 45 -4q14 -3 39.5 -11.5t51 -19t44.5 -21.5t19 -19q0 -9 -16 -16t-41 -11.5t-55 -6.5t-58 1
q-26 3 -54 7q-25 3 -56 6t-65 5q-30 -57 -77 -104h45q32 0 60 -12t51.5 -29t42.5 -35.5t34 -31.5q21 -14 42.5 -18t38.5 -5t27.5 -0.5t10.5 -4.5q0 -3 -7 -8.5t-20 -11t-30 -9.5t-37 -4q-14 0 -36 7t-49 24q-11 8 -25 17.5t-30 17.5t-32 13.5t-31 5.5q-35 0 -64.5 -13
t-56.5 -28.5t-52.5 -28.5t-52.5 -13q-13 0 -21 5.5t-12.5 13t-6 15.5t-1.5 14q0 21 18.5 45.5t44.5 52.5t55.5 59t51.5 66q-23 0 -43 -1t-34 -2q-18 -2 -31 -3q-7 10 -16 24.5t-9 35.5q0 3 1 9.5t2.5 12.5t4 11t5.5 5q25 2 53 5q24 2 55 4t65 2q7 25 12 58t11.5 69.5
t16.5 73t26 69.5q41 80 104.5 121t135.5 41q32 0 57 -5.5t43 -12.5q21 -8 37 -18z" />
    <glyph glyph-name="currency" unicode="&#xa4;" horiz-adv-x="689" 
d="M599 541q23 0 34 -15.5t11 -29.5q0 -9 -7.5 -21.5t-21 -26t-31.5 -27t-39 -24.5q5 -14 5.5 -32t0.5 -37q-5 -42 -25.5 -74.5t-49.5 -55.5q23 -20 42.5 -44.5t19.5 -48.5q0 -35 -11.5 -45.5t-37.5 -10.5q-7 0 -19.5 7.5t-27 20t-28.5 29.5t-24 36q-66 -29 -126 -29
q-35 0 -73 11q-33 -33 -56 -48t-54 -15q-20 0 -27.5 14.5t-7.5 27.5q0 8 5.5 18.5t13.5 22.5t18.5 24.5t20.5 23.5q-13 13 -16 33t-3 28q0 21 11 30.5t26 9.5h6.5t6.5 -2q-6 6 -6 22q0 14 6 33t19 38q2 6 6 13q4 6 9.5 13.5t15.5 17.5q-28 27 -46 50t-18 56q0 36 14.5 45.5
t30.5 9.5q9 -2 17.5 -7.5t16 -12.5t13 -13.5t9.5 -10.5q11 -11 22.5 -25.5t21.5 -23.5q35 15 59 20t52 5q14 0 42.5 -7.5t56.5 -30.5q20 13 35.5 24t29 18.5t27 11.5t31.5 4zM265 221q29 0 60.5 11.5t57.5 30t43 41t17 44.5q0 17 -9 29.5t-23 20.5t-30.5 12t-30.5 4
q-3 0 -19.5 -2.5t-38.5 -9.5t-46 -20.5t-42 -34.5q-29 -23 -41 -37t-21 -19q14 -5 24 -10t19 -15q11 -23 34 -35t46 -10z" />
    <glyph glyph-name="yen" unicode="&#xa5;" 
d="M130 752q16 0 40 -6v-2q0 -8 8.5 -40t22.5 -80t32 -106.5t36 -118.5q17 28 44.5 65.5t59 77t64.5 77.5t60.5 67.5t46.5 47.5t24 17q5 1 14 1q31 0 43.5 -17.5t12.5 -46.5q0 -1 -12.5 -12.5t-34 -33.5t-50 -53.5t-60.5 -72.5q56 -4 83 -18.5t27 -37.5q0 -13 -14 -25
t-45 -20h-128q-20 -25 -40 -54.5t-35 -57.5q11 0 37 -4t52.5 -11t46.5 -16t20 -19q0 -9 -11.5 -16.5t-28.5 -12.5q-37 -4 -70 -8q-28 -3 -56 -5.5t-43 -2.5q-15 -23 -35 -57t-41.5 -71l-43 -74t-40 -66.5t-33 -47.5t-21.5 -18q-8 0 -8 18q0 10 2 24t5.5 29t7.5 29.5t8 26.5
q7 23 17.5 52.5t22 59t22 55t19.5 40.5q-25 -2 -45.5 -4.5t-36.5 -5.5q-18 -4 -34 -7q-5 11 -16 28t-11 43q0 11 3 25q2 0 17.5 3.5t39.5 7t53.5 7t59.5 3.5q-12 33 -19.5 63t-10.5 44h-123q-28 8 -43 22t-15 30q0 14 13.5 27.5t44.5 21.5h94q-11 35 -21.5 72.5t-18.5 67.5
q-10 35 -18 68q5 11 19.5 19.5t39.5 8.5z" />
    <glyph glyph-name="brokenbar" unicode="&#xa6;" horiz-adv-x="357" 
d="M107 352q32 9 56.5 6t50.5 -19q-9 -54 -20 -117t-25 -142q-4 -23 -9.5 -45.5t-11.5 -43t-11.5 -37t-9.5 -26.5q-33 -77 -57.5 -67.5t-24.5 101.5q0 9 1 22.5t3 28t4.5 28.5t4.5 26q7 37 14.5 80.5t14 83.5t12 72.5t8.5 48.5zM207 923q31 6 57 0.5t48 -19.5q0 -2 -4.5 -27
t-11 -61t-14 -77.5t-13.5 -76.5q-6 -37 -14.5 -73.5t-16.5 -56.5q-40 -83 -62 -77t-25 90q0 18 3.5 50.5t8.5 60.5q5 35 12.5 79.5t14.5 85.5q8 48 17 96v6z" />
    <glyph glyph-name="section" unicode="&#xa7;" horiz-adv-x="799" 
d="M743 865q11 -17 10.5 -32t-9.5 -26.5t-25.5 -19.5t-37.5 -9q-12 7 -28 12q-14 5 -34.5 9t-48.5 4q-22 0 -49.5 -6.5t-51.5 -18.5t-40.5 -30t-16.5 -41q0 -13 17 -24t43 -24t55.5 -28.5t55.5 -36t43 -47.5t17 -63q0 -45 -8.5 -76t-18.5 -51q-11 -24 -26 -38
q-1 0 -10.5 -9.5t-27 -21.5t-41.5 -21.5t-53 -9.5q14 -19 25.5 -41.5t11.5 -51.5q0 -61 -21 -107.5t-57.5 -78t-85 -47.5t-102.5 -16q-27 0 -59 8t-59.5 19.5t-46.5 23.5t-19 21q0 4 13.5 4.5t32 -1.5t38.5 -4t32 -2q40 0 80.5 11.5t72 33t51.5 53t20 70.5q0 16 -12 34.5
t-57 41.5q-19 10 -46 21.5t-51.5 30t-42 46.5t-17.5 71q0 48 16.5 85t42.5 64t58 44.5t64 26.5q-18 18 -27 42t-9 50q0 30 9.5 53.5t24 42t31.5 33.5t33 27q21 14 43.5 22.5t45 13t42.5 6t37 1.5q35 0 65.5 -6t53.5 -13.5t37.5 -14.5t16.5 -9zM264 396q0 -10 5 -16.5
t9 -10.5q4 -3 16 -9.5t27.5 -12.5t32 -10.5t30.5 -4.5q48 0 77.5 15.5t45 38.5t21 50.5t5.5 50.5q-9 8 -18.5 15t-22.5 12t-30 7.5t-41 2.5q-26 0 -53.5 -9.5t-50.5 -27t-38 -41t-15 -50.5z" />
    <glyph glyph-name="dieresis" unicode="&#xa8;" horiz-adv-x="769" 
d="M461 403q11 22 36 38.5t49 16.5q2 -1 7 -3t10.5 -7t9.5 -14t5 -24l-5.5 -16.5t-10.5 -21t-17.5 -18.5t-26.5 -8q-18 0 -29.5 5.5t-17.5 13t-8.5 15t-2.5 12.5q0 8 1 11zM240 399q3 12 12.5 22t21.5 17t25.5 11t25.5 4q2 -1 7 -3t10.5 -7t9.5 -13.5t5 -23.5
q-2 -7 -5.5 -18t-11 -21t-20.5 -17t-33 -7q-15 0 -24.5 5.5t-15 13t-7.5 15t-2 11.5q0 5 2 11z" />
    <glyph glyph-name="copyright" unicode="&#xa9;" horiz-adv-x="938" 
d="M890 416q-8 -31 -23.5 -46.5t-32.5 -13.5q2 -8 -0.5 -29.5t-9.5 -47.5t-18.5 -52.5t-26.5 -44.5q-26 -36 -65.5 -71.5t-86.5 -63.5t-100 -45.5t-107 -17.5q-31 0 -71.5 5.5t-83.5 19.5t-84.5 36t-72.5 55t-48.5 76.5t-12.5 100.5q-2 46 11 95t36.5 96t56 88.5t70.5 72.5
q70 57 153.5 85.5t167.5 28.5q58 0 114 -14.5t102.5 -44t81 -74.5t50.5 -105q5 -42 2.5 -63t-2.5 -26zM785 424q1 4 1 10v12t-1 15q-5 42 -26.5 74.5t-54.5 54.5t-74.5 33.5t-86.5 10.5q-66 -1 -134.5 -25t-125.5 -73q-26 -23 -49.5 -52.5t-41.5 -63t-28.5 -69.5t-10.5 -70
q0 -58 24.5 -95t64.5 -58.5t91 -30t105 -8.5q39 0 79.5 9.5t79.5 27.5t74 43.5t64 56.5q16 18 29.5 39t24.5 40t19.5 33.5t16.5 19.5q-14 5 -24.5 21t-15.5 45zM636 226q-39 -20 -90 -36.5t-96 -25.5q-40 -8 -86 -5t-84 20.5t-61 51.5t-17 88q2 17 10.5 33.5t20.5 32
t26.5 30.5t29.5 28q51 46 109.5 72.5t109 39.5t86.5 15.5t42 2.5q12 -7 18.5 -18.5t4.5 -25.5q-3 -20 -29 -37h-15q-17 -1 -47.5 -6.5t-68.5 -19t-80 -35.5t-81 -56q-33 -29 -45 -50.5t-10 -36.5q2 -13 12 -21.5t23.5 -14.5t29 -9.5t28.5 -4.5q46 2 79.5 3.5t58 2.5
t41.5 2.5t31 4.5q53 9 73 7q17 -2 9 -11t-32 -21z" />
    <glyph glyph-name="ordfeminine" unicode="&#xaa;" horiz-adv-x="450" 
d="M368 455q3 -14 11.5 -25t14.5 -17q22 -18 34 -23q7 -4 13 -8.5t4 -14.5q-1 -8 -8 -12t-18 -4q-9 0 -21 1.5t-25.5 8t-27 18.5t-26.5 33q-1 1 -1.5 2.5t-2.5 0.5l-22 -11q-32 -17 -77 -34.5t-115 -21.5q-16 -1 -30.5 4t-25 14t-16.5 20t-6 23q0 26 23.5 51t57 44.5
t71.5 31t67 11.5q14 0 24 -4.5t16.5 -10.5t9.5 -13t3 -12q0 -13 -13.5 -20.5t-30.5 -7.5q-4 1 -11 1q-21 0 -44.5 -6.5t-43.5 -16t-33.5 -19.5t-14.5 -17q1 -1 5 -1q50 0 90.5 16.5t75.5 37.5q9 4 17 8q7 3 14.5 5.5t14.5 2.5q22 0 32.5 -10t14.5 -25z" />
    <glyph glyph-name="guillemotleft" unicode="&#xab;" horiz-adv-x="666" 
d="M42 146q0 19 12.5 38t32.5 37t45 34.5t50.5 30.5t48.5 24.5t40 17.5q17 6 27.5 9.5t17.5 5.5t11.5 2.5t9.5 0.5q15 0 21 -5.5t6 -13.5q0 -29 -28 -49t-70 -38q-25 -11 -49 -23t-43 -23t-31 -21.5t-12 -17.5q0 -6 14.5 -18.5t33 -25.5t37.5 -24.5t28 -15.5
q37 -18 56.5 -31.5t19.5 -24.5q0 -16 -32 -16q-11 0 -33.5 6.5t-50 17.5t-56.5 26t-52.5 31t-38.5 33t-15 33zM220 141q0 23 16.5 40.5t30.5 29.5q30 25 63.5 41.5t65 26t59 14t45.5 7.5l19 4q11 4 18.5 5t15.5 1q20 -5 27.5 -13t7.5 -22q0 -18 -16.5 -25.5t-36.5 -12.5
q-26 -3 -63 -13t-71 -22.5t-58 -25.5t-24 -22q0 -7 23 -21.5t54 -30t62 -29.5t47 -19q41 -14 67.5 -29.5t26.5 -24.5q0 -5 -12 -8t-39 -3q-34 0 -65.5 7t-60 17t-54 21t-47.5 19q-46 17 -73.5 41t-27.5 47z" />
    <glyph glyph-name="logicalnot" unicode="&#xac;" 
d="M534 256q19 0 34 -9.5t25 -24.5t14 -34t1 -38q-5 -28 -17 -56.5t-27 -46.5q-24 -29 -37.5 -36t-19.5 0.5t-5 25t6 35.5q1 12 4 24q2 11 4.5 23.5t4.5 24.5q1 1 0 3q-3 3 -6 3h-459q-6 7 -11.5 19.5t-7 27.5t2.5 31.5t16 33.5q12 1 46.5 1t80.5 -0.5t99 -2t102 -3t89 -2
t61 0.5z" />
    <glyph glyph-name="sfthyphen" unicode="&#xad;" 
d="M568 204q27 -11 49 -23.5t22 -23.5q0 -10 -15.5 -16.5t-41.5 -6.5q-29 1 -78.5 3.5t-105.5 5t-112 4.5t-98 2q-29 0 -54.5 -1.5t-45 -3t-31.5 -2.5t-14 -1q-7 4 -13.5 17.5t-9.5 29.5t-1.5 32t11.5 26q20 2 43 5q20 2 46 4t56 2q66 0 118 -2t97.5 -7.5t88 -16t89.5 -27.5
z" />
    <glyph glyph-name="registered" unicode="&#xae;" horiz-adv-x="688" 
d="M397 703q61 0 107 -18t77 -49t46.5 -73t15.5 -89q0 -5 -4 -11t-10.5 -12t-14.5 -10t-15 -4q0 -5 -1.5 -18.5t-6 -32t-12.5 -39.5t-22 -40q-27 -38 -64.5 -64.5t-76 -43t-72 -24t-52.5 -7.5q-31 -1 -73.5 8t-80.5 33t-65 65.5t-27 105.5q0 29 8 61.5t23.5 64.5t37.5 62
t50 55q51 41 111.5 60.5t120.5 19.5zM519 344q37 38 50 63t18 30q-8 5 -16.5 12.5t-14.5 30.5v10t-3.5 25t-13 32.5t-27.5 32.5t-46.5 25t-71.5 10q-51 0 -98.5 -20.5t-83.5 -54.5t-57.5 -78t-21.5 -91q0 -42 21 -66t48 -35.5t53.5 -14t37.5 -2.5q22 0 51.5 3.5t61 13.5
t61 27.5t52.5 46.5zM463 338q-25 0 -60 5.5t-70 17t-64 27.5t-42 37q-9 -17 -16 -30.5t-12 -23.5q-5 -11 -9 -21q-17 -13 -29.5 -10.5t-13.5 29.5q5 11 12 24q6 11 13.5 25t17.5 31q9 12 21 31.5t29.5 38t41 32t54.5 13.5q13 0 27 -4.5t26 -10.5q19 -10 19 -28t-13 -33
t-32.5 -26t-41 -19t-38.5 -12q4 -9 22.5 -17.5t43.5 -16.5t53 -15.5t51 -14t38.5 -12.5t15.5 -11q0 -3 -12 -4.5t-32 -1.5zM345 518q-19 0 -39.5 -12.5t-34.5 -31.5q11 4 26.5 10t28 12t19 11.5t0.5 10.5z" />
    <glyph glyph-name="macron" unicode="&#xaf;" horiz-adv-x="769" 
d="M395 462q55 -4 99 -12q19 -3 37 -7.5t32 -10.5t22.5 -13t8.5 -15q0 -9 -28 -17t-68 -8q-10 0 -36 1.5t-64 -0.5q-42 0 -74.5 -2t-52.5 -4q-4 -1 -8 -1h-7q-4 0 -7 -1q-6 0 -18 12.5t-12 29.5q0 11 3.5 18t9.5 14q25 4 68 10t94 6h1z" />
    <glyph glyph-name="degree" unicode="&#xb0;" horiz-adv-x="438" 
d="M348 540q4 -3 4 -16q0 -29 -16.5 -54.5t-43 -44.5t-59 -29.5t-63.5 -10.5q-19 0 -40.5 8.5t-40 24.5t-31 40t-12.5 56q0 36 16.5 69t43.5 59t62.5 41.5t73.5 15.5q47 0 76.5 -17.5t46 -40t22.5 -44t6 -30.5q0 -10 -4 -15.5t-10.5 -8t-14.5 -3t-16 -0.5zM299 503
q19 14 26.5 25.5t16.5 11.5q-5 2 -12 4.5t-13.5 5.5t-11.5 6.5t-6 8.5q-1 0 -1 6.5t-3.5 13.5t-13.5 13t-31 6q-23 0 -43 -8.5t-34.5 -22t-22.5 -30.5t-8 -35q0 -4 1.5 -10t9 -12t23 -10t42.5 -4q4 0 13.5 1.5t21.5 5t24.5 9.5t21.5 15z" />
    <glyph glyph-name="plusminus" unicode="&#xb1;" horiz-adv-x="689" 
d="M634 313q-23 0 -56.5 -1.5t-69.5 -2t-71 0t-63 3.5q-5 -21 -12.5 -48.5t-16.5 -54.5t-19.5 -51t-19.5 -38q-12 -19 -21 -27t-16 -8t-12 6.5t-7 15.5q0 10 -3 22t-3 22q0 12 1 30.5t3.5 41t5.5 47.5t8 48q-35 2 -68.5 1.5t-59.5 -2.5q-31 -2 -58 -5q-10 4 -17.5 15.5
t-10.5 26.5t-1 31.5t11 31.5q35 5 73 8q32 2 73 2.5t83 -4.5l44 186q9 4 21.5 6t27 -0.5t29 -11t27.5 -25.5l-37 -161q23 -2 53.5 -7.5t61.5 -12.5t58 -14.5t44 -14.5q25 -12 36.5 -21t12 -16t-8 -12t-22.5 -7zM574 8q27 -11 49 -23.5t22 -23.5q0 -10 -15.5 -16.5
t-41.5 -6.5q-29 1 -78.5 3.5t-105.5 5t-112 4.5t-98 2q-29 0 -54.5 -1.5t-45 -3t-31.5 -2.5t-14 -1q-7 4 -13.5 17.5t-9.5 29.5t-1.5 32t11.5 26q20 2 43 5q20 2 46 4t56 2q66 0 118 -2t97.5 -7.5t88 -16t89.5 -27.5z" />
    <glyph glyph-name="twosuperior" unicode="&#xb2;" horiz-adv-x="455" 
d="M386 503q27 -9 43.5 -19.5t25.5 -20.5t12.5 -19t3.5 -14q0 -17 -3.5 -17t-11.5 8q-7 7 -25 13t-39.5 9.5t-42.5 5.5t-34 2q-43 0 -76 -6t-63 -14q-24 -5 -48.5 -10t-54.5 -5q-17 0 -30 11t-13 29q0 11 8.5 23.5t22 24.5t29.5 22.5t30 19.5q44 31 85 60t72 55.5t49.5 50.5
t18.5 45q0 18 -9.5 30.5t-23.5 12.5q-24 0 -43.5 -16.5t-33.5 -32.5q-12 -13 -21.5 -21.5t-20.5 -8.5q-17 0 -24.5 12t-7.5 41q3 15 17 33t35 33t46.5 25.5t51.5 10.5q30 0 51.5 -10.5t35.5 -27t21 -37t7 -41.5q0 -33 -20 -66t-50.5 -64.5t-68 -60.5t-72.5 -53q25 3 62 3
q27 0 55 -3.5t54 -12.5z" />
    <glyph glyph-name="threesuperior" unicode="&#xb3;" horiz-adv-x="456" 
d="M325 853q7 0 24.5 -3t35.5 -10.5t31.5 -20.5t13.5 -32q0 -31 -25.5 -53t-58.5 -46q23 -23 42.5 -60.5t19.5 -78.5q0 -29 -11 -52t-25 -40t-29 -27t-22 -14q-23 -11 -48.5 -16.5t-61.5 -5.5q-20 0 -49 5t-56 22q-33 22 -44.5 48.5t-13.5 42.5q0 8 8 8.5t16 -5.5
q15 -10 26.5 -17.5t24.5 -12t29.5 -6.5t40.5 -2q21 0 43.5 1.5t40.5 9t30 23t12 42.5q0 26 -14.5 45.5t-38.5 42.5q-11 11 -18 21.5t-7 28.5q0 12 8.5 23t19 20.5t21 16.5t14.5 9q15 8 25 17q-29 0 -47 -6t-29 -11q-8 -3 -14.5 -5t-14.5 -2q-14 0 -23.5 7.5t-9.5 23.5
q0 8 3 16t8 19q6 4 18.5 9.5t28.5 11t35.5 9.5t40.5 4z" />
    <glyph glyph-name="acute" unicode="&#xb4;" horiz-adv-x="640" 
d="M413 529q5 16 18.5 22.5t19.5 6.5q5 0 14.5 -2.5t18.5 -7.5t15.5 -14t6.5 -21q0 -11 -8 -22t-16 -19q-45 -44 -70 -69t-39 -26q-8 0 -14 7t-6 17t7.5 28.5t17.5 38t20 36.5t15 25z" />
    <glyph glyph-name="mu" unicode="&#xb5;" horiz-adv-x="828" 
d="M175 14q-7 -20 -19 -54t-26 -74t-28 -81.5t-26 -76.5q-12 -52 -21.5 -74t-17.5 -22q-6 0 -10.5 14.5t-6.5 38.5q0 104 19.5 208.5t52.5 204.5t77.5 194.5t96.5 177.5t107.5 153t111.5 122q15 9 31.5 6t28.5 -14t18.5 -28t2.5 -38q-11 -6 -39 -36t-63.5 -75.5
t-74.5 -101.5t-71 -114t-52.5 -113t-20.5 -98q0 -19 5 -37.5t19 -18.5q10 0 27.5 10t40.5 28q31 25 63.5 56.5t67.5 59t72.5 46.5t78.5 19q35 0 59.5 -13.5t41 -35.5t26.5 -49t14.5 -55t6 -53t1.5 -43q0 -30 -1.5 -44.5t-9.5 -14.5q-6 0 -18 17.5t-21 37.5q-11 24 -20 49.5
t-19.5 47t-24 35.5t-32.5 14q-26 0 -50 -15.5t-50.5 -40t-57.5 -55t-72 -59.5q-26 -18 -54.5 -33.5t-75.5 -15.5q-23 0 -46.5 13.5t-40.5 30.5z" />
    <glyph glyph-name="paragraph" unicode="&#xb6;" horiz-adv-x="861" 
d="M535 747q46 1 95.5 -16.5t90 -43.5t67.5 -55.5t28 -51.5q0 -8 -10 -8q-15 0 -24.5 3t-22.5 9.5t-33.5 16.5t-57.5 25q-2 -26 -6 -64t-12 -83.5t-21.5 -95t-34.5 -98.5q-26 -73 -67.5 -128.5t-84.5 -94.5t-80 -60.5t-53 -26.5t-37.5 -11.5t-44.5 -12t-47 -9.5t-45 -4
q-49 0 -69 4.5t-20 12.5q0 9 13 17t31 15.5t36 13.5t28 11q51 27 100 52.5t93 60t82 83t69 121.5q5 13 7.5 23.5t7.5 19.5q-16 -8 -52.5 -18.5t-78.5 -10.5q-28 0 -54.5 8t-47.5 24.5t-33.5 41.5t-12.5 60q0 48 19.5 86.5t49.5 68.5t66 51.5t69.5 35.5t60 21t36.5 7z
M551 639l-7 -0.5t-18.5 -2t-26 -5.5t-29.5 -11q-19 -9 -40.5 -24.5t-41 -33.5t-33 -37t-15.5 -35q0 -26 10.5 -33t36.5 -7q14 0 40 7.5t51.5 17.5t45 19.5t20.5 13.5q5 21 7.5 38t4.5 32.5t3.5 30t3.5 30.5h-12z" />
    <glyph glyph-name="periodcentered" unicode="&#xb7;" horiz-adv-x="207" 
d="M116 251q5 0 12.5 -1t15 -5.5t13 -14.5t5.5 -29q0 -14 -7.5 -24.5t-18.5 -18t-23 -11t-21 -3.5q-25 0 -35.5 13t-10.5 23q0 12 5.5 25t15 23t22.5 16.5t27 6.5z" />
    <glyph glyph-name="cedilla" unicode="&#xb8;" horiz-adv-x="500" 
d="M408 -38q9 -3 20 -8.5t20 -15t15.5 -22.5t6.5 -30q0 -37 -12.5 -63.5t-31 -44.5t-39 -29t-36.5 -17q-32 -12 -52.5 -14t-40.5 -2q-15 0 -41 7t-50.5 19.5t-43 31t-18.5 42.5q0 10 4 15t6 5t14.5 -10t27.5 -18v1q36 -14 78.5 -17.5t85.5 21.5q27 16 44 30t17 38q0 3 -7 3
q-4 0 -17.5 -3t-24.5 -3q-8 0 -22.5 0.5t-29.5 5.5t-26 17t-11 36q0 7 0 6t1 4q1 17 9 33.5t17 30t16.5 22.5t7.5 11q10 0 22 2t23 1.5t20.5 -5t14.5 -17.5q0 -1 -4.5 -9.5t-8.5 -18t-6.5 -17.5t1.5 -8q11 0 23 -3z" />
    <glyph glyph-name="onesuperior" unicode="&#xb9;" horiz-adv-x="311" 
d="M285 878q4 0 12 -1.5t16 -6t13.5 -12.5t5.5 -20q0 -18 -12 -37t-29 -43t-36.5 -55.5t-35.5 -73.5q-14 -34 -28 -76t-27 -79t-24.5 -62.5t-21.5 -25.5q-9 0 -17 8.5t-8 28.5q0 21 4 53.5t13.5 72t25 84t39.5 90.5q-12 -7 -22 -7q-14 0 -25 8t-11 32q0 19 23 40.5
t52.5 39.5t57 30t35.5 12z" />
    <glyph glyph-name="ordmasculine" unicode="&#xba;" horiz-adv-x="392" 
d="M357 429q0 -33 -21.5 -54t-52 -34t-64 -18t-56.5 -5q-24 0 -48.5 4.5t-44 14t-32 25.5t-12.5 40q0 16 20 34t50.5 33t68 25t73.5 10q21 0 42 -3.5t38 -12.5t28 -23.5t11 -35.5zM280 424q0 5 -16.5 9t-30.5 4q-12 0 -28.5 -1.5t-34.5 -4.5t-35.5 -8t-32.5 -12q3 -3 2.5 -6
t2.5 -5.5t13.5 -4t35.5 -1.5q16 0 37.5 1.5t40.5 5.5t32.5 9.5t13.5 13.5z" />
    <glyph glyph-name="guillemotright" unicode="&#xbb;" horiz-adv-x="666" 
d="M459 165q0 -19 -16 -37t-39.5 -33t-48.5 -27t-43 -19q-20 -8 -47.5 -19.5t-59.5 -22t-66.5 -18t-68.5 -7.5q-27 0 -39 3t-12 8q0 9 26.5 22t66.5 30q38 17 82.5 36t82.5 36.5t63.5 32t25.5 21.5q0 9 -17 21t-42.5 24t-56 23t-58.5 18q-29 14 -40 29t-7.5 27t20 18.5
t44.5 3.5q24 -6 66 -23t83 -40.5t71 -51t30 -55.5zM384 354q8 0 28.5 -10.5t47 -27.5t55.5 -39t52.5 -45t39 -45.5t15.5 -40.5q0 -14 -6.5 -25.5t-16 -20.5t-19.5 -16t-17 -11q-26 -16 -41.5 -25t-30.5 -16t-34.5 -14t-52.5 -19q-39 -16 -61 -22t-34 -6q-31 0 -31 15
q0 11 20 28.5t56 28.5q38 12 78.5 40t91.5 54q11 5 11 15q0 3 -3 8q-40 37 -72.5 59t-56 38t-36 31t-12.5 39q0 11 6.5 19t22.5 8z" />
    <glyph glyph-name="afii10023" unicode="&#x401;" horiz-adv-x="787" 
d="M391 103q27 0 64 -5t76.5 -13.5t78.5 -20t69.5 -24t49.5 -26t19 -25.5q0 -4 -6 -4q-5 0 -41.5 6.5t-93.5 11.5q-51 5 -103 6.5t-108 -2t-117 -12.5t-131 -25q-28 -1 -45 14t-26 38.5t-12 51.5t-3 53q0 72 19 154t53 162t82 151t105 122l12 19q17 17 58 24t97 7
q44 0 80.5 -4.5t63 -10t42.5 -10.5t19 -6q16 -11 23.5 -26.5t4.5 -30t-17.5 -26.5t-41.5 -16q-9 4 -41.5 10.5t-72 11t-78.5 4.5t-63 -8q-63 -55 -110 -129t-76 -150q32 3 72 5t88 2q42 0 80 -8t67.5 -20t47 -26t17.5 -26q0 -11 -17.5 -16.5t-45 -7t-61 -1t-65.5 0.5
q-76 0 -131 -6t-89 -14q-7 -38 -10.5 -70.5t-3.5 -61.5q0 -11 0.5 -21t1.5 -21q28 7 53 10.5t51 5.5t54 2.5t61 0.5zM607 880q11 22 36 38.5t49 16.5q2 -1 7 -3t10.5 -7t9.5 -14t5 -24l-5.5 -16.5t-10.5 -21t-17.5 -18.5t-26.5 -8q-18 0 -29.5 5.5t-17.5 13t-8.5 15
t-2.5 12.5q0 8 1 11zM336 876q3 12 12.5 22t21.5 17t25.5 11t25.5 4q2 -1 7 -3t10.5 -7t9.5 -13.5t5 -23.5q-2 -7 -5.5 -18t-11 -21t-20.5 -17t-33 -7q-15 0 -24.5 5.5t-15 13t-7.5 15t-2 11.5q0 5 2 11z" />
    <glyph glyph-name="afii10051" unicode="&#x402;" horiz-adv-x="713" 
d="M423 654q-25 -36 -51 -86t-47 -105t-34.5 -108.5t-13.5 -95.5q0 -32 5.5 -51.5t22.5 -19.5q26 0 73 35q44 34 87.5 56t82.5 22q29 0 51.5 -14.5t37.5 -37.5t23 -52.5t8 -59.5q0 -26 -11.5 -60t-32 -67t-49.5 -61t-65 -42q-40 -14 -65.5 -11t-27.5 5q-19 5 -15 11.5t18 13
t31.5 13.5t26.5 13q32 21 53 46t33 49.5t17 47.5t5 41q0 13 -2 26t-7 23.5t-13.5 17t-22.5 6.5q-17 0 -45 -18t-57 -41q-45 -34 -87 -53.5t-71 -19.5q-57 0 -82 45t-24 123q1 37 11.5 90.5t27.5 110.5t39 112t46 96q-47 0 -89.5 -4.5t-75.5 -9t-53.5 -8t-23.5 -3.5
q-9 4 -16.5 17t-11.5 29t-2.5 32t12.5 27q26 6 64 11.5t85 10t101 7.5t111 3q69 0 130.5 -9.5t107.5 -24t73 -30.5t27 -29q0 -10 -18 -14.5t-47 -6.5t-64.5 -1.5t-70.5 1.5t-66 2t-49 0z" />
    <glyph glyph-name="afii10052" unicode="&#x403;" horiz-adv-x="737" 
d="M71 -17q-12 0 -16 19.5t-3 50.5t6 68.5t11.5 74t13 67t11.5 47.5q10 36 23 76t28 80.5t32 78.5t35 69q-7 6 -13.5 17.5t-10 25.5t-3 28.5t7.5 26.5q56 17 130 27.5t149 10.5q76 0 139 -9.5t109 -24t71.5 -30.5t25.5 -28q0 -9 -22 -13.5t-56 -6.5t-75.5 -1.5t-79.5 1.5
t-68 2.5t-42 1.5q-31 0 -67 -1.5t-65 -7.5q-21 -38 -48.5 -93.5t-50.5 -121.5q-11 -32 -25.5 -76.5t-30 -93t-31.5 -96t-31.5 -85t-29 -61t-24.5 -23.5zM648 956q10 14 25 15t21 -1q5 -2 12.5 -7t14.5 -13.5t10 -18.5t-1 -22q-4 -11 -15.5 -18t-21.5 -12q-57 -26 -89 -41.5
t-46 -10.5q-7 2 -10.5 11t0.5 18q3 10 16.5 24.5t29 29.5t31 27.5t23.5 18.5z" />
    <glyph glyph-name="afii10053" unicode="&#x404;" horiz-adv-x="743" 
d="M518 13q-5 -2 -33.5 -7t-76.5 -6q-59 0 -117 18.5t-104.5 54t-75.5 88t-29 121.5v4q-20 -4 -37 -7.5t-28 -6.5q-12 7 -17 19t-4 24t6.5 23t14.5 17q15 6 35 11t43 9q20 67 65.5 124t103.5 102.5t122.5 80.5t122.5 58t104 35t67 13q19 -4 32 -14.5t17.5 -24.5t-1 -30.5
t-24.5 -31.5q-11 -4 -44.5 -14t-80 -27t-100 -40.5t-104.5 -55.5t-94 -71.5t-67 -87.5q59 4 112.5 2t95.5 -7q51 -6 67 -17.5t9.5 -22.5t-30 -19.5t-50.5 -9.5q-11 0 -36 -1t-56 -3t-64.5 -4.5t-61.5 -5.5q-3 -1 -10 -1q-1 -4 -1 -8v-8q0 -59 31 -100.5t78.5 -68t104.5 -37
t109 -5.5q69 6 95 2.5t21 -13t-36 -23t-74 -28.5z" />
    <glyph glyph-name="afii10054" unicode="&#x405;" horiz-adv-x="736" 
d="M671 747q12 -14 17.5 -29t2 -28.5t-17.5 -24.5t-40 -17q-2 0 -12.5 4t-27.5 8.5t-40 8.5t-51 4q-42 0 -64.5 -15.5t-22.5 -31.5q0 -18 14.5 -44t36.5 -58q16 -25 34.5 -51t34 -55.5t25.5 -64t10 -75.5q0 -62 -23.5 -115t-64.5 -91t-96 -59.5t-118 -21.5q-59 0 -99 13.5
t-65.5 31t-36.5 34.5t-11 25q0 7 10 4t29 -10t46 -14t62 -7q51 0 98 17.5t83 46t57 64t21 72.5q0 34 -11.5 65t-28.5 60t-37.5 57.5t-37.5 56.5t-28.5 56.5t-11.5 59.5q0 48 23.5 78.5t55.5 48t66.5 23.5t56.5 6q35 0 65 -5t52 -11q26 -7 45 -16z" />
    <glyph glyph-name="afii10055" unicode="&#x406;" horiz-adv-x="358" 
d="M331 721q-29 -49 -50 -106.5t-37.5 -118t-29 -121.5t-23.5 -116q-10 -50 -18 -92.5t-19 -81.5q-8 -27 -15.5 -51t-14.5 -42t-13.5 -28t-13.5 -10q-9 0 -18.5 24.5t-9.5 78.5q2 42 6.5 94.5t9.5 106.5q5 57 19 128.5t34 143t45 136t52 107.5q13 3 27.5 2t27.5 -7t24 -17.5
t17 -29.5z" />
    <glyph glyph-name="afii10056" unicode="&#x407;" horiz-adv-x="358" 
d="M331 721q-29 -49 -50 -106.5t-37.5 -118t-29 -121.5t-23.5 -116q-10 -50 -18 -92.5t-19 -81.5q-8 -27 -15.5 -51t-14.5 -42t-13.5 -28t-13.5 -10q-9 0 -18.5 24.5t-9.5 78.5q2 42 6.5 94.5t9.5 106.5q5 57 19 128.5t34 143t45 136t52 107.5q13 3 27.5 2t27.5 -7t24 -17.5
t17 -29.5zM364 880q11 22 36 38.5t49 16.5q2 -1 7 -3t10.5 -7t9.5 -14t5 -24l-5.5 -16.5t-10.5 -21t-17.5 -18.5t-26.5 -8q-18 0 -29.5 5.5t-17.5 13t-8.5 15t-2.5 12.5q0 8 1 11zM93 876q3 12 12.5 22t21.5 17t25.5 11t25.5 4q2 -1 7 -3t10.5 -7t9.5 -13.5t5 -23.5
q-2 -7 -5.5 -18t-11 -21t-20.5 -17t-33 -7q-15 0 -24.5 5.5t-15 13t-7.5 15t-2 11.5q0 5 2 11z" />
    <glyph glyph-name="afii10057" unicode="&#x408;" horiz-adv-x="659" 
d="M494 638q-34 -11 -69.5 -15t-61.5 -4q-68 0 -104 5.5t-44 7.5q-13 11 -21 23t-8 26t9.5 28.5t32.5 27.5q7 0 18.5 -2t28.5 -4.5t41 -4t57 -1.5q36 0 76.5 9.5t88.5 27.5q14 2 27 -4t22.5 -15t15.5 -20t6 -20q0 -67 -13.5 -146.5t-42 -159t-72 -154t-104.5 -131.5
t-139 -91.5t-175 -34.5q-44 0 -75 4.5t-50.5 10t-28 10.5t-8.5 6q0 4 10 8t26.5 8t38.5 8t47 8q46 7 80.5 18t58 22t38 20.5t22.5 13.5q58 33 105.5 92t82.5 129.5t56.5 147.5t27.5 146z" />
    <glyph glyph-name="afii10058" unicode="&#x409;" horiz-adv-x="978" 
d="M800 206q0 31 -30 54t-77.5 40t-105 28.5t-111.5 19.5q-16 -76 -27.5 -142.5t-24.5 -136.5q-9 -41 -19.5 -64t-20.5 -23q-11 0 -22.5 26.5t-13.5 63.5q-3 34 -1.5 67.5t6 69.5t11 74t14.5 81l-11 2q-20 24 -19 48t40 43h12q25 100 58 182q4 9 2.5 13.5t-5 5.5t-8 -0.5
t-7.5 -4.5q-16 -18 -37 -51.5t-45 -76.5t-50.5 -93.5t-53.5 -101.5q-27 -52 -57 -105t-60.5 -100t-60 -86.5t-55.5 -64.5q-14 -13 -38.5 -28.5t-49.5 -27.5t-45 -18.5t-24 -0.5q-5 6 1 18t17.5 25.5t24.5 27.5t24 24l15 15t13 15q21 23 43.5 57.5t46.5 76t49 88.5t50 96
q40 77 80.5 152.5t80 135.5t78.5 97t76 37q56 -1 79 -32t8 -90q-17 -68 -29 -112.5t-23 -84.5q41 -6 86.5 -15.5t90 -23.5t84.5 -33t70.5 -43.5t48.5 -55.5t18 -69q0 -44 -19.5 -75.5t-51 -54t-71 -36.5t-80 -22.5t-77.5 -13t-63 -7.5q-15 -2 -32.5 -2t-33.5 2t-26.5 6
t-10.5 11q0 4 7 11t19 14.5t26.5 14.5t29.5 11q23 6 53 13t62 15.5t63 19t55 24t39 31t15 39.5z" />
    <glyph glyph-name="afii10059" unicode="&#x40a;" horiz-adv-x="1045" 
d="M891 206q0 31 -30 55t-76.5 42t-104 31t-111.5 21q-16 -76 -28.5 -146t-25.5 -140q-9 -41 -20.5 -60.5t-21.5 -19.5q-11 0 -21.5 23t-12.5 60q-7 67 4.5 138.5t26.5 156.5q-30 2 -57 2h-51q-26 0 -51 -1t-60 -6q-1 -2 -1 -4q-17 -60 -33 -119.5t-30 -110.5l-10 -40
q-10 -32 -21 -55t-25 -23q-8 0 -13 6.5t-9 16.5t-5.5 22t-1.5 22q1 71 13.5 140.5t30.5 135.5l-71 -10q-20 -2 -36 6.5t-19 20.5q1 11 16.5 24.5t46.5 24.5q19 7 40 13t52 11q23 67 48.5 124t47.5 98.5t37 65.5t17 25q35 14 56.5 0.5t20.5 -46.5q-35 -61 -64.5 -125.5
t-52.5 -126.5q23 2 46 3t47 1q22 0 52 -1t61 -3q20 79 46 149.5t55 119.5q12 12 27.5 17.5t29 1t22 -20.5t6.5 -45q-26 -43 -48 -104.5t-40 -130.5q41 -6 86.5 -15.5t90 -23.5t84.5 -33t70.5 -43.5t48.5 -55.5t18 -69q0 -44 -19.5 -75.5t-51 -53.5t-71 -36t-80 -22.5
t-77.5 -12.5t-63 -7q-15 -2 -32.5 -2t-33.5 2t-26.5 6t-10.5 11q0 4 7 11t19 14.5t26.5 14.5t29.5 11q23 6 53 13t62 15t63 18.5t55 23.5t39 30.5t15 39.5z" />
    <glyph glyph-name="afii10060" unicode="&#x40b;" horiz-adv-x="838" 
d="M277 499q14 43 34 83t39 74q-47 0 -89 -4t-74.5 -8.5t-53 -8t-23.5 -3.5q-9 4 -16.5 17t-11.5 29t-2.5 32t12.5 27q26 6 64 11.5t85 10t101 7.5t111 3q69 0 130.5 -9.5t107.5 -24t73 -30.5t27 -29q0 -10 -18.5 -14.5t-48.5 -6t-66.5 -0.5t-72 2.5t-67 2.5t-49.5 0
q-18 -28 -44 -78t-46 -115q-18 -56 -29.5 -98t-18.5 -77t-10 -68.5t-4 -73.5q0 -11 1 -22t2 -10q28 33 61.5 67t70.5 62t76.5 45.5t78.5 17.5q28 0 52.5 -15.5t42.5 -39t28 -52.5t10 -56q0 -20 -1.5 -31.5t-4.5 -25.5q-5 -22 -12 -38.5t-14 -28t-12 -17t-6 -5.5
q-14 0 -19.5 13.5t-3.5 35.5q2 26 1.5 50.5t-5.5 46.5q-5 26 -19.5 48t-43.5 22q-18 0 -44 -14t-54 -36t-56 -50t-50 -55q-5 -6 -14 -16t-21 -19.5t-26.5 -16.5t-29.5 -7q-17 0 -29 5t-20.5 13t-13 18t-6.5 20q-6 26 -9 56t-3 56q0 62 10 145t43 183z" />
    <glyph glyph-name="afii10061" unicode="&#x40c;" horiz-adv-x="717" 
d="M630 702q19 -4 30 -15.5t15 -26.5t0.5 -31.5t-14.5 -31.5q1 2 -17.5 -4.5t-50.5 -19.5t-74 -31.5t-86 -40.5t-88 -46.5t-80 -49.5q38 -22 82.5 -53t89 -67t86 -74t73.5 -74.5t51 -69t19 -57.5q0 -16 -8 -16q-6 0 -21.5 12.5t-54.5 45.5q-10 9 -37.5 29t-64 46t-77.5 55
t-80 55.5t-71 48t-49 32.5q-12 -45 -28 -101t-32 -106t-31.5 -84t-26.5 -34q-14 0 -19.5 31.5t-5.5 82.5q0 42 9 99.5t25 121.5t37 129.5t45 124t50 104.5t51 72q12 2 26 -0.5t26.5 -11t20.5 -22.5t8 -34q-13 -19 -27 -42q-12 -20 -26 -47.5t-28 -59.5q65 39 127.5 69
t112 50.5t80.5 31t33 10.5zM565 956q10 14 25 15t21 -1q5 -2 12.5 -7t14.5 -13.5t10 -18.5t-1 -22q-4 -11 -15.5 -18t-21.5 -12q-57 -26 -89 -41.5t-46 -10.5q-7 2 -10.5 11t0.5 18q3 10 16.5 24.5t29 29.5t31 27.5t23.5 18.5z" />
    <glyph glyph-name="afii10062" unicode="&#x40e;" horiz-adv-x="604" 
d="M480 685q12 22 27 33t30 11t27.5 -12t17.5 -34q-19 -71 -51 -148t-76.5 -152.5t-100 -145.5t-121.5 -126t-142 -94t-161 -50q-14 -2 -32 -3t-36 -1q-36 0 -66 8.5t-33 23.5q4 10 17.5 18t32 14t39.5 10t41 6q53 6 101.5 25t92 47.5t82.5 65t74 77.5q-36 52 -69.5 104.5
t-61 97.5t-46 79.5t-24.5 50.5q0 21 7.5 36t20.5 21t28.5 2t32.5 -20q13 -25 30.5 -57.5t39.5 -69.5t48.5 -77.5t58.5 -80.5q54 81 100.5 171t71.5 170zM347 753q-61 0 -96 39t-40 101q5 12 15 18t24 6q11 0 26 -8.5t15 -20.5q0 -5 3 -14t9.5 -17.5t17 -15t25.5 -6.5
q27 0 50.5 6.5t45.5 18t42 26t41 30.5q18 14 36.5 24t27.5 15q17 8 20 1.5t1 -15.5q-2 -8 -8 -20.5t-12 -20.5q-18 -23 -41.5 -49t-53.5 -48t-66.5 -36t-81.5 -14z" />
    <glyph glyph-name="afii10145" unicode="&#x40f;" horiz-adv-x="752" 
d="M428 -3q16 0 30 -8.5t17 -34.5q1 -14 3 -21.5t13 -19.5q19 -25 19 -48q0 -27 -18 -45.5t-44 -38.5q-19 -14 -34 -23.5t-23 -9.5q-29 0 -29.5 19.5t36.5 64.5q21 25 18 33q-3 10 -13 24q-17 23 -21 52q-2 23 10.5 39.5t35.5 16.5zM771 705q20 0 24 -22t-3 -58t-21 -81.5
t-31 -91.5t-34 -88.5t-28 -73.5q-22 -60 -32 -98.5t-10 -60.5q0 -19 2 -34.5t11 -32.5q19 -38 22 -57q3 -23 -3.5 -32.5t-18.5 -8t-28 13.5t-33 32q-23 30 -31.5 59t-8.5 62q0 17 5.5 41.5t14.5 52.5t20.5 58t23.5 59q-34 -55 -82.5 -115t-103.5 -110t-113 -83.5t-110 -35.5
q-40 0 -69 16t-47.5 40.5t-27 54.5t-8.5 58q0 29 5 68.5t14 84.5t21.5 92.5t27.5 93.5q18 22 33 31t26 9q23 0 33.5 -20.5t10.5 -51.5q-11 -21 -23.5 -54.5t-23 -72t-18 -79t-7.5 -76.5q0 -38 15.5 -64.5t53.5 -26.5q23 0 56 19.5t69 51t71 69.5t62 76q30 42 63 92.5
t62 97.5q23 37 48 72.5t48 63t42 44t31 16.5z" />
    <glyph glyph-name="afii10017" unicode="&#x410;" horiz-adv-x="817" 
d="M547 206h-74t-90.5 -2t-90.5 -6t-74 -11q-5 -8 -15.5 -26t-24 -40t-28.5 -45.5t-28.5 -42.5t-25.5 -31.5t-18 -12.5q-8 0 -9 20t3 47.5t11.5 57t16.5 48.5l-31 -6q-22 14 -32 38.5t7 66.5q13 4 30 8q14 4 33.5 8t42.5 9q18 46 51 100.5t74 109t87.5 105t92 89.5t87 62.5
t73.5 23.5q9 0 15 -5t10 -11q4 -7 6 -15q3 -5 6.5 -34t7.5 -71.5t7 -93t4 -99t-0.5 -90t-6.5 -64.5q16 -3 32 -9t29 -13t21 -14.5t8 -12.5q0 -8 -10 -14t-24.5 -10.5t-31.5 -7t-31 -3.5q-1 -11 -6 -32t-12.5 -45.5t-17 -50t-20 -46.5t-22 -34t-21.5 -13q-9 0 -13 13t-5 33
t0.5 45t3 49t3 45t0.5 33zM559 306q4 33 5.5 75t0.5 85.5t-4 85.5t-8 75q-35 -24 -74 -63t-76 -84t-69.5 -91t-53.5 -84q92 7 159.5 5t119.5 -4z" />
    <glyph glyph-name="afii10018" unicode="&#x411;" horiz-adv-x="765" 
d="M573 208q0 30 -28.5 52.5t-73.5 39.5t-100 29t-107 20q-16 -74 -27 -140.5t-25 -136.5q-10 -42 -22.5 -62.5t-23.5 -20.5q-12 0 -24.5 24t-14.5 62q-7 70 5 142.5t26 149.5q-3 1 -7 1q-25 17 -25 45q0 14 10 27t35 20h8q21 79 44.5 144.5t55.5 120.5q21 21 46 21
q16 0 29 -11q29 2 58 3.5t55 1.5q52 0 88 -2.5t42 -2.5q51 -5 81 -17t30 -26q0 -12 -25.5 -21t-82.5 -12q-7 0 -30.5 -1.5t-58 -4.5t-76.5 -7.5t-85 -10.5q-19 -39 -34.5 -86.5t-29.5 -100.5q41 -6 86 -15.5t88.5 -23.5t83 -33t69 -44t47 -56t17.5 -69q0 -45 -21.5 -78.5
t-56.5 -57t-78.5 -38t-87.5 -23t-83.5 -11.5t-66.5 -3t-50.5 5t-23.5 19q0 4 7.5 11.5t20 15.5t27.5 15.5t30 12.5q34 10 81.5 20t91.5 24.5t75 35.5t31 53z" />
    <glyph glyph-name="afii10019" unicode="&#x412;" horiz-adv-x="891" 
d="M633 420q31 -14 67.5 -31.5t67.5 -43t52 -60t21 -82.5q0 -50 -24 -86t-63 -60.5t-88.5 -38.5t-100 -22t-97.5 -10.5t-82 -2.5q-63 -1 -85.5 4.5t-17.5 13.5t32.5 18.5t64.5 19.5q24 6 59.5 14.5t74.5 19.5t78.5 24.5t70.5 29.5t50.5 35.5t19.5 42.5q0 21 -17.5 44
t-56.5 44t-82 37.5t-85 28.5t-80.5 20t-68.5 13q-15 -26 -36 -64t-44 -81t-46.5 -87.5t-44.5 -84t-38 -70.5t-27 -47q-20 -32 -30.5 -45.5t-17.5 -11.5q-6 1 -8.5 9t-3 20t1 25.5t3.5 27.5q30 93 61.5 180t73 169.5t95.5 162t129 157.5q-23 5 -44 7t-38 4q-19 2 -36 2
q-6 6 -11.5 18.5t-7 27.5t4 30.5t21.5 28.5q25 1 55 -1q26 -2 59.5 -7.5t71.5 -16.5q7 8 10.5 11.5l5.5 5.5l3.5 3.5l4.5 4.5q9 0 20.5 -3t22.5 -10.5t21 -20.5t17 -34q21 -11 43 -25t40 -33t29.5 -42t11.5 -52q0 -23 -7 -44t-19 -38t-26.5 -29.5t-29.5 -18.5zM523 615
q-23 -23 -53.5 -57.5t-58.5 -72.5q18 0 51 0.5t66 5t57 14.5t24 30q0 23 -20.5 45t-65.5 35z" />
    <glyph glyph-name="afii10020" unicode="&#x413;" horiz-adv-x="737" 
d="M71 -17q-12 0 -16 19.5t-3 50.5t6 68.5t11.5 74t13 67t11.5 47.5q10 36 23 76t28 80.5t32 78.5t35 69q-7 6 -13.5 17.5t-10 25.5t-3 28.5t7.5 26.5q56 17 130 27.5t149 10.5q76 0 139 -9.5t109 -24t71.5 -30.5t25.5 -28q0 -9 -22 -13.5t-56 -6.5t-75.5 -1.5t-79.5 1.5
t-68 2.5t-42 1.5q-31 0 -67 -1.5t-65 -7.5q-21 -38 -48.5 -93.5t-50.5 -121.5q-11 -32 -25.5 -76.5t-30 -93t-31.5 -96t-31.5 -85t-29 -61t-24.5 -23.5z" />
    <glyph glyph-name="afii10021" unicode="&#x414;" horiz-adv-x="723" 
d="M308 326q-39 -57 -70 -114t-51 -104q28 5 58 7.5t74 2.5q45 0 94 -4.5t94 -13.5l18 90t21 116.5t17.5 123t7.5 109.5v48t-1 18q-21 0 -50.5 -23t-64 -62t-72.5 -89.5t-75 -104.5zM327 11q-32 1 -63.5 -1.5t-58.5 -6.5t-48 -8t-30 -6q-12 -6 -21.5 -19t-17 -28t-12.5 -31
t-6 -29q-10 -27 -22.5 -39t-24.5 -12q-17 0 -29 15t-20 42q3 25 7 52t13.5 52.5t25.5 47.5t42 37q22 47 40.5 85t37 74t40 72.5t48.5 80.5q16 25 40.5 58.5t53.5 69t61 70t64.5 62t63.5 44t57 16.5q37 0 58.5 -15t32.5 -38t13.5 -50.5t2.5 -53.5q0 -54 -4.5 -109.5t-15 -114
t-28 -122t-44.5 -133.5q36 -16 52 -34.5t16 -52.5q0 -27 -10 -57t-26 -59.5t-35 -56.5t-37 -47q-13 -13 -22.5 -20.5t-15.5 -7.5q-15 0 -12.5 25.5t13.5 59.5q11 30 18.5 58t16.5 57q3 23 -15 37t-48.5 21.5t-70.5 10.5t-80 4z" />
    <glyph glyph-name="afii10022" unicode="&#x415;" horiz-adv-x="787" 
d="M391 103q27 0 64 -5t76.5 -13.5t78.5 -20t69.5 -24t49.5 -26t19 -25.5q0 -4 -6 -4q-5 0 -41.5 6.5t-93.5 11.5q-51 5 -103 6.5t-108 -2t-117 -12.5t-131 -25q-28 -1 -45 14t-26 38.5t-12 51.5t-3 53q0 72 19 154t53 162t82 151t105 122l12 19q17 17 58 24t97 7
q44 0 80.5 -4.5t63 -10t42.5 -10.5t19 -6q16 -11 23.5 -26.5t4.5 -30t-17.5 -26.5t-41.5 -16q-9 4 -41.5 10.5t-72 11t-78.5 4.5t-63 -8q-63 -55 -110 -129t-76 -150q32 3 72 5t88 2q42 0 80 -8t67.5 -20t47 -26t17.5 -26q0 -11 -17.5 -16.5t-45 -7t-61 -1t-65.5 0.5
q-76 0 -131 -6t-89 -14q-7 -38 -10.5 -70.5t-3.5 -61.5q0 -11 0.5 -21t1.5 -21q28 7 53 10.5t51 5.5t54 2.5t61 0.5z" />
    <glyph glyph-name="afii10024" unicode="&#x416;" horiz-adv-x="918" 
d="M343 -30q-11 0 -15.5 19t-5.5 46.5t1.5 58.5t5.5 55q3 21 6 38t6.5 33t6.5 31.5t6 33.5q-36 -30 -71 -62t-67.5 -64.5t-61.5 -63t-53 -57.5q-23 -26 -39.5 -39t-39.5 -27q-6 0 -6 12.5t4.5 30.5t13 39.5t20.5 39.5q32 49 71 95t78.5 85t76.5 70.5t66 52.5
q-69 49 -134 93.5t-134 90.5q-19 19 -22 34t4.5 25.5t22.5 16t31 5.5q14 -4 47.5 -23.5t76 -47t88 -59t83.5 -59.5q22 62 49 122.5t57 111.5q10 10 24.5 13t28.5 -2t24 -20t10 -41q-4 -5 -25.5 -44.5t-47.5 -103.5q48 34 94.5 63t83.5 50.5t61 34t28 14.5q29 4 46.5 -5.5
t17.5 -33.5q0 -22 -30 -58q-2 0 -29 -13.5t-69 -37t-94.5 -56t-106.5 -69.5q31 -23 57.5 -44t54 -46t58 -57t70.5 -76q18 -21 31.5 -43.5t21.5 -42t12 -33.5t3 -18q-8 1 -23 8t-35.5 20t-45 32.5t-49.5 45.5q-42 38 -74 65.5t-57.5 48t-46.5 36.5t-43 32q-17 -59 -24 -96.5
t-10 -51.5q-2 -8 -7 -27t-12.5 -42t-15.5 -47.5t-17.5 -45t-18.5 -33.5t-17 -13z" />
    <glyph glyph-name="afii10025" unicode="&#x417;" 
d="M469 732q23 0 49.5 -7.5t49 -21.5t37 -35t14.5 -49q0 -40 -39 -89.5t-114 -98.5q-24 -15 -24 -17t16 -16q18 -15 38.5 -34.5t37.5 -43t28 -51.5t11 -60q0 -46 -17 -81.5t-40 -61t-45.5 -40.5t-34.5 -21q-19 -9 -36 -16t-35 -11t-40 -6t-50 -2q-33 0 -72 9t-74 21
t-62 24.5t-35 19.5q-37 33 -37 46q0 14 28.5 11.5t70.5 -15.5q28 -8 68.5 -15t80.5 -7q48 0 80.5 8t51.5 19q8 5 23 15t30 25.5t26.5 35.5t11.5 45q0 21 -10 38t-25 32t-32.5 28.5t-32.5 26.5q-43 34 -43 73q0 29 23.5 56t67.5 54q45 26 69 53.5t26 43.5q-5 5 -20 8t-26 3
q-46 0 -74.5 -12t-41.5 -23q-26 -8 -48 -8q-20 0 -32 6.5t-12 23.5q0 22 29 58q10 7 28 17t42 19.5t53 16t62 6.5z" />
    <glyph glyph-name="afii10026" unicode="&#x418;" horiz-adv-x="752" 
d="M771 705q20 0 24 -22t-3 -58t-21 -81.5t-31 -91.5t-34 -88.5t-28 -73.5q-22 -60 -32 -98.5t-10 -60.5q0 -19 2 -34.5t11 -32.5q19 -38 22 -57q3 -23 -3.5 -32.5t-18.5 -8t-28 13.5t-33 32q-23 30 -31.5 59t-8.5 62q0 17 5.5 41.5t14.5 52.5t20.5 58t23.5 59
q-34 -55 -82.5 -115t-103.5 -110t-113 -83.5t-110 -35.5q-40 0 -69 16t-47.5 40.5t-27 54.5t-8.5 58q0 29 5 68.5t14 84.5t21.5 92.5t27.5 93.5q18 22 33 31t26 9q23 0 33.5 -20.5t10.5 -51.5q-11 -21 -23.5 -54.5t-23 -72t-18 -79t-7.5 -76.5q0 -38 15.5 -64.5t53.5 -26.5
q23 0 56 19.5t69 51t71 69.5t62 76q30 42 63 92.5t62 97.5q23 37 48 72.5t48 63t42 44t31 16.5z" />
    <glyph glyph-name="afii10027" unicode="&#x419;" horiz-adv-x="752" 
d="M415 697q-61 0 -96 39t-40 101q5 12 15 18t24 6q11 0 26 -8.5t15 -20.5q0 -5 3 -14t9.5 -17.5t17 -15t25.5 -6.5q27 0 50.5 6.5t45.5 18t42 26t41 30.5q18 14 36.5 24t27.5 15q17 8 20 1.5t1 -15.5q-2 -8 -8 -20.5t-12 -20.5q-18 -23 -41.5 -49t-53.5 -48t-66.5 -36
t-81.5 -14zM771 705q20 0 24 -22t-3 -58t-21 -81.5t-31 -91.5t-34 -88.5t-28 -73.5q-22 -60 -32 -98.5t-10 -60.5q0 -19 2 -34.5t11 -32.5q19 -38 22 -57q3 -23 -3.5 -32.5t-18.5 -8t-28 13.5t-33 32q-23 30 -31.5 59t-8.5 62q0 17 5.5 41.5t14.5 52.5t20.5 58t23.5 59
q-34 -55 -82.5 -115t-103.5 -110t-113 -83.5t-110 -35.5q-40 0 -69 16t-47.5 40.5t-27 54.5t-8.5 58q0 29 5 68.5t14 84.5t21.5 92.5t27.5 93.5q18 22 33 31t26 9q23 0 33.5 -20.5t10.5 -51.5q-11 -21 -23.5 -54.5t-23 -72t-18 -79t-7.5 -76.5q0 -38 15.5 -64.5t53.5 -26.5
q23 0 56 19.5t69 51t71 69.5t62 76q30 42 63 92.5t62 97.5q23 37 48 72.5t48 63t42 44t31 16.5z" />
    <glyph glyph-name="afii10028" unicode="&#x41a;" horiz-adv-x="717" 
d="M630 702q19 -4 30 -15.5t15 -26.5t0.5 -31.5t-14.5 -31.5q1 2 -17.5 -4.5t-50.5 -19.5t-74 -31.5t-86 -40.5t-88 -46.5t-80 -49.5q38 -22 82.5 -53t89 -67t86 -74t73.5 -74.5t51 -69t19 -57.5q0 -16 -8 -16q-6 0 -21.5 12.5t-54.5 45.5q-10 9 -37.5 29t-64 46t-77.5 55
t-80 55.5t-71 48t-49 32.5q-12 -45 -28 -101t-32 -106t-31.5 -84t-26.5 -34q-14 0 -19.5 31.5t-5.5 82.5q0 42 9 99.5t25 121.5t37 129.5t45 124t50 104.5t51 72q12 2 26 -0.5t26.5 -11t20.5 -22.5t8 -34q-13 -19 -27 -42q-12 -20 -26 -47.5t-28 -59.5q65 39 127.5 69
t112 50.5t80.5 31t33 10.5z" />
    <glyph glyph-name="afii10029" unicode="&#x41b;" horiz-adv-x="765" 
d="M586 759q36 0 59 -14.5t37 -41.5t19.5 -65t5.5 -86q0 -56 -9.5 -118.5t-24 -120.5t-30 -106.5t-27.5 -78.5q-26 -65 -42.5 -92.5t-22.5 -27.5t-6 20q0 19 4.5 50t11.5 69q1 0 4 18t7 48.5t8.5 70.5t8.5 82.5t7 85.5t3 80q0 51 -0.5 84t-15.5 33q-19 0 -52 -29.5
t-74.5 -79t-87.5 -114.5t-89 -136t-80 -143.5t-61 -136.5q-15 -12 -31 -19t-29.5 -5t-24 16.5t-14.5 44.5q23 65 61 143.5t85 157.5t100 153t106 131.5t103 92t91 34.5z" />
    <glyph glyph-name="afii10030" unicode="&#x41c;" horiz-adv-x="929" 
d="M889 504q0 -41 -12 -95t-30 -110.5t-39.5 -110t-40.5 -91.5q-26 -52 -44.5 -84t-26.5 -32q-4 0 -3.5 13t3.5 30.5t7 35.5t7 29q15 47 29.5 98.5t25.5 102t18 98.5t7 87q0 33 -3.5 54t-8.5 34t-11.5 19.5t-12.5 9.5q-16 -5 -41.5 -26.5t-53.5 -49.5t-54 -57t-42 -49
q-10 -12 -21.5 -28.5t-26 -31.5t-30.5 -25.5t-35 -10.5q-27 0 -36.5 15t-9.5 38t5.5 56t12.5 69.5t13.5 72t8.5 64.5q-44 -33 -83 -85t-73 -111t-60.5 -119.5t-44.5 -112.5q-19 -53 -31 -98t-19 -77.5t-9.5 -51.5t-2.5 -21q-9 -20 -24.5 -35t-31.5 -17.5t-29.5 11
t-19.5 49.5q0 41 17 110.5t49 163.5q21 61 49.5 124t61.5 122t70 111t74 90.5t73.5 61t69.5 22.5q28 0 43 -14.5t22 -34t8.5 -39.5t1.5 -30q0 -12 -3.5 -38.5t-8.5 -55.5q21 22 45 47.5t51 47t57.5 35.5t64.5 14q41 0 65.5 -19.5t38 -48.5t18 -63t6.5 -63z" />
    <glyph glyph-name="afii10031" unicode="&#x41d;" horiz-adv-x="775" 
d="M204 263q-5 -14 -13.5 -39t-20 -54t-24 -59.5t-24 -55.5t-21.5 -40.5t-16 -15.5t-9.5 8.5t-5 21.5t-1.5 28.5v29.5q0 28 2 53.5t6.5 52t11.5 56.5t16 68q9 37 25.5 82t36.5 93t41 93.5t39.5 83.5t31.5 63t18 32q27 6 54 -4t41 -49q-16 -34 -39.5 -78t-46.5 -89.5
t-42 -88.5t-27 -76h53.5t63 -0.5t65 -2t60.5 -3.5q8 39 20 88t28 101t34.5 104t39.5 98q28 8 55.5 0t46.5 -40q-11 -31 -28 -77t-34 -97t-31 -101t-20 -88q1 0 13 -3t29.5 -9t38 -13.5t37.5 -16t28.5 -17t11.5 -16.5q0 -3 -2.5 -7t-13 -7.5t-31 -5.5t-57.5 -2h-45
q-11 0 -23 1q-3 -16 -9 -43.5t-14 -59t-17.5 -63.5t-19 -58t-18.5 -42.5t-17 -16.5q-11 0 -17.5 20t-8.5 54q0 47 1 88q1 35 3 70.5t5 53.5q-27 1 -63 1.5t-73 0t-70.5 -2t-53.5 -4.5z" />
    <glyph glyph-name="afii10032" unicode="&#x41e;" horiz-adv-x="733" 
d="M470 762q13 3 29 3q58 0 96 -26.5t59.5 -65t30 -82t8.5 -77.5q0 -53 -16.5 -123.5t-63.5 -142.5q-29 -44 -72 -91t-96 -85.5t-113 -63.5t-122 -25q-36 0 -63.5 14t-46.5 37t-28.5 51.5t-9.5 58.5q0 51 13 104.5t30 98.5q47 123 92 202t83 128t67.5 72.5t46.5 35.5
q10 3 23 3.5t25 -2.5t20 -9t8 -15zM202 90q43 0 88.5 18t88.5 48.5t81 71.5t67 88q30 48 47 98.5t17 99.5q0 14 -1.5 42t-11 56.5t-31.5 50t-63 21.5q-28 0 -57 -8q-16 -16 -44 -50t-60 -82.5t-64 -109.5t-55 -130q-13 -39 -23 -76.5t-10 -78.5q0 -32 6 -45.5t25 -13.5z" />
    <glyph glyph-name="afii10033" unicode="&#x41f;" horiz-adv-x="999" 
d="M68 131q42 131 111 257.5t150 244.5l-82 -13q-19 5 -31 16t-15 25.5t4 31t25 33.5q8 3 49 10t101.5 13.5t133.5 10.5t145.5 2.5t137 -11.5t108.5 -31q2 -2 8.5 -6t13.5 -11.5t13 -20t9 -31.5q1 -7 -15.5 -61.5t-56.5 -137t-106 -183t-163 -200.5q-43 -44 -65.5 -63
t-31.5 -19q-5 0 -5 7q0 13 15 43.5t37 68.5q76 121 146 249t127 278q-38 9 -82.5 14t-91 6.5t-92.5 0.5t-87 -3q-20 -19 -45 -55t-53.5 -82t-59 -99.5t-61 -107.5t-59 -105.5t-52.5 -94.5q-32 -56 -54 -90t-29 -34q-11 0 -13.5 19t-0.5 44.5t7 49.5t10 35z" />
    <glyph glyph-name="afii10034" unicode="&#x420;" horiz-adv-x="929" 
d="M494 744q29 0 70.5 -4.5t86 -15t88.5 -27t79.5 -41.5t57 -59t21.5 -78q0 -57 -36.5 -99.5t-95.5 -72.5t-133 -50t-148.5 -31t-142 -15.5t-114.5 -4.5q-13 -35 -31 -82t-36.5 -90.5t-35 -73.5t-27.5 -30q-7 0 -11 15.5t-4 41.5t4 57t9.5 61.5t11 59t9.5 48.5
q-35 4 -50 8.5t-15 9.5q0 8 23.5 16.5t59.5 17.5q7 26 23.5 62.5t38 79t46.5 86t49.5 83t46.5 71t38 49.5q6 0 7.5 1.5t10.5 3t31 2.5t69 1zM263 324q27 2 76.5 9t107.5 18t118.5 27t109.5 37t80.5 47t31.5 57q0 28 -36.5 50.5t-90 37.5t-114 22.5t-108.5 7.5
q-17 -21 -42 -59t-50.5 -82t-48 -89.5t-34.5 -82.5z" />
    <glyph glyph-name="afii10035" unicode="&#x421;" horiz-adv-x="743" 
d="M518 13q-5 -2 -33.5 -7t-76.5 -6q-59 0 -117 18.5t-104.5 54t-75.5 88t-29 121.5q0 83 38 152.5t96.5 125.5t129.5 98.5t137.5 71t120 43t76.5 15.5q19 -4 32 -14.5t17.5 -24.5t-1 -30.5t-24.5 -31.5q-12 -5 -55.5 -17.5t-100.5 -35t-120.5 -54.5t-116.5 -75t-87.5 -97.5
t-34.5 -121.5q0 -59 31 -100.5t78.5 -68t104.5 -37t109 -5.5q69 6 95 2.5t21 -13t-36 -23t-74 -28.5z" />
    <glyph glyph-name="afii10036" unicode="&#x422;" horiz-adv-x="728" 
d="M107 630q-9 4 -16.5 17t-11.5 29t-2.5 32t12.5 27q26 6 64 11.5t85 10t101 7.5t111 3q69 0 130.5 -9.5t107.5 -24t73 -30.5t27 -29q0 -10 -18 -14.5t-47 -6.5t-64.5 -1.5t-70.5 1.5t-66 2t-49 0q-19 -28 -47 -83.5t-52 -121.5q-29 -80 -43.5 -162t-23.5 -148.5
t-17 -108.5t-23 -42q-11 0 -19.5 22.5t-14.5 54t-9 65.5t-3 57q0 58 10.5 123.5t28.5 129t41 119.5t48 94q-47 0 -89.5 -4t-75.5 -8.5t-53.5 -8t-23.5 -3.5z" />
    <glyph glyph-name="afii10037" unicode="&#x423;" horiz-adv-x="630" 
d="M548 685q12 22 27 33t30 11t27.5 -12t17.5 -34q-19 -71 -51 -148t-76.5 -152.5t-100 -145.5t-121.5 -126t-142 -94t-161 -50q-14 -2 -32 -3t-36 -1q-36 0 -66 8.5t-33 23.5q4 10 17.5 18t32 14t39.5 10t41 6q53 6 101.5 25t92 47.5t82.5 65t74 77.5q-36 52 -69.5 104.5
t-61 97.5t-46 79.5t-24.5 50.5q0 21 7.5 36t20.5 21t28.5 2t32.5 -20q13 -25 30.5 -57.5t39.5 -69.5t48.5 -77.5t58.5 -80.5q54 81 100.5 171t71.5 170z" />
    <glyph glyph-name="afii10038" unicode="&#x424;" horiz-adv-x="886" 
d="M912 591q0 -44 -27.5 -84t-71 -74.5t-97.5 -63.5t-107.5 -51t-101 -37t-77.5 -21q-5 -12 -13 -36.5t-17 -54.5t-19.5 -61t-20 -57t-18 -42.5t-14.5 -16.5q-8 0 -14 29t-8 68.5t-0.5 79t7.5 60.5q-21 -5 -43 -7.5t-45 -2.5q-39 0 -71 6t-55 21t-35.5 40.5t-12.5 63.5
q0 16 5.5 34.5t13.5 36.5t18.5 34.5t21.5 27.5q38 15 56 11.5t24 -17t4.5 -32t-1.5 -31.5l-6.5 -6.5t-15 -16t-15 -20t-6.5 -18.5t6.5 -12.5t17 -7.5t23.5 -4t26 -1q27 0 59 5t68 13q11 30 25.5 66.5t32 73.5t36 73t36.5 66q-23 3 -62.5 -9.5t-81.5 -28.5t-77.5 -30
t-49.5 -14q-9 0 -9 5q0 14 32.5 39t82.5 52t110.5 52t116.5 40l25 37q7 3 18 2t22.5 -4.5t21 -9.5t12.5 -13q40 0 87.5 -7t88.5 -24.5t68 -47t27 -73.5zM801 585q0 12 -15.5 23t-41.5 18.5t-59.5 10.5t-68.5 1q-16 -22 -34.5 -54.5t-37 -67.5t-35.5 -68.5t-29 -57.5
q28 9 63 22t71 29t69.5 34.5t59.5 37t42 37t16 35.5z" />
    <glyph glyph-name="afii10039" unicode="&#x425;" horiz-adv-x="919" 
d="M740 189q58 -76 90.5 -130t37.5 -77q0 -9 -9 -9q-14 0 -66 34.5t-136 117.5q-2 2 -15 16t-32.5 36.5t-43.5 51.5t-48 60t-47 62.5t-39 59.5q-51 -43 -97 -92t-85 -98t-72 -94t-58 -80t-42 -55.5t-25 -20.5q-2 0 -3 5.5t-1 7.5q0 6 4.5 30.5t17.5 63.5t35 89t58 106
t86.5 115t119.5 116q-14 21 -24.5 38.5t-19.5 34.5t-17 34.5t-17 37.5q8 34 28 48.5t64 10.5l73 -136q59 40 107.5 68.5t90.5 50.5t79.5 39t75.5 34q17 -1 29 -10.5t18 -24t4.5 -31t-10.5 -31.5q-7 -4 -41.5 -20t-83.5 -40.5t-105.5 -57.5t-107.5 -70q16 -27 38.5 -58.5
t47.5 -63.5t50 -62t45 -53t32.5 -37.5t13.5 -15.5z" />
    <glyph glyph-name="afii10040" unicode="&#x426;" horiz-adv-x="752" 
d="M760 702q20 0 25.5 -23t1.5 -60t-15 -83t-25 -92.5t-28.5 -88t-24.5 -69.5q-9 -23 -18.5 -50t-17 -50.5t-12 -41t-4.5 -21.5q0 -23 9.5 -37.5t20.5 -28.5q30 -38 26 -73.5t-52 -63.5q-47 -26 -94 -52.5t-78 -51.5l-45.5 -35t-35.5 -28.5t-29.5 -26.5t-27.5 -29
q-14 -17 -19 -11t2.5 27t28 54.5t58.5 72.5q12 12 33 32.5t46 43t51 43.5t47 35q5 4 7.5 9t-10.5 19q-21 25 -25 50.5t-2 54.5q2 24 14 61.5t28.5 80.5t35.5 87t34 82q-26 -41 -56.5 -87t-66 -92t-74.5 -89.5t-81.5 -78.5t-89 -58.5t-95.5 -30.5q-39 0 -68 18t-48 45
t-28 58.5t-9 59.5q0 29 5.5 66.5t15 79.5t22 87.5t27.5 90.5q18 22 32.5 31t25.5 9q22 0 32 -20.5t10 -50.5q-11 -22 -23.5 -55.5t-23.5 -72.5t-18.5 -79.5t-7.5 -75.5q0 -41 16.5 -68t56.5 -27q24 0 57 20t68.5 51.5t70.5 70.5t63 78q32 43 63 92.5t62 98.5q23 37 46.5 72
t44 62t38 43t28.5 16z" />
    <glyph glyph-name="afii10041" unicode="&#x427;" horiz-adv-x="616" 
d="M606 733q18 14 35.5 16t30.5 -6t19.5 -23.5t2.5 -35.5q-40 -75 -71 -144t-54.5 -140t-40 -150t-27.5 -173q-2 -16 -7.5 -31.5t-11.5 -27.5t-12.5 -19t-11.5 -7q-12 0 -19 15.5t-11 35.5t-5 40.5t-1 29.5q0 69 9 134.5t25 125.5q-41 -38 -86 -63t-93 -25q-14 0 -29.5 2.5
t-31.5 8.5q-54 20 -74.5 60t-20.5 90q0 54 17.5 108.5t36.5 95.5q4 10 13.5 31.5t20 40.5t20.5 29.5t15 -1.5q6 -12 6 -33.5t-2.5 -45t-7 -46t-8.5 -37.5q-8 -32 -13 -66.5t-5 -65.5q0 -25 9 -44.5t31 -28.5q9 -4 23 -4q27 0 55.5 17.5t58.5 45t59.5 62.5t58.5 71
q23 35 50 75.5t47 82.5z" />
    <glyph glyph-name="afii10042" unicode="&#x428;" horiz-adv-x="906" 
d="M498 585q8 16 25.5 27t34.5 12.5t29.5 -9t11.5 -38.5q-10 -63 -21.5 -134.5t-11.5 -140.5q0 -42 7.5 -71t28.5 -29q16 0 35.5 12t39 31t38.5 42.5t34 45.5q21 30 37 51q11 15 30.5 23t42.5 -4q24 -17 21 -45q-2 -15 -6.5 -35.5t-11 -44.5t-14 -50t-14.5 -51
q-10 -35 -18 -66.5t-12 -51.5q-5 -23 -7 -40t-4 -31q-5 -38 -19.5 -47t-28.5 5q-16 20 -18.5 50.5t-2.5 65.5q0 20 5 48.5t13 60.5q-36 -38 -75.5 -52.5t-68.5 -14.5q-32 0 -54 12.5t-36.5 33.5t-23 48.5t-11.5 57.5q-20 -48 -42.5 -91.5t-37.5 -69.5q-17 -29 -38 -50
t-43.5 -34t-44.5 -19.5t-41 -6.5q-43 0 -71.5 22t-46 56t-24.5 75.5t-7 80.5q0 58 10 127.5t25 135t32 117t31 73.5q36 59 64 59q40 0 35 -64q-13 -30 -29 -82.5t-29.5 -114t-22.5 -125t-9 -114.5q0 -25 2 -50t8 -45t16.5 -32.5t26.5 -12.5q14 0 33 12.5t33 35.5
q17 27 35 63t35.5 75.5t34 81t30.5 79.5q17 43 33 84.5t27 62.5z" />
    <glyph glyph-name="afii10043" unicode="&#x429;" horiz-adv-x="849" 
d="M806 59q-2 -11 5 -19.5t16 -16.5t16.5 -16.5t7.5 -20.5q0 -28 -31 -48q-25 -14 -55.5 -32t-60 -37t-56 -37t-42.5 -31q-20 -16 -36.5 -30t-32 -27t-31 -25t-34.5 -24q-11 3 -5.5 19.5t20.5 40t37 49.5t43 48l37 37t45 44.5t45 42t37 28.5q3 3 5 7t-2 9q-10 14 -10 42
q0 20 5 48.5t13 60.5q-36 -38 -75.5 -52.5t-68.5 -14.5q-32 0 -54 12.5t-36.5 33.5t-23 48.5t-11.5 57.5q-20 -48 -42.5 -91.5t-37.5 -69.5q-17 -29 -38 -50t-43.5 -34t-44.5 -19.5t-41 -6.5q-43 0 -71.5 22t-46 56t-24.5 75.5t-7 80.5q0 58 10 127.5t25 135t32 117t31 73.5
q36 59 64 59q40 0 35 -64q-13 -30 -29 -82.5t-29.5 -114t-22.5 -125t-9 -114.5q0 -25 2 -50t8 -45t16.5 -32.5t26.5 -12.5q14 0 33 12.5t33 35.5q17 27 35 63t35.5 75.5t34 81t30.5 79.5q17 43 33 84.5t27 62.5q8 16 25.5 27t34.5 12.5t29.5 -9t11.5 -38.5
q-10 -63 -21.5 -134.5t-11.5 -140.5q0 -42 7.5 -71t28.5 -29q16 0 35.5 12t39 31t38.5 42.5t34 45.5q21 30 37 51q11 15 30.5 23t42.5 -4q24 -17 21 -45q-2 -15 -6.5 -35.5t-11 -44.5t-14 -50t-14.5 -51q-10 -35 -17.5 -66.5t-10.5 -51.5z" />
    <glyph glyph-name="afii10044" unicode="&#x42a;" horiz-adv-x="765" 
d="M574 207q0 30 -28.5 52.5t-73 39.5t-99.5 29t-107 20q-16 -74 -27.5 -140.5t-25.5 -136.5q-10 -42 -22.5 -62.5t-23.5 -20.5q-12 0 -24.5 24t-14.5 62q-2 36 -1 66.5t5 63t11 71t16 91.5q-6 2 -8 2q-23 16 -23 44q0 14 9 27.5t34 20.5l10 -1q12 48 26 93t30 84
q-35 -1 -68.5 -3.5t-61 -5.5t-46 -5.5t-24.5 -4.5q-30 5 -42.5 15t-12.5 26q0 13 9.5 24.5t25.5 22.5q4 3 31 7.5t66 9t86.5 8.5t94.5 6q15 9 32 9t29 -12q8 -6 13 -18.5t4 -42.5q-26 -42 -47 -100.5t-39 -124.5q51 -7 108 -20t108.5 -34t93.5 -49.5t63 -67.5q20 -32 20 -71
q0 -54 -29 -89.5t-73 -58.5q-35 -19 -76 -31t-81 -19t-76 -9.5t-61 -2.5q-13 0 -26.5 1t-24 4t-17 7.5t-6.5 11.5q0 4 8 11.5t20 15.5t27 15.5t30 12.5q34 10 81.5 20t91.5 24.5t75 35.5t31 53z" />
    <glyph glyph-name="afii10045" unicode="&#x42b;" horiz-adv-x="986" 
d="M551 208q0 30 -28.5 52.5t-73 39.5t-99.5 29t-107 20q-16 -74 -27.5 -140.5t-25.5 -136.5q-10 -42 -22.5 -62.5t-23.5 -20.5q-12 0 -24.5 24t-14.5 62q-2 36 -1 66.5t5 63t11 71t16 91.5q-6 2 -8 2q-23 16 -23 44q0 14 9 27.5t34 20.5l10 -1q20 79 45 147.5t54 117.5
q21 21 47 21q20 0 34.5 -16.5t11.5 -56.5q-26 -42 -47 -100.5t-39 -124.5q62 -9 131 -26t127 -46t96 -70.5t38 -98.5q0 -45 -22 -78.5t-57 -57t-78.5 -38t-87.5 -23t-83.5 -11.5t-66.5 -3q-13 0 -26.5 1t-24 4t-17 7.5t-6.5 11.5q0 4 8 11.5t20 15.5t27 15.5t30 12.5
q34 10 81.5 20t91.5 24.5t75 35.5t31 53zM1002 726q-29 -49 -50 -106.5t-37.5 -118t-29 -121.5t-23.5 -116q-10 -50 -18 -92.5t-19 -81.5q-8 -27 -15.5 -51t-14.5 -42t-13.5 -28t-13.5 -10q-9 0 -18.5 24.5t-9.5 78.5q2 42 6.5 94.5t9.5 106.5q5 57 19 128.5t34 143t45 136
t52 107.5q13 3 27.5 2t27.5 -7t24 -17.5t17 -29.5z" />
    <glyph glyph-name="afii10046" unicode="&#x42c;" horiz-adv-x="765" 
d="M551 208q0 30 -28.5 52.5t-73 39.5t-99.5 29t-107 20q-16 -74 -27.5 -140.5t-25.5 -136.5q-10 -42 -22.5 -62.5t-23.5 -20.5q-12 0 -24.5 24t-14.5 62q-2 36 -1 66.5t5 63t11 71t16 91.5q-6 2 -8 2q-23 16 -23 44q0 14 9 27.5t34 20.5l10 -1q20 79 45 147.5t54 117.5
q21 21 47 21q20 0 34.5 -16.5t11.5 -56.5q-26 -42 -47 -100.5t-39 -124.5q62 -9 131 -26t127 -46t96 -70.5t38 -98.5q0 -45 -22 -78.5t-57 -57t-78.5 -38t-87.5 -23t-83.5 -11.5t-66.5 -3q-13 0 -26.5 1t-24 4t-17 7.5t-6.5 11.5q0 4 8 11.5t20 15.5t27 15.5t30 12.5
q34 10 81.5 20t91.5 24.5t75 35.5t31 53z" />
    <glyph glyph-name="afii10047" unicode="&#x42d;" horiz-adv-x="641" 
d="M195 719q70 -1 140.5 -25.5t127.5 -69.5t93.5 -107.5t38.5 -138.5h9q13 -10 19.5 -22.5t5 -25.5t-11 -24.5t-27.5 -18.5h-9q-16 -48 -47 -88.5t-72 -73t-88.5 -57.5t-96 -41.5t-95 -25.5t-85.5 -9q-7 0 -23 2.5t-32.5 6t-29 9t-12.5 11.5q0 4 8.5 10.5t22.5 12.5
t33.5 11.5t41.5 8.5q65 9 125 29.5t110 50.5t86.5 69t54.5 84q-66 5 -136.5 4t-131.5 -4q-11 0 -25.5 1t-28.5 3.5t-24 6t-12 9.5q0 5 9 12.5t22 15t28.5 14t28.5 9.5q51 12 105 15t120 3h29t29 -1q-5 57 -38.5 101t-81.5 74.5t-103 46t-104 15.5q-47 30 -38 58t60 39h5z
" />
    <glyph glyph-name="afii10048" unicode="&#x42e;" horiz-adv-x="866" 
d="M754 703q31 -25 44 -61t13 -81q0 -60 -19.5 -128.5t-45.5 -128.5q-21 -47 -56 -101.5t-79.5 -101t-97.5 -78.5t-110 -33q-28 0 -53.5 8.5t-44.5 27t-30 48.5t-11 73q0 67 20 133q-38 -3 -64 -5.5t-47 -6.5q-7 -31 -14.5 -70.5t-13.5 -76.5q-4 -26 -11 -54t-14.5 -51.5
t-15 -38.5t-13.5 -15t-11.5 8t-9.5 20.5t-7 29t-3 33.5q-2 82 8 163.5t26 156.5t36 139.5t38 112.5t30 75.5t14 29.5q16 10 31 14t26.5 -1.5t19 -20t7.5 -39.5q-35 -76 -62.5 -157.5t-41.5 -158.5q35 3 65 6t62 5q9 22 17.5 40.5t17.5 37.5q14 32 41.5 76.5t59.5 87.5
t64.5 77t56.5 45q13 5 25 8.5t24 3.5q36 0 44 -27h8q23 0 40 -5t37 -19zM665 645q-42 0 -76.5 -24.5t-62 -61t-49 -78t-37.5 -74.5q-11 -25 -25 -58.5t-26.5 -68.5t-21 -70t-8.5 -63q0 -34 14 -49t34 -15q37 0 73 25t67.5 61t56.5 75.5t40 68.5q15 30 28.5 63.5t24 68
t16.5 67t6 59.5q0 38 -12.5 56t-41.5 18z" />
    <glyph glyph-name="afii10049" unicode="&#x42f;" horiz-adv-x="815" 
d="M303 401q43 -14 101.5 -27.5t110.5 -23.5q20 83 41 151.5t40 105.5q-40 -9 -92 -23t-101.5 -31.5t-90.5 -38.5t-59 -43q-8 -12 -7.5 -22t8 -18.5t20 -16t29.5 -13.5zM61 107q80 57 156.5 101.5t154.5 72.5q-35 5 -70 13.5t-64 19.5q-34 12 -58.5 30t-35.5 41.5t-6.5 52
t28.5 62.5t64 61.5t87.5 49t97.5 38t95 29t81 20t54 12.5q5 9 12.5 20.5t12.5 19.5q25 14 46 8t30 -29l71 10q31 -9 40 -22.5t1.5 -27.5t-27 -26t-44.5 -18l-48 -9q-15 -26 -35 -67.5t-39.5 -90t-36 -98.5t-23.5 -92l-55 -258q-9 -62 -23 -84.5t-25 -4.5q-7 11 -15 39t-8 64
q0 35 2 79.5t10 95.5q-8 -2 -14.5 -3.5t-14.5 -3.5q-63 -18 -121 -42.5t-106 -49t-84 -46t-55 -34.5q-7 -5 -22.5 -15t-33.5 -21t-35.5 -20t-30 -11.5t-17 3.5t4.5 26q3 6 12 18.5t22 27t29.5 30t35.5 29.5z" />
    <glyph glyph-name="afii10065" unicode="&#x430;" horiz-adv-x="769" 
d="M684 78q15 -19 27.5 -30t21.5 -17t14.5 -9.5t5.5 -7.5q0 -5 -6 -8.5t-15 -3.5q-11 0 -31.5 5t-45 19t-49.5 40t-46 68q-27 -22 -74 -47t-100.5 -46t-106.5 -35t-91 -14q-21 0 -42.5 4t-39.5 14.5t-29.5 29.5t-11.5 49q0 35 34 75.5t86 75t113 57t115 22.5q17 0 30.5 -0.5
t24.5 -4.5q19 -12 24 -27.5t1 -31t-15.5 -29t-26.5 -21.5h-12q-5 0 -12.5 0.5t-16.5 0.5q-31 0 -64 -10t-63 -25.5t-55 -33.5t-40 -34q41 0 80.5 10t76.5 25t70.5 33t62 33t52 25t39.5 10q25 0 38.5 -15t23.5 -38.5t21 -52t32 -55.5z" />
    <glyph glyph-name="afii10066" unicode="&#x431;" horiz-adv-x="524" 
d="M697 769q20 2 33.5 3t27.5 1q36 0 53 -4.5t17 -9.5q0 -4 -11 -9t-28 -11t-38 -12.5t-42 -13.5q-61 -21 -98 -63t-59.5 -97t-35.5 -118t-26.5 -125t-32 -120t-52.5 -102t-88 -70.5t-138 -26.5q-24 0 -48.5 8t-44.5 24.5t-33 41.5t-13 58q0 48 30 83.5t71 58t82.5 34
t64.5 11.5q22 -2 38 -13t21.5 -27t-1.5 -33.5t-31 -31.5q0 1 -26.5 -2.5t-58.5 -14t-58.5 -28t-26.5 -45.5q0 -8 9.5 -13t26.5 -5q62 0 99.5 26.5t59.5 70.5t34.5 101t25 117.5t29.5 120t49.5 108.5t84.5 83.5t134 44.5z" />
    <glyph glyph-name="afii10067" unicode="&#x432;" horiz-adv-x="578" 
d="M463 755q36 7 58 -8.5t22 -53.5q-2 -1 -2.5 -2t-9 -10.5t-28 -32t-59.5 -66.5q20 0 36.5 -10t28 -26t18 -36t6.5 -41q0 -34 -15.5 -58t-36 -40.5t-41.5 -27t-32 -16.5q-2 -1 -5 -3t2 -9q9 -14 25 -32.5t35 -41.5q22 -26 29.5 -52.5t7.5 -46.5q0 -48 -23 -77t-55.5 -45
t-67 -21.5t-57.5 -5.5q-48 2 -69 6.5t-21 11.5q0 8 22.5 17.5t51.5 20.5q33 12 55.5 22t36.5 21t20 24.5t6 31.5q0 15 -8 26.5t-21.5 25t-30 32t-34.5 46.5q0 6 -5.5 18t-5.5 29q0 16 4.5 27t11 19.5t14 14t12.5 10.5q14 12 31 23.5t32 21.5t25.5 17.5t10.5 10.5q0 6 -4 10
t-7 4q-16 0 -30.5 -7t-27 -18t-23 -24.5t-19.5 -25.5q-40 -58 -76 -131.5t-69.5 -159t-65 -181t-61.5 -197.5q-15 -52 -22.5 -74.5t-14.5 -22.5q-6 0 -11.5 28.5t-5.5 75.5q0 86 19 179t52.5 186.5t78.5 184.5t96.5 174.5t106.5 156t110 128.5z" />
    <glyph glyph-name="afii10068" unicode="&#x433;" horiz-adv-x="427" 
d="M239 54q9 0 23 0.5t30 1t30 1t23 0.5q29 0 39 -6.5t6.5 -15.5t-18 -18.5t-33.5 -16.5q-30 -11 -71.5 -19t-81.5 -8q-69 0 -105 28.5t-27 76.5q4 24 20 41.5t38 31.5t47.5 25t48.5 20q6 3 20.5 7.5t29.5 9.5t26.5 9t10.5 6q-2 3 -22 5t-50 2q-28 0 -46 -4.5t-43 -7.5
q-16 7 -25 18.5t-9.5 25t8.5 26.5t28 22q13 3 37.5 7.5t59.5 4.5q19 0 47.5 -5t55 -15.5t45.5 -27t19 -40.5q0 -22 -15 -40t-38 -33t-49.5 -28t-50.5 -23q-8 -3 -22 -8t-28.5 -10.5t-25.5 -11.5t-12 -11q-2 -10 18.5 -15t61.5 -5z" />
    <glyph glyph-name="afii10069" unicode="&#x434;" horiz-adv-x="673" 
d="M611 18q-15 -83 -55 -155t-97 -130.5t-126 -102.5t-143 -71q-47 -17 -77 -23t-48 -6.5t-25 3t-7 6.5q0 2 7 6t18.5 9.5t26 12.5t29.5 15q68 36 133 87t117.5 111.5t88.5 127.5t47 135q-68 -14 -137 -30.5t-142 -16.5q-36 0 -72 6t-65 20.5t-47 37.5t-18 57q0 41 26.5 78
t69 65t95.5 44.5t107 16.5q55 0 98 -10.5t73.5 -24t48 -26.5t22.5 -17q7 -19 7 -35.5t-9 -28.5t-28 -17.5t-49 -0.5q-36 30 -74 39.5t-86 9.5q-35 0 -68.5 -10t-59.5 -23t-42 -27t-16 -21q0 -6 7.5 -10t18.5 -7t22.5 -5t19.5 -3q56 -5 106.5 6.5t110.5 25.5q19 5 35 8.5
t27 3.5q39 0 66 -10.5t43 -28t21 -41t0 -50.5z" />
    <glyph glyph-name="afii10070" unicode="&#x435;" horiz-adv-x="606" 
d="M277 -7q-21 0 -48 3.5t-54 13t-50 28t-36 48.5h-13q-12 7 -19.5 18.5t-8.5 25t5 26.5t23 23h13q18 47 56 82.5t86 58.5t103 34.5t108 10.5q16 0 38.5 -3t42.5 -11t34 -23.5t14 -41.5q0 -30 -21 -55t-54 -46t-75 -38t-83.5 -28.5t-79 -18.5t-62.5 -8q12 -12 37.5 -19.5
t55.5 -11t62 -5t58 -2.5t42.5 -2.5t16.5 -5.5q0 -5 -14 -14t-39 -17.5t-60 -15t-78 -6.5zM206 185q67 10 127.5 30.5t108.5 50.5q-40 0 -78.5 -7t-71 -18t-55 -26t-31.5 -30z" />
    <glyph glyph-name="afii10072" unicode="&#x436;" horiz-adv-x="728" 
d="M360 48q-15 -35 -28 -71.5t-24 -74.5q-6 -21 -14 -39.5t-16 -33t-15 -23t-12 -8.5t-9.5 9t-7.5 22.5t-4.5 28t-0.5 26.5q0 15 2.5 36.5t7 44.5t10 45t12.5 39q-26 -12 -52 -26.5t-50 -29t-44.5 -28.5t-35.5 -25q-30 -23 -49.5 -35t-28.5 -17q-20 -11 -26 -6t-1.5 20.5
t18.5 39t35 50.5q20 25 46.5 47t56 41.5t60.5 35.5t60 28q-42 23 -84 36t-74 24q-31 34 -19 56t52 27q7 -1 25 -5.5t44 -13.5t58.5 -23t69.5 -34q18 39 41 85t50 94q14 8 25 11.5t19 3.5q16 0 24.5 -8t11 -20t1 -25t-4.5 -23q-11 -20 -19 -33.5t-15 -25t-13 -21.5t-13 -23
q63 23 120.5 38.5t109.5 16.5q37 -21 37 -47q0 -27 -39 -46q-33 -1 -71 -8t-74 -16t-65 -18t-42 -15q28 -15 64.5 -36.5t72 -49.5t64.5 -61.5t43 -72.5q2 -5 -0.5 -6t-7.5 2q-7 4 -19 12t-25 16t-24.5 15t-16.5 10q-42 25 -94.5 48.5t-101.5 39.5z" />
    <glyph glyph-name="afii10073" unicode="&#x437;" horiz-adv-x="439" 
d="M348 -23q-43 -26 -90.5 -52.5t-87.5 -58.5q-54 -45 -94 -81t-80 -71q-9 -8 -5.5 7.5t19 44.5t42.5 68t65 79q23 23 57 48.5t74 49.5q-13 5 -31 11.5t-27 11.5q-75 34 -75 78q0 13 12 28t33 29t51 25t66 17q-15 6 -28.5 8t-25.5 2q-23 0 -42 -4.5t-39 -10.5q-26 0 -48 10
t-22 30q0 9 7.5 22.5t24.5 29.5q23 9 51 14t57 5t57.5 -5.5t51.5 -15.5q40 -19 62 -40t22 -44q0 -14 -11.5 -27.5t-32 -26t-48 -24t-59.5 -21.5q9 -3 16.5 -6t15 -5.5t17 -5.5t23.5 -7q58 -17 58 -59q0 -30 -36 -53z" />
    <glyph glyph-name="afii10074" unicode="&#x438;" horiz-adv-x="536" 
d="M385 39q0 5 1 15t2.5 21t3.5 22t3 17q-23 -23 -49 -44t-53 -37t-54 -26t-52 -10q-68 0 -104.5 32.5t-36.5 104.5q0 34 11 72.5t47 91.5q15 17 28 24t23 7q21 0 28.5 -18.5t7.5 -45.5q-14 -29 -30.5 -59.5t-16.5 -65.5q0 -29 13.5 -40t30.5 -11q22 0 52.5 18t61 43
t58 52.5t42.5 46.5q17 22 36 34t33 12q24 0 29.5 -30t-12.5 -82q-11 -33 -18.5 -54.5t-13.5 -39t-11 -34.5t-10 -40q-4 -16 -7.5 -32.5t-8 -25.5t-10.5 -6t-15 26q-8 20 -8.5 34.5t-0.5 27.5z" />
    <glyph glyph-name="afii10075" unicode="&#x439;" horiz-adv-x="536" 
d="M382 39q0 5 1 15t2.5 21t3.5 22t3 17q-23 -23 -49 -44t-53 -37t-54 -26t-52 -10q-68 0 -104.5 32.5t-36.5 104.5q0 34 11 72.5t47 91.5q15 17 28 24t23 7q21 0 28.5 -18.5t7.5 -45.5q-14 -29 -30.5 -59.5t-16.5 -65.5q0 -29 13.5 -40t30.5 -11q22 0 52.5 18t61 43
t58 52.5t42.5 46.5q17 22 36 34t33 12q24 0 29.5 -30t-12.5 -82q-11 -33 -18.5 -54.5t-13.5 -39t-11 -34.5t-10 -40q-4 -16 -7.5 -32.5t-8 -25.5t-10.5 -6t-15 26q-8 20 -8.5 34.5t-0.5 27.5zM315 367q-61 0 -96 39t-40 101q5 12 15 18t24 6q11 0 26 -8.5t15 -20.5
q0 -5 3 -14t9.5 -17.5t17 -15t25.5 -6.5q27 0 50.5 6.5t45.5 18t42 26t41 30.5q18 14 36.5 24t27.5 15q17 8 20 1.5t1 -15.5q-2 -8 -8 -20.5t-12 -20.5q-18 -23 -41.5 -49t-53.5 -48t-66.5 -36t-81.5 -14z" />
    <glyph glyph-name="afii10076" unicode="&#x43a;" horiz-adv-x="667" 
d="M681 31q0 -11 -23 -19.5t-55.5 -14.5t-68.5 -9t-61 -3q-34 0 -72 2t-77 9t-76.5 19t-70.5 32q-7 -16 -20.5 -53.5t-29 -82.5t-30.5 -92t-25 -82q-14 -51 -24.5 -74t-17.5 -23t-10.5 15.5t-4.5 37.5t-0.5 46t1.5 40q4 60 18.5 131t38.5 147t57 155t73 156t86.5 149
t98.5 134q16 1 31 -2.5t26.5 -13t16.5 -25t2 -37.5q-26 -29 -77 -105.5t-120 -199.5q28 9 60 15.5t62 10.5t54.5 6t37.5 1q20 -15 24 -44t-18 -55q-5 -1 -23 -4t-42.5 -8t-53.5 -11t-55.5 -13t-48 -15.5t-31.5 -16.5q94 -28 175.5 -43t142 -24t95.5 -16.5t35 -19.5z" />
    <glyph glyph-name="afii10077" unicode="&#x43b;" horiz-adv-x="551" 
d="M380 7q-10 30 -9.5 58.5t-0.5 44.5q-22 -18 -51.5 -42t-62.5 -49.5t-68 -51t-67.5 -48t-61.5 -40.5t-50 -28q-30 -14 -56 -23.5t-44.5 -14t-28.5 -4.5t-9 6q0 4 12 14t28.5 21l33 22t26.5 18q16 10 46 33.5t68 55t79.5 69t79 75.5t67 73.5t44.5 64.5q6 10 15.5 19.5
t21 15.5t24 8t24.5 -2q14 -5 22.5 -14t13 -19.5t5.5 -21.5t0 -20q0 -20 -5 -42t-8.5 -45.5t-4 -46.5t8.5 -45q0 -14 -2 -28q-2 -12 -5 -25t-9 -21q-8 -10 -18.5 -9.5t-21.5 7t-20.5 16.5t-15.5 19z" />
    <glyph glyph-name="afii10078" unicode="&#x43c;" horiz-adv-x="818" 
d="M328 284q16 0 30.5 -11t24.5 -28t15 -38.5t3 -43.5q24 22 49.5 44t52 39t51.5 27t48 10q30 0 55 -14t43 -36t28 -50t10 -55q0 -41 -9 -84.5t-24 -84.5t-35 -77.5t-43 -64.5q-26 -32 -47 -53t-30 -22.5t-3 21.5t35 80q9 19 21 46.5t22 60.5t17 69.5t7 74.5q0 17 -3.5 33.5
t-11 29.5t-18 21t-23.5 8q-24 0 -52.5 -20t-56.5 -47.5t-53.5 -58t-44.5 -51.5q-23 -17 -41 -17.5t-30 9.5t-17.5 25.5t-3.5 29.5q8 26 13.5 59t2.5 59q-20 -12 -42 -35t-42.5 -49.5t-37.5 -53t-27 -46.5q-7 -10 -19 -20.5t-24.5 -18t-23.5 -11t-15 0.5q-6 5 -7 28t12 69
q9 25 27 54.5t40 58t47 54.5t48.5 44.5t45 28.5t36.5 6z" />
    <glyph glyph-name="afii10079" unicode="&#x43d;" horiz-adv-x="575" 
d="M436 95q-7 -27 -12 -45t-9 -40q-6 -34 -18.5 -51t-22.5 -17q-6 0 -13 8t-12.5 20t-8.5 25.5t-3 25.5q1 11 3.5 31.5t7.5 50.5q-29 1 -54.5 2.5t-50 2.5t-49.5 1t-54 -1q-9 -29 -14 -44.5t-9 -34.5q-9 -29 -23 -51t-28 -22q-3 0 -8 6.5t-9.5 16.5t-8 21.5t-3.5 20.5
q0 37 7.5 77.5t19.5 77.5t26 68t26 49q29 22 50 12.5t31 -34.5q-5 -14 -13 -35.5t-13 -33.5q58 -1 105 -4.5t94 -11.5q5 20 12.5 43t18.5 49q11 9 25 14t26.5 3t21.5 -13.5t9 -33.5q-7 -20 -13.5 -41.5t-14.5 -41.5q36 -12 64 -27.5t36 -28.5t-11 -19.5t-77 1.5z" />
    <glyph glyph-name="afii10080" unicode="&#x43e;" horiz-adv-x="640" 
d="M40 126q0 23 10.5 33t24.5 11q1 25 32 52.5t79 50t105.5 36.5t111.5 13q26 0 60 -7t64 -22.5t51 -42.5t21 -67q0 -48 -29 -83.5t-74.5 -58.5t-101.5 -34t-110 -11q-39 0 -82 6.5t-79 22t-59.5 40.5t-23.5 61zM179 195l-15 -6t-22 -9l-24 -10t-21 -8q5 -2 10 -5.5t10 -7.5
q10 -19 50.5 -32.5t101.5 -13.5q32 0 71 7t73 17.5t57 24t23 25.5t-12 19.5t-30.5 12t-41 6t-43.5 1.5q-45 0 -93.5 -4.5t-93.5 -16.5z" />
    <glyph glyph-name="afii10081" unicode="&#x43f;" horiz-adv-x="648" 
d="M93 305q15 7 31 8t30 -5.5t24.5 -19.5t13.5 -32q-8 -12 -15 -27q-7 -13 -14 -31.5t-14 -41.5q20 18 52.5 46.5t71 55t79.5 46t78 19.5t67.5 -10.5t52.5 -33t34 -58t12 -86.5q0 -45 -8 -77t-17.5 -52.5t-18 -30.5l-8.5 -10q-7 0 -15 31.5t-8 85.5q0 31 -9.5 56t-23.5 42.5
t-29 27t-26 9.5q-20 0 -47.5 -16t-58.5 -40.5t-63.5 -52.5t-63 -52.5t-56.5 -40.5t-43 -16t-30 8t-23 20t-15 27t-5 29q0 31 10.5 72.5t23.5 76.5t22.5 57t8.5 16z" />
    <glyph glyph-name="afii10082" unicode="&#x440;" horiz-adv-x="713" 
d="M367 321q14 0 40.5 -2.5t58 -9.5t64 -19t59.5 -30.5t44 -45t17 -62.5q0 -33 -18.5 -57.5t-48 -41t-66.5 -27t-73 -16.5t-67.5 -8t-50.5 -2q-32 0 -62 1t-52 6q-26 -58 -46 -120.5t-35.5 -114t-28 -85t-23.5 -33.5t-17 17.5t-8 46.5t0.5 67.5t9.5 81t17.5 86t25.5 82.5
q-49 22 -69 34.5t-20 20.5q0 5 11 7.5t28 2.5q10 0 32 -1t48 -2q18 43 40.5 81t45.5 66q-6 16 -3.5 33t12.5 34q6 1 15 3t24.5 3.5t38.5 2.5t57 1zM252 99q18 0 47 1.5t61 4.5t64.5 7t58 10t42 13.5t16.5 17.5q0 12 -22 22.5t-54.5 17.5t-69 10.5t-65.5 1.5
q-20 -24 -40 -47.5t-38 -58.5z" />
    <glyph glyph-name="afii10083" unicode="&#x441;" horiz-adv-x="738" 
d="M658 99l-22 -11t-46.5 -20.5t-65 -24.5t-78 -24t-85.5 -18t-87 -7q-38 0 -80.5 2t-78 13t-58.5 35t-23 68q0 38 25 71t64.5 60t87.5 47.5t93 34.5t82 21.5t55 7.5q14 -2 23.5 -16t12 -31t-2 -34.5t-18.5 -27.5q-71 -8 -128.5 -25.5t-97.5 -37.5t-61.5 -38t-21.5 -26
q0 -3 3.5 -6.5t15.5 -6.5t35.5 -4.5t63.5 -1.5q16 0 48 3.5t71.5 8t82 10.5t81 10.5t68.5 8t43 3.5q33 0 33 -11q0 -6 -6 -13.5t-28 -19.5z" />
    <glyph glyph-name="afii10084" unicode="&#x442;" horiz-adv-x="865" 
d="M330 307q48 0 71.5 -35.5t19.5 -87.5q24 27 50.5 53.5t56 47.5t62.5 34t70 13q49 0 81 -20t50.5 -48.5t26 -60t7.5 -54.5q0 -60 -17 -120t-40 -105q-33 -67 -55 -91t-29 -24q-6 0 -5.5 10t3.5 23.5t7.5 28t7.5 24.5q11 35 23.5 88.5t12.5 131.5q0 53 -22.5 81t-47.5 28
q-29 0 -56 -17t-53.5 -42t-51.5 -55t-50 -55t-49.5 -42t-48.5 -17q-31 0 -42.5 22t-13 52t3 60.5t7.5 47.5q-22 -14 -46 -38.5t-49.5 -48t-52.5 -41t-55 -17.5q-13 0 -25 7t-21 18t-14.5 24.5t-5.5 27.5q0 42 5.5 71t12 47t12.5 26l6 8q15 12 30.5 18.5t28.5 3t22.5 -18.5
t13.5 -45l-10 -30q17 14 38 34t43.5 38.5t45 31.5t42.5 13zM553 468q25 -2 53.5 -6.5t53 -11t43 -13.5t24.5 -12q0 -5 -8 -12.5t-20.5 -14t-30 -12t-36.5 -6.5q-35 -3 -75.5 -5.5t-82.5 -5t-82.5 -5t-76.5 -5.5q-26 -2 -45 -4t-35 -3.5t-30.5 -3t-31.5 -2.5q-14 5 -23 15
t-12 22t0.5 25t13.5 23q94 18 197.5 27t203.5 10z" />
    <glyph glyph-name="afii10085" unicode="&#x443;" horiz-adv-x="691" 
d="M516 326q33 0 52 -16t28.5 -39t12 -47.5t2.5 -41.5q0 -102 -34.5 -204.5t-100.5 -189.5t-162 -150.5t-219 -86.5q-11 -2 -27 -4.5t-31 -4t-25.5 -1t-10.5 4.5q0 7 13.5 16t35.5 20.5t50 25t57 30.5q72 41 135.5 102.5t110.5 134.5t74 154t27 161q-28 -31 -65 -66
t-78 -64.5t-84.5 -49t-84.5 -19.5q-15 0 -35 5t-38.5 19t-31.5 39.5t-13 66.5q0 14 3 35.5t7.5 44.5t10.5 45t13 37q15 15 32 21t31.5 1.5t24.5 -19t11 -40.5q-25 -63 -25 -131q0 -14 9 -14q33 0 64.5 16.5t60.5 41.5t56.5 54.5t52.5 54.5t47.5 41.5t43.5 16.5z" />
    <glyph glyph-name="afii10086" unicode="&#x444;" horiz-adv-x="850" 
d="M93 246q28 1 42.5 -3t20.5 -16q6 7 19 17t28.5 19t31.5 16.5t28 10.5q1 0 12 4t29 9t42 10t51 8q40 86 80 151.5t79 118t77 96.5t74 86q33 5 56 -10.5t24 -63.5q-1 0 -14.5 -15.5t-35.5 -42t-50.5 -62.5t-57.5 -77t-57.5 -86t-50.5 -89q35 -3 77.5 -10t79 -21.5t61.5 -38
t25 -59.5q0 -48 -36.5 -85t-92.5 -62.5t-123 -39t-128 -13.5q-2 -7 -12 -33.5t-23 -62.5t-27.5 -76.5t-24.5 -75.5q-17 -56 -25.5 -81.5t-16.5 -25.5q-4 0 -6.5 10.5t-4 25t-2.5 30t-1 25.5q0 61 11.5 129t20.5 129q-51 1 -97.5 9t-88.5 28q-10 5 -22.5 13t-23 20.5
t-17.5 29.5t-7 39q0 42 24.5 69.5t51.5 45.5zM161 214q3 -17 3 -40q-3 -3 -9 -7.5t-11 -10.5t-9 -11.5t-4 -9.5q0 -9 17 -16.5t42.5 -12t56 -7t57.5 -2.5q9 29 23 65t32 78q-34 0 -64.5 -4t-56 -9t-45 -9t-30.5 -4h-2zM651 190q-14 9 -38.5 16.5t-51.5 12t-51.5 7t-38.5 2.5
q-14 -33 -27 -61.5t-23 -56.5q33 0 71 8.5t71.5 20.5t57.5 26t30 25z" />
    <glyph glyph-name="afii10087" unicode="&#x445;" horiz-adv-x="778" 
d="M555 -12q-15 0 -40.5 15t-53.5 35t-55 40.5t-46 32.5q-47 -20 -99 -40t-97 -37t-78 -27.5t-42 -10.5q-13 0 -13 9q0 13 21 36t53.5 48.5t70.5 50t72 40.5q-20 9 -37 14.5t-37 9.5q-8 31 -2.5 58.5t27.5 47.5q2 0 19.5 -5t43 -14.5t55.5 -23.5t58 -33q36 16 82 28.5
t92 21.5t88 14.5t70 5.5q21 -25 21 -49.5t-15 -56.5q-53 -2 -116 -13t-113 -30q21 -20 40 -49t30 -55t12.5 -44.5t-11.5 -18.5z" />
    <glyph glyph-name="afii10088" unicode="&#x446;" horiz-adv-x="527" 
d="M332 -18q0 15 4 37t12 51q-40 -36 -84 -58.5t-88 -22.5q-69 0 -105.5 33t-36.5 106q0 34 11.5 72.5t46.5 91.5q16 18 29 25t24 7q22 0 32.5 -19.5t10.5 -48.5q-2 -5 -6.5 -12.5l-7.5 -12.5q-11 -20 -24.5 -45.5t-13.5 -51.5q0 -27 12.5 -37.5t28.5 -10.5q21 0 51 17.5
t60 42.5t57 52t43 46v-1q18 23 37 35t33 12q27 0 35 -26.5t-15 -88.5l1 1q-18 -52 -32.5 -99.5t-21.5 -92.5q-2 -11 2.5 -23t15.5 -23t20 -23t9 -31q0 -16 -9.5 -30.5t-31.5 -27.5q-17 -10 -26.5 -15.5t-15.5 -9.5t-9.5 -7.5t-8.5 -7.5q-36 -29 -61 -51.5t-40 -36.5
q-5 -3 -10.5 -7t-8.5 -6q-8 -5 -14 4.5t-3.5 29.5t17 49t48.5 64q19 20 36 32.5t32 22.5q-20 25 -28 53t-7 42z" />
    <glyph glyph-name="afii10089" unicode="&#x447;" horiz-adv-x="539" 
d="M354 17q3 7 8 22t11 34t12 40.5t11 41.5q-27 -25 -58 -45.5t-63 -34.5q-23 -10 -51 -16.5t-54 -6.5q-40 0 -72 18t-48 63q-10 30 -10 63v22t2 21q9 32 22 44.5t27 12.5q18 0 30 -15.5t19 -37.5v-37v-16.5t2 -14.5q3 -13 14 -18t25 -5q17 0 35.5 5.5t32.5 12.5
q53 28 84.5 54t51.5 45t34.5 29t32.5 10q28 0 39 -17.5t11 -46.5q0 -28 -10.5 -68t-25 -79t-28 -70.5t-19.5 -42.5l-8 -15q-8 -14 -16 -27.5t-16.5 -24.5t-16 -18t-14.5 -7q-23 0 -23 27.5t29 97.5z" />
    <glyph glyph-name="afii10090" unicode="&#x448;" horiz-adv-x="750" 
d="M565 -45q-13 22 -13 50q0 18 4 34q-23 -14 -43 -19t-41 -5q-48 0 -73.5 21.5t-34.5 55.5q-14 -24 -29 -44.5t-26 -32.5q-33 -33 -63 -44t-55 -11q-30 0 -51.5 17t-34.5 43t-17 55.5t-1 55.5q5 33 15 67t22.5 64t25.5 53.5t23 36.5q24 24 46 24q24 0 33 -21.5t2 -52.5
q-14 -26 -30.5 -64.5t-24.5 -82.5q-1 -9 -2 -20.5t-1 -22.5q0 -17 3 -33.5t13 -17.5q5 2 10.5 5t12.5 11v-1q25 29 50 72t48 82q14 25 26.5 47t23.5 36q10 14 22.5 20.5t24.5 6.5q20 0 33 -14.5t11 -35.5q-1 -6 -2 -11t-3 -11q-5 -22 -10 -49t-7 -68q-1 -20 5 -31.5
t17 -11.5q26 0 49 21.5t45 44.5q11 11 20 21.5t20 19.5q10 7 23.5 13.5t33.5 -1.5h-1q6 -2 12 -9t10.5 -15t7 -16t1.5 -12q-6 -20 -15 -41t-19 -42q-14 -30 -26 -62t-16 -64q-6 -38 -19 -39t-33 25zM212 -79q65 8 131.5 10t134.5 2q27 -2 57.5 -7t57.5 -11.5t46 -14.5
t22 -14q0 -12 -27.5 -28t-70.5 -21h1q-8 -2 -30.5 -3t-54.5 -3h-20.5t-21.5 -1q-28 -1 -57.5 -2t-57 -2.5t-52 -3t-42.5 -3.5q-40 -5 -69.5 -10t-47.5 -9q-10 -3 -19.5 -4t-14.5 -1q-8 5 -20.5 17.5t-14.5 30.5q-2 11 2 20.5t12 23.5l24 7q23 6 57 14t75 13z" />
    <glyph glyph-name="afii10091" unicode="&#x449;" horiz-adv-x="818" 
d="M697 165q-17 -53 -33 -110t-24 -102q-2 -11 1 -22t14 -21q11 -11 20.5 -23.5t9.5 -31.5q0 -15 -9.5 -30t-32.5 -27q-17 -10 -26.5 -15.5t-15.5 -9.5t-9.5 -7.5t-8.5 -7.5q-35 -29 -60.5 -51.5t-40.5 -36.5l-19 -14q-8 -4 -14 5.5t-3 29t17.5 48.5t48.5 64q19 20 36 33
t31 23q-10 12 -16.5 25.5t-11 26.5t-6 24t-1.5 18q1 16 3.5 35t9.5 44q-23 -15 -42 -19.5t-41 -4.5q-48 0 -73.5 21.5t-34.5 55.5q-14 -24 -29 -44.5t-26 -32.5q-33 -33 -63 -44t-55 -11q-30 0 -51.5 17t-34.5 43t-17 55.5t-1 55.5q5 33 15 67t22.5 64t25.5 53.5t23 36.5
q24 24 46 24q24 0 33 -21.5t2 -52.5q-14 -26 -30.5 -64.5t-24.5 -82.5q-1 -9 -2 -20.5t-1 -22.5q0 -17 3 -33.5t13 -17.5q5 2 10.5 5t12.5 11v-1q25 29 50 72t48 82q14 25 26.5 47t23.5 36q10 14 22.5 20.5t24.5 6.5q20 0 33 -14.5t11 -35.5q-1 -6 -2 -11t-3 -11
q-5 -22 -10 -49t-7 -68q-1 -20 5 -31.5t17 -11.5q13 0 26 6.5t25.5 17t24.5 23t23 25.5v-1q14 17 20 22.5t12 11.5q9 8 21 15t26 7q17 0 30.5 -12t13.5 -42z" />
    <glyph glyph-name="afii10092" unicode="&#x44a;" horiz-adv-x="509" 
d="M382 124q0 12 -17 24.5t-43 23.5t-57.5 19t-61.5 12q-11 -38 -22.5 -76t-19.5 -76q-7 -28 -15 -46t-22 -21q-11 -3 -23 18.5t-14 54.5q0 16 2 36.5t5 43t7.5 45t9.5 42.5l-8 2q-17 15 -17 34q0 12 8 23.5t27 18.5h8q5 20 11 40t14 38q-31 -2 -56 -5t-41 -5q-2 0 -6 -0.5
t-6 -0.5q-35 2 -48.5 10.5t-13.5 23.5q0 14 11.5 23.5t27.5 18.5q7 3 27 7t47 8t57.5 7t59.5 4q11 5 22.5 4.5t20.5 -7.5t14 -21.5t4 -36.5q-16 -24 -26.5 -53.5t-20.5 -63.5q39 -6 83 -19t81 -34t61.5 -50t24.5 -67q0 -36 -22.5 -60.5t-55.5 -40t-70 -22.5t-65 -8h-26.5
t-30 2.5t-25 7t-10.5 13.5q0 6 7.5 12t19.5 10.5t26 8.5t25 6q18 3 41 9.5t43.5 15.5t34 21t13.5 26z" />
    <glyph glyph-name="afii10093" unicode="&#x44b;" 
d="M480 74q0 23 5 66.5t14.5 96t22.5 110t28 108.5q11 11 28.5 15.5t33 1t25.5 -17.5t7 -41l-10 -40t-10 -38q-14 -57 -30.5 -121t-33.5 -145q-9 -35 -25 -56t-24 -21q-17 0 -24 22t-7 60zM340 124q0 12 -17 24.5t-43 23.5t-57.5 19t-61.5 12q-11 -38 -22.5 -76t-19.5 -76
q-7 -28 -15 -46t-22 -21q-11 -3 -23 18.5t-14 54.5q0 16 2 36.5t5 43t7.5 45t9.5 42.5l-8 2q-17 15 -17 34q0 12 8 23.5t27 18.5h8q11 45 27 83.5t33 68.5q11 13 26.5 18.5t29 1.5t22.5 -19.5t7 -44.5q-16 -24 -26.5 -53.5t-20.5 -63.5q39 -6 83 -19t81 -34t61.5 -50
t24.5 -67q0 -36 -22.5 -60.5t-55.5 -40t-70 -22.5t-65 -8h-26.5t-30 2.5t-25 7t-10.5 13.5q0 6 7.5 12t19.5 10.5t26 8.5t25 6q18 3 41 9.5t43.5 15.5t34 21t13.5 26z" />
    <glyph glyph-name="afii10094" unicode="&#x44c;" horiz-adv-x="497" 
d="M360 124q0 12 -17 24.5t-43 23.5t-57.5 19t-61.5 12q-11 -38 -22.5 -76t-19.5 -76q-7 -28 -15 -46t-22 -21q-11 -3 -23 18.5t-14 54.5q0 16 2 36.5t5 43t7.5 45t9.5 42.5l-8 2q-17 15 -17 34q0 12 8 23.5t27 18.5h8q11 45 27 83.5t33 68.5q11 13 26.5 18.5t29 1.5
t22.5 -19.5t7 -44.5q-16 -24 -26.5 -53.5t-20.5 -63.5q39 -6 83 -19t81 -34t61.5 -50t24.5 -67q0 -36 -22.5 -60.5t-55.5 -40t-70 -22.5t-65 -8h-26.5t-30 2.5t-25 7t-10.5 13.5q0 6 7.5 12t19.5 10.5t26 8.5t25 6q18 3 41 9.5t43.5 15.5t34 21t13.5 26z" />
    <glyph glyph-name="afii10095" unicode="&#x44d;" horiz-adv-x="584" 
d="M534 134q0 -12 -8 -24t-22 -17q-4 0 -6 1q-13 -32 -39.5 -53t-60.5 -34t-73 -18.5t-77 -5.5q-71 0 -115 9.5t-68.5 21t-33 22t-8.5 12.5q0 5 10 7.5t27 3t40 0.5t48 1q35 1 73.5 3.5t72.5 8t59 14t33 22.5q-45 5 -88 9t-77 8.5t-54.5 10t-20.5 11.5q0 16 40.5 24.5
t135.5 3.5l72 -4q-5 18 -28.5 33.5t-55.5 28.5t-68.5 24t-67.5 20t-52.5 16t-23.5 13q1 6 9.5 11t21 8t29 4.5t33.5 1.5q43 0 68 -2.5t50 -7.5q31 -7 63.5 -18.5t59.5 -30t46.5 -44.5t25.5 -62h16q14 -12 14 -32z" />
    <glyph glyph-name="afii10096" unicode="&#x44e;" horiz-adv-x="644" 
d="M364 -1q-26 0 -54 5t-53 16t-44.5 30t-26.5 46q-14 -2 -25.5 -3.5t-22.5 -3.5q-1 -2 -0.5 -3t-0.5 -3l-6 -16q-7 -28 -23.5 -48t-26.5 -20q-5 0 -11.5 2.5t-12.5 10.5t-10.5 24t-4.5 42q0 11 5 39t14 56q7 21 19 50t23.5 55.5t21.5 45.5t15 20q34 6 77 -43
q-14 -27 -28 -56.5t-25 -63.5q8 2 17 2.5t19 1.5q12 13 34.5 32t55 36.5t73.5 30t91 12.5q25 0 52.5 -7t50 -22t37 -38t14.5 -56q0 -50 -27 -83t-65 -53.5t-80 -29t-72 -8.5zM517 167q0 10 -7 17t-17 11.5t-22.5 6t-22.5 1.5q-23 0 -48 -3t-49 -9t-46 -15.5t-38 -22.5
q3 -9 3 -21q0 -5 4.5 -11.5t14.5 -12t26.5 -9.5t40.5 -4q22 0 50 4.5t52.5 13.5t41.5 22.5t17 31.5z" />
    <glyph glyph-name="afii10097" unicode="&#x44f;" horiz-adv-x="509" 
d="M392 353q20 12 38.5 12t29.5 -14q12 2 20 1.5t13 -0.5q24 -6 34.5 -17t9.5 -24t-12.5 -25.5t-29.5 -19.5l-42 -7q-6 -12 -16.5 -40t-22 -64t-23 -78t-19.5 -83q-5 -26 -16.5 -44.5t-19.5 -18.5q-11 0 -18.5 19t-9.5 63q0 5 2 28t4 45q-56 -11 -109 -35t-104 -44
q-23 -7 -53 -14.5t-49 -7.5t-18 11.5t40 41.5q37 29 85.5 51t102.5 45q-39 12 -58.5 29t-19.5 36t23 40t59 39.5t81 33.5t90 23zM238 204q0 -3 22 -9.5t76 -11.5q5 20 7 31t8 27q-51 -12 -82 -22.5t-31 -14.5z" />
    <glyph glyph-name="afii10071" unicode="&#x451;" horiz-adv-x="606" 
d="M277 -7q-21 0 -48 3.5t-54 13t-50 28t-36 48.5h-13q-12 7 -19.5 18.5t-8.5 25t5 26.5t23 23h13q18 47 56 82.5t86 58.5t103 34.5t108 10.5q16 0 38.5 -3t42.5 -11t34 -23.5t14 -41.5q0 -30 -21 -55t-54 -46t-75 -38t-83.5 -28.5t-79 -18.5t-62.5 -8q12 -12 37.5 -19.5
t55.5 -11t62 -5t58 -2.5t42.5 -2.5t16.5 -5.5q0 -5 -14 -14t-39 -17.5t-60 -15t-78 -6.5zM206 185q67 10 127.5 30.5t108.5 50.5q-40 0 -78.5 -7t-71 -18t-55 -26t-31.5 -30zM456 448q11 22 36 38.5t49 16.5q2 -1 7 -3t10.5 -7t9.5 -14t5 -24l-5.5 -16.5t-10.5 -21
t-17.5 -18.5t-26.5 -8q-18 0 -29.5 5.5t-17.5 13t-8.5 15t-2.5 12.5q0 8 1 11zM235 444q3 12 12.5 22t21.5 17t25.5 11t25.5 4q2 -1 7 -3t10.5 -7t9.5 -13.5t5 -23.5q-2 -7 -5.5 -18t-11 -21t-20.5 -17t-33 -7q-15 0 -24.5 5.5t-15 13t-7.5 15t-2 11.5q0 5 2 11z" />
    <glyph glyph-name="afii10099" unicode="&#x452;" horiz-adv-x="587" 
d="M416 203q-17 0 -43 -17.5t-55 -43t-58 -53.5t-52 -49q-7 -7 -17 -15.5t-22 -16t-25.5 -13t-27.5 -5.5q-25 0 -38 10.5t-19 24.5t-6.5 27.5t-0.5 20.5q0 43 14 102.5t35 124.5l-63 -16q-29 12 -35 41t12 57q32 11 60.5 17.5t64.5 12.5q19 50 49 104.5t59.5 100.5t52 77
t28.5 33q21 9 38.5 9.5t27.5 -8t11 -26.5t-10 -46q-8 -7 -23 -27.5t-34 -51t-40.5 -69.5t-42.5 -83q19 1 40 1h55q25 0 52 -4.5t49.5 -11t37.5 -15t15 -16.5q0 -6 -8.5 -13t-23 -13t-34 -10.5t-41.5 -4.5q-50 -2 -95.5 -6t-90.5 -9q-17 -48 -30.5 -96t-20.5 -92q28 27 59 56
t64 53t68 40t71 16q34 0 58 -13t39 -34.5t22 -50.5t7 -60q0 -59 -21.5 -120t-57 -115t-81 -97t-93.5 -65q-28 -13 -48 -18.5t-43 -6.5q0 5 8.5 12.5t20.5 15t24.5 15t20.5 13.5q38 30 71.5 71t58.5 87.5t39.5 96t14.5 94.5q0 12 -1.5 26t-6 25.5t-14 19t-25.5 7.5z" />
    <glyph glyph-name="afii10100" unicode="&#x453;" horiz-adv-x="427" 
d="M357 574q5 16 18.5 22.5t19.5 6.5q5 0 14.5 -2.5t18.5 -7.5t15.5 -14t6.5 -21q0 -11 -8 -22t-16 -19q-45 -44 -70 -69t-39 -26q-8 0 -14 7t-6 17t7.5 28.5t17.5 38t20 36.5t15 25zM239 54q9 0 23 0.5t30 1t30 1t23 0.5q29 0 39 -6.5t6.5 -15.5t-18 -18.5t-33.5 -16.5
q-30 -11 -71.5 -19t-81.5 -8q-69 0 -105 28.5t-27 76.5q4 24 20 41.5t38 31.5t47.5 25t48.5 20q6 3 20.5 7.5t29.5 9.5t26.5 9t10.5 6q-2 3 -22 5t-50 2q-28 0 -46 -4.5t-43 -7.5q-16 7 -25 18.5t-9.5 25t8.5 26.5t28 22q13 3 37.5 7.5t59.5 4.5q19 0 47.5 -5t55 -15.5
t45.5 -27t19 -40.5q0 -22 -15 -40t-38 -33t-49.5 -28t-50.5 -23q-8 -3 -22 -8t-28.5 -10.5t-25.5 -11.5t-12 -11q-2 -10 18.5 -15t61.5 -5z" />
    <glyph glyph-name="afii10101" unicode="&#x454;" horiz-adv-x="665" 
d="M581 75q-6 -3 -32 -16.5t-66 -27.5t-91 -25.5t-108 -11.5q-30 0 -60 1t-56.5 6t-48.5 16.5t-35 31.5q-8 -3 -15.5 -6.5t-14.5 -7.5q-13 6 -17 27t4 38l27 12v1q0 38 25 71t64 59.5t86.5 47t92.5 35t82 21.5t55 7q14 -2 23.5 -14t12 -28t-2 -31.5t-18.5 -25.5
q-107 -12 -181 -39.5t-106 -57.5q46 11 87 17q16 2 41.5 4.5t49 3.5t41 -2t18.5 -11q0 -3 -10 -7.5t-26 -10.5t-35.5 -12t-37.5 -11q-29 -8 -59.5 -16.5t-61.5 -18.5q14 -4 35 -6.5t54 -2.5q24 0 64.5 5.5t82.5 11.5t80 11.5t58 5.5q33 0 33 -11q0 -6 -6 -13.5t-28 -19.5z
" />
    <glyph glyph-name="afii10102" unicode="&#x455;" horiz-adv-x="487" 
d="M104 267q0 37 24 59.5t57.5 33.5t68.5 14.5t57 3.5q45 0 77 -7.5t49 -11.5q7 -13 10 -27t0 -28t-12.5 -27t-28.5 -23q-21 7 -49.5 11t-54.5 4q-30 0 -51.5 -3t-21.5 -11q0 -7 22 -20t49 -32t49 -44.5t22 -57.5q0 -48 -40.5 -77.5t-105.5 -29.5q-26 0 -58 4t-60 12.5
t-47 20t-19 26.5q0 7 15.5 10.5t38.5 5.5t49.5 3t49.5 4t38.5 9t15.5 17q0 9 -22.5 21.5t-49.5 31t-49.5 45t-22.5 63.5z" />
    <glyph glyph-name="afii10103" unicode="&#x456;" horiz-adv-x="269" 
d="M156 67q-20 -26 -36.5 -47t-30.5 -21q-10 0 -17.5 9.5t-12 23t-7 29.5t-2.5 30q3 17 12 47.5t21 63.5t25 62.5t24 44.5q26 -3 49.5 -18.5t37.5 -37.5q-21 -47 -36 -89.5t-27 -96.5zM244 475q6 0 15 -1t17.5 -6t14.5 -17t6 -33q0 -17 -10 -29.5t-23.5 -20.5t-28 -12.5
t-23.5 -4.5q-18 0 -27.5 6.5t-14 15t-5 17t-0.5 13.5q0 13 7.5 26t18.5 23.5t25 16.5t28 6z" />
    <glyph glyph-name="afii10104" unicode="&#x457;" horiz-adv-x="270" 
d="M156 67q-20 -26 -36.5 -47t-30.5 -21q-10 0 -17.5 9.5t-12 23t-7 29.5t-2.5 30q3 17 12 47.5t21 63.5t25 62.5t24 44.5q26 -3 49.5 -18.5t37.5 -37.5q-21 -47 -36 -89.5t-27 -96.5zM237 403q11 22 36 38.5t49 16.5q2 -1 7 -3t10.5 -7t9.5 -14t5 -24l-5.5 -16.5t-10.5 -21
t-17.5 -18.5t-26.5 -8q-18 0 -29.5 5.5t-17.5 13t-8.5 15t-2.5 12.5q0 8 1 11zM16 399q3 12 12.5 22t21.5 17t25.5 11t25.5 4q2 -1 7 -3t10.5 -7t9.5 -13.5t5 -23.5q-2 -7 -5.5 -18t-11 -21t-20.5 -17t-33 -7q-15 0 -24.5 5.5t-15 13t-7.5 15t-2 11.5q0 5 2 11z" />
    <glyph glyph-name="afii10105" unicode="&#x458;" horiz-adv-x="477" 
d="M-177 -424q133 57 222.5 134.5t143.5 160t76.5 161t22.5 135.5q0 10 -1.5 23t-4.5 18q-17 -7 -32.5 -16.5t-27.5 -17.5q-14 -11 -27 -21q-12 0 -25 2t-24 9.5t-18 22.5t-7 42q7 13 29.5 29t49.5 30t53.5 23.5t41.5 9.5q36 0 56 -16.5t29.5 -40.5t11.5 -49.5t2 -43.5
q0 -111 -38.5 -214t-106 -186.5t-158 -141t-193.5 -78.5q-27 -5 -46.5 -7.5t-31.5 -2.5q-25 0 -25 9q0 5 7 12.5t21 13.5z" />
    <glyph glyph-name="afii10106" unicode="&#x459;" horiz-adv-x="718" 
d="M595 104q0 12 -17 24.5t-43 23.5t-57.5 19t-61.5 12q-11 -38 -22.5 -76t-19.5 -76q-7 -28 -15 -46t-22 -21q-11 -3 -23 18.5t-14 54.5q0 16 2 36.5t5 43t7.5 45t9.5 42.5l-8 2q-17 15 -17 34q0 12 8 23.5t27 18.5h8q5 21 13.5 40.5t15.5 38.5l-10 -4q-26 -21 -51 -52
t-49 -65.5t-47 -69.5t-44 -65q-12 -17 -26.5 -35t-28.5 -35t-27 -32t-23 -25q-35 -35 -58 -55.5t-34 -20.5q-15 0 -2.5 34.5t54.5 98.5q17 25 38 57.5t46 68.5q24 36 52 76t58 77t60 68.5t57 51.5q21 15 44.5 27t44 11.5t35.5 -18.5t19 -63q-9 -26 -19 -55t-20 -63
q39 -6 83 -19t81 -34t61.5 -50t24.5 -67q0 -36 -22.5 -60.5t-55.5 -40t-70 -22.5t-65 -8h-26.5t-30 2.5t-25 7t-10.5 13.5q0 6 7.5 12t19.5 10.5t26 8.5t25 6q18 3 41 9.5t43.5 15.5t34 21t13.5 26z" />
    <glyph glyph-name="afii10107" unicode="&#x45a;" horiz-adv-x="672" 
d="M544 135q0 10 -16.5 17.5t-42.5 13t-57.5 9.5t-61.5 7q-6 -18 -11 -34t-10 -31t-9.5 -31.5t-8.5 -35.5q-6 -28 -17 -47t-19 -19q-17 0 -28.5 19.5t-13.5 52.5q-1 30 5 65t16 70h-40h-40.5t-31.5 -1h-1q-6 -22 -12.5 -48.5t-11.5 -46.5q-4 -17 -11 -36t-15 -34.5t-17 -26
t-17 -10.5q-4 0 -8.5 7.5t-8.5 18.5t-6.5 23.5t-2.5 21.5q0 53 12.5 107.5t29.5 103.5t35 87t28 58q15 11 27 13t22.5 -1.5t18.5 -12.5t15 -20q-4 -10 -10 -24t-12.5 -29t-12.5 -29.5t-10 -25.5h38h32t34 -2v1q11 38 21.5 70t27.5 63q13 11 28 16t28 1.5t21.5 -17
t10.5 -38.5q-12 -23 -21 -49.5t-19 -58.5q39 -5 82.5 -12.5t80 -22.5t60.5 -39.5t24 -63.5q0 -36 -24.5 -62t-59 -43.5t-73 -26t-66.5 -9.5q-11 0 -24.5 1.5t-25 4.5t-19.5 7.5t-8 9.5q0 12 20.5 23t43.5 16q18 3 42.5 10.5t46.5 18t37.5 24t15.5 27.5z" />
    <glyph glyph-name="afii10108" unicode="&#x45b;" horiz-adv-x="609" 
d="M436 204q-25 0 -52 -18t-55 -45t-57 -58t-57 -58t-55 -45t-52 -18q-28 0 -47.5 26t-19.5 65q0 84 24.5 176.5t60.5 181.5q-18 -2 -32 -2.5t-16 -1.5q-6 0 -18 12.5t-12 29.5q0 16 9 24.5t24.5 12.5t36.5 5t45 3q21 46 43.5 86.5t43 74t39 58t32.5 38.5q9 2 17.5 4t16.5 2
q22 0 37 -15.5t16 -59.5q-11 -11 -45 -63t-74 -127q28 -3 61 -7t61.5 -10.5t47.5 -15.5t19 -20q0 -9 -28 -17t-68 -8h-18t-32.5 0.5t-40.5 0.5h-41q-18 -36 -34 -74t-28.5 -75.5t-21.5 -73.5t-12 -68q64 62 108 96.5t74.5 51t51 20t38.5 3.5q38 0 65 -17t44.5 -43.5
t25.5 -59t8 -63.5q-8 -71 -21.5 -98t-19.5 -27q-10 0 -11.5 33.5t-9.5 90.5l-4 14.5t-12.5 32t-22 32t-32.5 14.5z" />
    <glyph glyph-name="afii10109" unicode="&#x45c;" horiz-adv-x="712" 
d="M591 640q5 16 18.5 22.5t19.5 6.5q5 0 14.5 -2.5t18.5 -7.5t15.5 -14t6.5 -21q0 -11 -8 -22t-16 -19q-45 -44 -70 -69t-39 -26q-8 0 -14 7t-6 17t7.5 28.5t17.5 38t20 36.5t15 25zM708 31q0 -11 -23 -19.5t-55.5 -14.5t-68.5 -9t-61 -3q-34 0 -72 2t-77 9t-76.5 19
t-70.5 32q-7 -16 -20.5 -53.5t-29 -82.5t-30.5 -92t-25 -82q-14 -51 -24.5 -74t-17.5 -23t-10.5 15.5t-4.5 37.5t-0.5 46t1.5 40q4 60 18.5 131t38.5 147t57 155t73 156t86.5 149t98.5 134q16 1 31 -2.5t26.5 -13t16.5 -25t2 -37.5q-26 -29 -77 -105.5t-120 -199.5
q28 9 60 15.5t62 10.5t54.5 6t37.5 1q20 -15 24 -44t-18 -55q-5 -1 -23 -4t-42.5 -8t-53.5 -11t-55.5 -13t-48 -15.5t-31.5 -16.5q94 -28 175.5 -43t142 -24t95.5 -16.5t35 -19.5z" />
    <glyph glyph-name="afii10110" unicode="&#x45e;" horiz-adv-x="691" 
d="M516 326q33 0 52 -16t28.5 -39t12 -47.5t2.5 -41.5q0 -102 -34.5 -204.5t-100.5 -189.5t-162 -150.5t-219 -86.5q-11 -2 -27 -4.5t-31 -4t-25.5 -1t-10.5 4.5q0 7 13.5 16t35.5 20.5t50 25t57 30.5q72 41 135.5 102.5t110.5 134.5t74 154t27 161q-28 -31 -65 -66
t-78 -64.5t-84.5 -49t-84.5 -19.5q-15 0 -35 5t-38.5 19t-31.5 39.5t-13 66.5q0 14 3 35.5t7.5 44.5t10.5 45t13 37q15 15 32 21t31.5 1.5t24.5 -19t11 -40.5q-25 -63 -25 -131q0 -14 9 -14q33 0 64.5 16.5t60.5 41.5t56.5 54.5t52.5 54.5t47.5 41.5t43.5 16.5zM321 365
q-61 0 -96 39t-40 101q5 12 15 18t24 6q11 0 26 -8.5t15 -20.5q0 -5 3 -14t9.5 -17.5t17 -15t25.5 -6.5q27 0 50.5 6.5t45.5 18t42 26t41 30.5q18 14 36.5 24t27.5 15q17 8 20 1.5t1 -15.5q-2 -8 -8 -20.5t-12 -20.5q-18 -23 -41.5 -49t-53.5 -48t-66.5 -36t-81.5 -14z" />
    <glyph glyph-name="afii10193" unicode="&#x45f;" horiz-adv-x="518" 
d="M294 -26q11 1 19.5 -3.5t14.5 -12t9.5 -16.5t6.5 -16q5 -20 -0.5 -44t-19 -46.5t-33 -41t-40.5 -27.5q-25 -11 -30.5 -8t9.5 24q10 14 20 30t16.5 31t9 28.5t-0.5 22.5q-3 8 -9.5 18.5t-9.5 18.5q-5 15 6.5 27.5t31.5 14.5zM371 39q0 5 1 15t2.5 21t3.5 22t3 17
q-23 -23 -49 -44t-53 -37t-54 -26t-52 -10q-68 0 -104.5 32.5t-36.5 104.5q0 34 11 72.5t47 91.5q15 17 28 24t23 7q21 0 28.5 -18.5t7.5 -45.5q-14 -29 -30.5 -59.5t-16.5 -65.5q0 -29 13.5 -40t30.5 -11q22 0 52.5 18t61 43t58 52.5t42.5 46.5q17 22 36 34t33 12
q24 0 29.5 -30t-12.5 -82q-11 -33 -18.5 -54.5t-13.5 -39t-11 -34.5t-10 -40q-4 -16 -7.5 -32.5t-8 -25.5t-10.5 -6t-15 26q-8 20 -8.5 34.5t-0.5 27.5z" />
    <glyph glyph-name="afii10050" unicode="&#x490;" horiz-adv-x="620" 
d="M470 602q-42 0 -79.5 -2.5t-73.5 -7.5q-25 -41 -49 -99t-46.5 -123t-42.5 -132t-37 -125l-13.5 -40.5t-19.5 -50.5t-23.5 -43t-24.5 -18q-5 0 -9 8.5t-6.5 22.5t-3 32.5t1.5 38.5q7 58 21 121.5t34 129t45.5 131t55.5 128.5q-12 3 -22.5 13.5t-15 24t-2 28.5t14.5 28
q148 39 288 39h50.5h56.5t53 -0.5t40 -1.5q20 34 36 63t27 51t18.5 34.5t11.5 12.5t13 -5.5t9 -16.5q0 -15 -7.5 -48.5t-24.5 -97.5q-5 -17 -12 -33.5t-17 -30t-24.5 -22t-34.5 -8.5q-42 0 -93 -0.5t-95 -0.5z" />
    <glyph glyph-name="afii10098" unicode="&#x491;" horiz-adv-x="427" 
d="M274 345h27h17.5t14.5 -0.5t19 -1.5q32 52 49 88t23 36q16 0 18.5 -12.5t2.5 -21.5q0 -6 -0.5 -12t-2.5 -16.5t-5.5 -26.5t-10.5 -40q-4 -13 -9 -28t-13 -28t-19.5 -21.5t-26.5 -8.5h-38.5t-42 -0.5t-42.5 -2t-38 -4.5q-6 -9 -14 -26.5t-17.5 -39t-19 -46.5t-16.5 -49
q-4 -12 -12 -31.5t-18.5 -38.5t-21.5 -33t-20 -14q-8 0 -12.5 24t-0.5 55q2 19 7.5 46.5t13 55.5t15.5 53.5t16 41.5q-10 3 -17.5 10.5t-11.5 18t-2 22.5t11 22q29 7 53.5 12.5t47.5 9.5t46 5.5t50 1.5z" />
    <glyph glyph-name="endash" unicode="&#x2013;" horiz-adv-x="500" 
d="M431 203q29 -8 41.5 -17.5t12.5 -17.5q0 -14 -19 -19t-45 -5q-27 0 -49.5 0.5t-44 1t-43.5 1t-49 0.5q-71 0 -116.5 -6.5t-53.5 -6.5q-23 21 -24.5 39t19.5 43q5 0 46.5 4t103.5 4q44 0 76 -1t57.5 -3.5t46 -6.5t41.5 -10z" />
    <glyph glyph-name="emdash" unicode="&#x2014;" horiz-adv-x="1000" 
d="M876 194q32 -7 44.5 -16t12.5 -17q0 -12 -19.5 -18.5t-45.5 -6.5q-17 -1 -37 -1.5t-38 -1.5q-21 -1 -43 -2q-104 3 -196 6q-39 1 -79 2t-76.5 2.5t-66.5 2.5t-49 2q-11 1 -20 1h-18q-60 0 -100 -5.5t-70 -7.5l-8 8q-6 6 -11.5 13.5t-5.5 20.5q0 8 4 17.5t15 22.5
q24 1 56 6t85 5q27 0 76.5 -1.5t108.5 -4t121 -5t114.5 -4.5t88 -3.5t42.5 -0.5q5 0 18 -1t29.5 -2.5t35 -4t33.5 -6.5h-1z" />
    <glyph glyph-name="quoteleft" unicode="&#x2018;" horiz-adv-x="280" 
d="M97 468q-20 0 -36.5 16t-16.5 42q0 18 15 42t38.5 45.5t52.5 36.5t58 15q10 0 17.5 -3.5t7.5 -8.5q0 -9 -16 -21q-16 -11 -29.5 -23.5t-24 -24.5t-16.5 -23t-6 -20l7 -7q3 -4 5.5 -9t2.5 -13q0 -11 -6 -19.5t-15 -14t-19 -8t-19 -2.5z" />
    <glyph glyph-name="quoteright" unicode="&#x2019;" horiz-adv-x="280" 
d="M181 666q20 0 36.5 -16t16.5 -42q0 -18 -15 -42t-38.5 -45.5t-52.5 -36.5t-58 -15q-10 0 -17.5 3.5t-7.5 8.5q0 9 16 21q31 22 53.5 48t22.5 43q-4 3 -8 7q-7 9 -7 22q0 11 6 19.5t15 14t19 8t19 2.5z" />
    <glyph glyph-name="quotesinglbase" unicode="&#x201a;" horiz-adv-x="259" 
d="M182 63q20 0 36.5 -16t16.5 -42q0 -18 -15 -42t-38.5 -45.5t-52.5 -36.5t-58 -15q-10 0 -17.5 3.5t-7.5 8.5q0 9 16 21q31 22 53.5 48t22.5 43q-4 3 -8 7q-7 9 -7 22q0 11 6 19.5t15 14t19 8t19 2.5z" />
    <glyph glyph-name="quotedblleft" unicode="&#x201c;" horiz-adv-x="442" 
d="M99 470q-20 0 -36.5 16t-16.5 42q0 18 15 42t38.5 45.5t52.5 36.5t58 15q10 0 17.5 -3.5t7.5 -8.5q0 -9 -16 -21q-16 -11 -29.5 -23.5t-24 -24.5t-16.5 -23t-6 -20l7 -7q3 -4 5.5 -9t2.5 -13q0 -11 -6 -19.5t-15 -14t-19 -8t-19 -2.5zM261 470q-20 0 -36.5 16t-16.5 42
q0 18 15 42t38.5 45.5t52.5 36.5t58 15q10 0 17.5 -3.5t7.5 -8.5q0 -9 -16 -21q-16 -11 -29.5 -23.5t-24 -24.5t-16.5 -23t-6 -20l7 -7q3 -4 5.5 -9t2.5 -13q0 -11 -6 -19.5t-15 -14t-19 -8t-19 -2.5z" />
    <glyph glyph-name="quotedblright" unicode="&#x201d;" horiz-adv-x="442" 
d="M345 668q20 0 36.5 -16t16.5 -42q0 -18 -15 -42t-38.5 -45.5t-52.5 -36.5t-58 -15q-10 0 -17.5 3.5t-7.5 8.5q0 9 16 21q31 22 53.5 48t22.5 43q-4 3 -8 7q-7 9 -7 22q0 11 6 19.5t15 14t19 8t19 2.5zM183 668q20 0 36.5 -16t16.5 -42q0 -18 -15 -42t-38.5 -45.5
t-52.5 -36.5t-58 -15q-10 0 -17.5 3.5t-7.5 8.5q0 9 16 21q31 22 53.5 48t22.5 43q-4 3 -8 7q-7 9 -7 22q0 11 6 19.5t15 14t19 8t19 2.5z" />
    <glyph glyph-name="quotedblbase" unicode="&#x201e;" horiz-adv-x="442" 
d="M182 63q20 0 36.5 -16t16.5 -42q0 -18 -15 -42t-38.5 -45.5t-52.5 -36.5t-58 -15q-10 0 -17.5 3.5t-7.5 8.5q0 9 16 21q31 22 53.5 48t22.5 43q-4 3 -8 7q-7 9 -7 22q0 11 6 19.5t15 14t19 8t19 2.5zM342 63q20 0 36.5 -16t16.5 -42q0 -18 -15 -42t-38.5 -45.5
t-52.5 -36.5t-58 -15q-10 0 -17.5 3.5t-7.5 8.5q0 9 16 21q31 22 53.5 48t22.5 43q-4 3 -8 7q-7 9 -7 22q0 11 6 19.5t15 14t19 8t19 2.5z" />
    <glyph glyph-name="dagger" unicode="&#x2020;" horiz-adv-x="563" 
d="M480 584q23 -9 31.5 -19t6 -19t-13 -15.5t-24.5 -8.5q-35 -6 -67 -10q-27 -4 -54 -6.5t-41 -2.5q-23 -66 -45.5 -130t-39.5 -115q-20 -60 -39 -115q-14 -32 -29 -65q-13 -28 -28 -60.5t-29 -60.5q-26 -47 -40 -61t-19 -5.5t-3.5 33.5t6.5 58q4 33 11.5 69t14.5 66
q8 35 17 70q14 46 32 98q14 45 33.5 101t40.5 117q-47 -3 -83 -7.5t-41 -4.5q-6 4 -12 13t-10 22t-5.5 29t2.5 35q2 0 18 4t40.5 8.5t54.5 8.5t60 4h13q19 53 36 97.5t31 78t24 55t14 29.5q9 4 21.5 6t25 -2t25 -15t21.5 -32q0 -3 -7 -20.5t-18 -47t-26 -68.5t-30 -86
q27 -5 61.5 -11t63.5 -15z" />
    <glyph glyph-name="daggerdbl" unicode="&#x2021;" horiz-adv-x="682" 
d="M599 617q23 -9 31.5 -19t6 -19t-13 -15.5t-24.5 -8.5q-35 -6 -67 -10q-27 -4 -54 -6.5t-41 -2.5q-16 -44 -31.5 -88t-29.5 -84.5t-25.5 -75t-20.5 -59.5q45 -5 84.5 -13t57.5 -13q23 -9 31.5 -19t6 -19t-13 -15.5t-24.5 -8.5q-26 -3 -56 -7q-26 -3 -59 -6t-68 -5
q-13 -29 -29.5 -65t-32.5 -68q-26 -47 -40 -61t-19 -5.5t-3.5 33.5t6.5 58q3 26 8 53.5t11 53.5q-46 -3 -78.5 -9.5t-37.5 -6.5q-6 4 -12 13.5t-10.5 23t-6 30.5t2.5 36q2 0 17.5 4t39 8.5t53 8.5t59.5 4h1q5 15 15 45.5t23.5 71t30 88t33.5 97.5q-47 -3 -83 -7.5t-41 -4.5
q-6 4 -12 13t-10 22t-5.5 29t2.5 35q2 0 18 4t40.5 8.5t54.5 8.5t60 4h13q19 53 36 97.5t31 78t24 55t14 29.5q9 4 21.5 6t25 -2t25 -15t21.5 -32q0 -3 -7 -20.5t-18 -47t-26 -68.5t-30 -86q27 -5 61.5 -11t63.5 -15z" />
    <glyph glyph-name="bullet" unicode="&#x2022;" horiz-adv-x="304" 
d="M100 70q-35 10 -49.5 29t-14.5 43t15 49.5t37.5 46.5t50 34.5t51.5 13.5q29 0 49 -20.5t28 -60.5q4 -42 -14.5 -68.5t-46 -41.5t-56.5 -20.5t-46 -5.5z" />
    <glyph glyph-name="ellipsis" unicode="&#x2026;" horiz-adv-x="715" 
d="M116 101q5 0 12.5 -1t15 -5.5t13 -14.5t5.5 -29q0 -14 -7.5 -24.5t-18.5 -18t-23 -11t-21 -3.5q-25 0 -35.5 13t-10.5 23q0 12 5.5 25t15 23t22.5 16.5t27 6.5zM376 101q5 0 12.5 -1t15 -5.5t13 -14.5t5.5 -29q0 -14 -7.5 -24.5t-18.5 -18t-23 -11t-21 -3.5
q-25 0 -35.5 13t-10.5 23q0 12 5.5 25t15 23t22.5 16.5t27 6.5zM635 101q5 0 12.5 -1t15 -5.5t13 -14.5t5.5 -29q0 -14 -7.5 -24.5t-18.5 -18t-23 -11t-21 -3.5q-25 0 -35.5 13t-10.5 23q0 12 5.5 25t15 23t22.5 16.5t27 6.5z" />
    <glyph glyph-name="perthousand" unicode="&#x2030;" horiz-adv-x="1000" 
d="M650 769q22 -2 35 -9.5t21 -18.5q10 -14 11 -29.5t-1 -25.5q-43 -35 -87 -75q-38 -35 -82 -80.5t-83 -96.5q-30 -37 -56.5 -75.5t-48.5 -73.5t-38 -64t-25 -48q-10 -12 -25 -36t-32 -53.5t-35 -60.5t-34.5 -56.5t-29.5 -42t-21 -16.5q-5 0 -7.5 8t-2.5 22q0 10 8.5 47.5
t22 83.5t30 90.5t33.5 69.5l30 52.5t41 68t51 76t58 76.5q42 56 88 103.5t85 83t65 56.5t29 24zM637 93q-9 -9 -23.5 -21.5t-35 -24t-46 -19.5t-55.5 -8q-12 0 -35 2.5t-46.5 12t-40.5 28t-17 50.5q0 22 11 43t27.5 38.5t36.5 32t37.5 25t30 16t14.5 5.5q11 -1 21 -12.5
t10 -31.5q8 5 22.5 13.5t43.5 8.5q24 0 41.5 -17t25 -41.5t3 -52t-24.5 -47.5zM342 494q-9 -9 -23.5 -21.5t-35 -24t-46 -19.5t-55.5 -8q-12 0 -35 2.5t-46.5 12t-40.5 28t-17 50.5q0 22 11 43t27.5 38.5t36.5 32t37.5 25t30 16t14.5 5.5q11 -1 21 -12.5t10 -31.5
q8 5 22.5 13.5t43.5 8.5q24 0 41.5 -17t25 -41.5t3 -52t-24.5 -47.5zM986 93q-9 -9 -23.5 -21.5t-35 -24t-46 -19.5t-55.5 -8q-12 0 -35 2.5t-46.5 12t-40.5 28t-17 50.5q0 22 11 43t27.5 38.5t36.5 32t37.5 25t30 16t14.5 5.5q11 -1 21 -12.5t10 -31.5q8 5 22.5 13.5
t43.5 8.5q24 0 41.5 -17t25 -41.5t3 -52t-24.5 -47.5zM788 118q10 -5 27 -5q18 0 39 5.5t39.5 14.5t30.5 20t12 22q0 9 -9.5 14.5t-20.5 9t-21 4.5l-10 1q0 -7 -3.5 -11t-3.5 -13h1l-9 -2t-21.5 -8.5t-26.5 -18.5t-24 -33zM144 519q10 -5 27 -5q18 0 39 5.5t39.5 14.5
t30.5 20t12 22q0 9 -9.5 14.5t-20.5 9t-21 4.5l-10 1q0 -7 -3.5 -11t-3.5 -13q-2 0 -11.5 -2.5t-21.5 -9.5t-25 -19t-22 -31zM439 118q10 -5 27 -5q18 0 39 5.5t39.5 14.5t30.5 20t12 22q0 9 -9.5 14.5t-20.5 9t-21 4.5l-10 1q0 -7 -3.5 -11t-3.5 -13h1l-9 -2t-21.5 -8.5
t-26.5 -18.5t-24 -33z" />
    <glyph glyph-name="guilsinglleft" unicode="&#x2039;" horiz-adv-x="389" 
d="M33 307q0 19 12.5 38t32.5 37t45 34.5t50.5 30.5t48.5 24.5t40 17.5q17 6 27.5 9.5t17.5 5.5t11.5 2.5t9.5 0.5q15 0 21 -5.5t6 -13.5q0 -29 -28 -49t-70 -38q-25 -11 -49 -23t-43 -23t-31 -21.5t-12 -17.5q0 -6 14.5 -18.5t33 -25.5t37.5 -24.5t28 -15.5
q37 -18 56.5 -31.5t19.5 -24.5q0 -16 -32 -16q-11 0 -33.5 6.5t-50 17.5t-56.5 26t-52.5 31t-38.5 33t-15 33z" />
    <glyph glyph-name="guilsinglright" unicode="&#x203a;" horiz-adv-x="408" 
d="M151 520q8 0 28.5 -10.5t47 -27.5t55.5 -39t52.5 -45t39 -45.5t15.5 -40.5q0 -14 -6.5 -25.5t-16 -20.5t-19.5 -16t-17 -11q-26 -16 -41.5 -25t-30.5 -16t-34.5 -14t-52.5 -19q-39 -16 -61 -22t-34 -6q-31 0 -31 15q0 11 20 28.5t56 28.5q38 12 78.5 40t91.5 54
q11 5 11 15q0 3 -3 8q-40 37 -72.5 59t-56 38t-36 31t-12.5 39q0 11 6.5 19t22.5 8z" />
    <glyph glyph-name="Euro" unicode="&#x20ac;" horiz-adv-x="864" 
d="M734 66q-21 -15 -55 -34.5t-77.5 -37.5t-94.5 -30t-106 -12h-12q-8 0 -30.5 1.5t-52 7t-61 17t-58 33t-44 54t-17.5 79.5q0 29 6 55q-36 -5 -64.5 -9t-43.5 -7q-7 -2 -13.5 -2t-10.5 -1q-9 6 -22 20.5t-13 34.5q0 8 3 17.5t13 19.5q26 5 55 9q25 4 57.5 8t68.5 8
q7 14 13.5 27.5t13.5 24.5q-9 -2 -17 -3.5t-14 -2.5q-7 -2 -13 -2q-10 0 -22 19.5t-12 44.5q0 13 5 20.5t20.5 12t44.5 8t78 8.5q34 43 73.5 80.5t80.5 68.5t82.5 55.5t79.5 42.5v-1q42 21 79.5 33t65.5 18t45 7.5t19 1.5q19 -2 37 -14t18 -29q0 -11 -10 -23.5t-34 -26.5
q-2 0 -21 -3.5t-49.5 -12.5t-70.5 -24.5t-83.5 -39t-89 -56.5t-87.5 -77q37 0 77 -5t73 -12.5t54.5 -17t21.5 -19.5q0 -12 -27.5 -20t-71.5 -12t-98.5 -5.5t-108.5 -1.5l-8 -13q-8 -13 -13.5 -21t-11.5 -19q13 1 26.5 0.5t27.5 -0.5q71 0 132.5 -4t107.5 -11t72 -16t26 -19
q0 -6 -9 -11.5t-22 -9.5t-27 -6.5t-24 -2.5q-23 -1 -67.5 -2.5t-95.5 -4t-102 -5.5t-87 -6q-5 -17 -8.5 -33.5t-3.5 -31.5q0 -33 19 -53t47 -30.5t60 -14t57 -3.5q67 0 145 19t153 53q57 33 87.5 47t39.5 14q10 0 10 -7q0 -9 -31.5 -38t-79.5 -66z" />
    <glyph glyph-name="afii61352" unicode="&#x2116;" horiz-adv-x="1325" 
d="M1167 412q24 -4 47 -10.5t41 -13.5t29 -14t11 -11q0 -5 -24.5 -7.5t-66.5 -4.5t-99 -5t-122 -8q-20 -2 -33.5 -3.5t-18.5 -1.5q-2 0 -11 10.5t-9 24.5q0 8 2.5 20t7.5 17q45 7 85 9t73 2q35 0 59 -1.5t29 -2.5zM154 38q-39 -48 -65.5 -40.5t-37.5 65.5q1 16 12 64
t36.5 117.5t68 155t107.5 177.5q21 29 49.5 63.5t61.5 64.5t69.5 50t72.5 20q34 0 56 -12t35.5 -33t20 -50t9.5 -63q1 -8 2 -37t2.5 -69t3 -87t2.5 -92t1 -84t-1 -62q10 18 25.5 50.5t34 73t39 86.5t40 92.5t37.5 90.5t32 80q20 55 30 78.5t17 23.5q4 0 5.5 -10t1 -25.5
t-2.5 -33.5t-5 -34q-6 -33 -16.5 -79t-24.5 -99.5t-31.5 -111.5t-37 -113t-40.5 -104.5t-42.5 -86.5t-42.5 -59t-41 -22q-30 0 -46 18t-23 45.5t-9 61.5t-5 66q-3 28 -5 75.5t-3.5 102.5t-3.5 110.5t-4.5 100.5t-5 73.5t-6.5 28.5q-14 0 -34.5 -13.5t-43.5 -35t-46 -48
t-41 -53.5q-55 -92 -90.5 -167t-58 -134.5t-35.5 -103.5t-23 -72zM1284 589q0 -33 -21.5 -54t-52 -34t-64 -18t-56.5 -5q-24 0 -48.5 4.5t-44 14t-32 25.5t-12.5 40q0 16 20 34t50.5 33t68 25t73.5 10q21 0 42 -3.5t38 -12.5t28 -23.5t11 -35.5zM1207 584q0 5 -16.5 9
t-30.5 4q-12 0 -28.5 -1.5t-34.5 -4.5t-35.5 -8t-32.5 -12q3 -3 2.5 -6t2.5 -5.5t13.5 -4t35.5 -1.5q16 0 37.5 1.5t40.5 5.5t32.5 9.5t13.5 13.5z" />
    <glyph glyph-name="trademark" unicode="&#x2122;" horiz-adv-x="976" 
d="M307 610q-12 -25 -25 -57.5t-24 -62.5q-13 -35 -25 -72q-1 -3 -10 -15.5t-21.5 -27t-24.5 -25.5t-19 -11q-12 0 -16 16t-3.5 36.5t3.5 39t4 24.5q9 26 19 52q8 23 17.5 50t19.5 53q-26 0 -49.5 -3t-41.5 -6q-21 -4 -39 -9q-5 3 -11 14t-10 25.5t-4.5 29t6.5 24.5
q0 1 19.5 4t50 6.5t66.5 6t69 2.5q57 0 104 -5t80.5 -12.5t51.5 -16.5t18 -17t-12.5 -15t-32.5 -12q-3 -1 -22 -3.5t-44.5 -5.5t-51.5 -5t-42 -2zM847 672q46 0 65 -26.5t18 -71.5q-1 -38 -11 -80.5t-22.5 -79t-25.5 -60.5t-20 -24q-6 0 -9 14t-3 37q0 33 5 80t3 112
q-15 -5 -30 -22t-31 -35.5t-34.5 -33.5t-39.5 -15q-26 0 -38.5 15t-17 37t-4 45t2.5 40q-18 -19 -33.5 -56t-27.5 -77t-22 -75.5t-17 -51.5q-21 -14 -44 -14q-9 0 -20.5 10t-22.5 31q5 17 13 49.5t20 70.5t28 77.5t36 72t44 53t52 20.5q21 0 37 -9t27.5 -22.5t17 -29.5
t5.5 -30q23 18 47 33.5t52 15.5z" />
    </font>
</defs>
</svg>
